<svg width="31" height="33" viewBox="0 0 31 33" fill="none" xmlns="http://www.w3.org/2000/svg">
<g clip-path="url(#clip0)">
<path d="M22.3992 19.5906C21.8819 19.5906 21.4609 20.0251 21.4609 20.5591C21.4609 21.093 21.8819 21.5273 22.3992 21.5273C22.9164 21.5273 23.3372 21.093 23.3372 20.5591C23.3372 20.0251 22.9164 19.5906 22.3992 19.5906Z" fill="#FFC73F"/>
<path d="M29.979 0.713379H14.8184C14.2272 0.713379 13.7461 1.20996 13.7461 1.82031V4.73267H22.3516C25.2268 4.73267 27.5662 7.14722 27.5662 10.1152C27.5662 13.0833 25.2271 15.498 22.3516 15.498H13.7461V31.6064C13.7461 32.2168 14.2272 32.7134 14.8184 32.7134H29.9793C30.5706 32.7134 31.0514 32.2168 31.0514 31.6064V1.82031C31.0514 1.20996 30.5703 0.713379 29.979 0.713379ZM23.3071 23.2429V25.9229C23.3071 26.4407 22.9003 26.8604 22.3989 26.8604C21.8972 26.8604 21.4907 26.4407 21.4907 25.9229V23.2429C20.4167 22.8545 19.6442 21.7983 19.6442 20.5591C19.6442 18.9912 20.88 17.7158 22.3989 17.7158C23.9177 17.7158 25.1533 18.9912 25.1533 20.5591C25.1533 21.7983 24.3808 22.8545 23.3071 23.2429Z" fill="#FFC73F"/>
<path d="M25.7282 10.1152C25.7282 8.14917 24.1785 6.54956 22.2737 6.54956H1.11018C0.531441 6.54956 0.0605469 7.0354 0.0605469 7.63281V12.5977C0.0605469 13.1951 0.531441 13.6812 1.11018 13.6812H22.2737C24.1785 13.6812 25.7282 12.0815 25.7282 10.1152Z" fill="#FFC73F"/>
</g>
<defs>
<clipPath id="clip0">
<rect width="31" height="32" fill="white" transform="translate(0 0.713379)"/>
</clipPath>
</defs>
</svg>
