<svg width="32" height="33" viewBox="0 0 32 33" fill="none" xmlns="http://www.w3.org/2000/svg">
<g clip-path="url(#clip0)">
<path d="M6.24625 3.14624H3.5523C1.81563 3.14624 0.396484 4.56538 0.396484 6.30004V26.2835C0.396484 28.0181 1.81563 29.4373 3.5523 29.4373H6.24625V23.1283H8.87643V17.8559H6.24625V3.14624Z" fill="#FFC73F"/>
<path d="M28.7926 3.14624H11.5051V9.45585H8.87695V14.7276H11.5051V29.4373H28.7926C30.5299 29.4373 31.9484 28.0181 31.9484 26.2835V6.30004C31.9484 4.56538 30.5299 3.14624 28.7926 3.14624ZM24.7634 21.6548C24.7634 21.6548 24.7634 21.6548 24.7634 21.6575C24.7634 22.8699 23.3523 23.852 21.6116 23.852C19.8709 23.852 18.4599 22.8699 18.4599 21.6575C18.4599 21.4199 20.2086 14.4732 20.2086 14.4732C19.2386 13.9657 18.5686 12.9567 18.5686 11.7819C18.5686 10.099 19.9307 8.73218 21.6184 8.73218C23.3053 8.73218 24.6627 10.099 24.6627 11.7819C24.6627 12.9567 23.9981 13.9657 23.0261 14.4732C23.0261 14.4732 24.7513 21.4044 24.7567 21.6085L24.7688 21.6548H24.7634Z" fill="#FFC73F"/>
</g>
<defs>
<clipPath id="clip0">
<rect width="31.5505" height="31.5505" fill="white" transform="translate(0.396484 0.516113)"/>
</clipPath>
</defs>
</svg>
