<svg width="34" height="35" viewBox="0 0 34 35" fill="none" xmlns="http://www.w3.org/2000/svg">
<g clip-path="url(#clip0)">
<path d="M4.083 10.7318C5.96312 7.86135 8.89542 5.74458 12.3258 4.91521C12.5901 4.85186 12.8078 4.66472 12.9098 4.4135C13.0125 4.16156 12.9877 3.87612 12.8435 3.64529C11.7455 1.89479 9.80271 0.729004 7.58328 0.729004C4.15218 0.729004 1.36914 3.51058 1.36914 6.94168C1.36914 8.39801 1.8723 9.73564 2.7126 10.7937C2.88081 11.007 3.14149 11.125 3.41309 11.1126C3.6847 11.1002 3.93446 10.9582 4.083 10.7318Z" fill="#FFC73F"/>
<path d="M26.515 0.729004C24.3058 0.729004 22.3696 1.88387 21.2693 3.62272C21.1237 3.85282 21.0982 4.14044 21.2009 4.39384C21.3043 4.64797 21.5227 4.83438 21.79 4.897C25.2298 5.70672 28.1723 7.80892 30.0684 10.6699C30.2192 10.8971 30.4704 11.0376 30.7434 11.0471C31.0165 11.0573 31.2757 10.9349 31.4432 10.7187C32.2478 9.67302 32.7291 8.36524 32.7291 6.94241C32.727 3.51058 29.9461 0.729004 26.515 0.729004Z" fill="#FFC73F"/>
<path d="M30.7856 19.7573C30.7856 17.3588 30.1616 15.1044 29.0737 13.1427C27.0575 9.50917 23.4363 6.89725 19.1744 6.24336C18.495 6.13924 17.8054 6.0686 17.0969 6.0686C16.3571 6.0686 15.6362 6.14433 14.9277 6.25793C10.684 6.93876 7.08105 9.5616 5.08589 13.1995C4.01768 15.1481 3.4082 17.3821 3.4082 19.7573C3.4082 23.8248 5.20167 27.4737 8.02694 29.9814L6.87353 31.606C6.37692 32.3057 6.54149 33.2742 7.24125 33.7723C7.51431 33.9659 7.82815 34.0599 8.13907 34.0599C8.62548 34.0599 9.10462 33.832 9.4068 33.406L10.5595 31.7822C12.5029 32.8431 14.7304 33.4475 17.0969 33.4475C19.4627 33.4475 21.6902 32.8431 23.6336 31.7822L24.7863 33.406C25.0892 33.8327 25.5676 34.0599 26.054 34.0599C26.365 34.0599 26.6781 33.9659 26.9511 33.7723C27.6509 33.2742 27.8162 32.3057 27.3196 31.606L26.1662 29.9814C28.9915 27.4737 30.7856 23.8248 30.7856 19.7573ZM17.0977 29.6181C11.6597 29.6181 7.23688 25.1952 7.23688 19.7573C7.23688 18.0622 7.66722 16.4668 8.42306 15.0716C9.8619 12.4182 12.4862 10.5068 15.578 10.0254C16.0746 9.94825 16.5792 9.89582 17.0977 9.89582C17.5855 9.89582 18.0625 9.94315 18.5321 10.0123C21.6501 10.4696 24.3028 12.381 25.7584 15.0461C26.523 16.4464 26.9577 18.0505 26.9577 19.7566C26.9577 25.1952 22.5348 29.6181 17.0977 29.6181Z" fill="#FFC73F"/>
<path d="M22.6217 22.0641L18.86 19.7413C18.7821 19.3015 18.544 18.9221 18.2097 18.6534L18.3816 13.9335C18.4027 13.3306 17.9323 12.8245 17.3301 12.8019C16.7294 12.7743 16.2211 13.2505 16.1986 13.8534L16.026 18.5784C15.5592 18.9076 15.252 19.4493 15.252 20.0646C15.252 21.0702 16.0668 21.8843 17.0724 21.8843C17.3585 21.8843 17.6258 21.8122 17.8661 21.695L21.4741 23.9246C21.6532 24.0338 21.852 24.087 22.0472 24.087C22.4134 24.087 22.7702 23.9035 22.9778 23.5693C23.2952 23.0545 23.135 22.3816 22.6217 22.0641Z" fill="#FFC73F"/>
</g>
<defs>
<clipPath id="clip0">
<rect width="33.3302" height="33.3302" fill="white" transform="translate(0.382812 0.729004)"/>
</clipPath>
</defs>
</svg>
