<svg width="31" height="32" viewBox="0 0 31 32" fill="none" xmlns="http://www.w3.org/2000/svg">
<g clip-path="url(#clip0)">
<path d="M22.4531 3.34223C20.5001 1.32383 18.1432 0.314941 15.3828 0.314941C12.6222 0.314941 10.2655 1.32404 8.31245 3.34223C6.35943 5.36035 5.38281 7.79568 5.38281 10.6482C5.38281 12.115 5.59762 13.319 6.02716 14.2609L13.1561 29.8823C13.3515 30.326 13.6543 30.6758 14.0644 30.9312C14.4746 31.1869 14.914 31.3149 15.3829 31.3149C15.8516 31.3149 16.2912 31.1869 16.7014 30.9312C17.1115 30.6758 17.4205 30.326 17.6289 29.8823L24.7379 14.2609C25.1676 13.319 25.3826 12.1149 25.3826 10.6482C25.3829 7.79568 24.4065 5.36063 22.4531 3.34223ZM18.9178 14.3013C17.9413 15.3101 16.7631 15.8148 15.3828 15.8148C14.0025 15.8148 12.8242 15.3101 11.8475 14.3013C10.871 13.292 10.3826 12.0745 10.3826 10.6482C10.3826 9.22199 10.871 8.00422 11.8475 6.99526C12.8242 5.98617 14.0027 5.48151 15.3828 5.48151C16.7631 5.48151 17.9413 5.98617 18.9178 6.99526C19.8942 8.00415 20.3826 9.22199 20.3826 10.6482C20.3826 12.0743 19.8943 13.2918 18.9178 14.3013Z" fill="#FFC73F"/>
</g>
<defs>
<clipPath id="clip0">
<rect width="30" height="31" fill="white" transform="translate(0.382812 0.314941)"/>
</clipPath>
</defs>
</svg>
