<svg width="36" height="36" viewBox="0 0 36 36" fill="none" xmlns="http://www.w3.org/2000/svg">
<g clip-path="url(#clip0)">
<path d="M21.265 0.245605C17.5441 0.245605 14.1457 1.6502 11.5703 3.95616C12.1416 4.86451 12.4661 5.92132 12.4966 7.0122L12.4967 7.01538L12.4968 7.01856C12.5098 7.51011 12.5392 8.00178 12.5812 8.49269C14.5347 5.80845 17.6985 4.05899 21.265 4.05899C27.1847 4.05899 32.0008 8.87504 32.0008 14.7948C32.0008 20.6522 27.2851 25.4258 21.4512 25.5259C21.9839 25.9711 22.5339 26.3954 23.1006 26.7938L23.1031 26.7957L23.1058 26.7974C23.8774 27.3417 24.5058 28.0554 24.9468 28.8715C31.1922 27.2367 35.814 21.5457 35.814 14.7948C35.8142 6.77234 29.2876 0.245605 21.265 0.245605Z" fill="#FFC73F"/>
<path d="M20.9081 29.9135C19.246 28.5867 18.209 27.7032 16.725 26.3284C16.2883 25.924 15.7547 25.672 15.2067 25.672C14.7874 25.672 14.3732 25.8056 14.0323 26.0854C13.6805 26.3816 13.3286 26.6777 12.9767 26.9738C10.1167 23.575 7.99307 19.6146 6.74469 15.3517C7.18603 15.2226 7.62749 15.0933 8.06883 14.9642C9.0415 14.6663 9.4991 13.628 9.35635 12.587C9.04582 10.3214 8.87714 9.19579 8.68494 7.11889C8.58643 6.05432 7.8779 5.12957 6.8624 5.07428C6.70402 5.0589 6.54576 5.05127 6.38878 5.05127C2.61225 5.05127 -0.675903 9.42853 0.540441 14.7835C2.05397 21.4153 5.33056 27.5257 10.0168 32.4562C11.9365 34.4717 14.2882 35.3843 16.4121 35.3843C18.6528 35.3843 20.64 34.3695 21.6025 32.5631C22.1185 31.6866 21.7438 30.5806 20.9081 29.9135Z" fill="#FFC73F"/>
<path d="M16.8897 15.0641C15.884 15.9973 15.226 16.731 14.8784 17.3068C14.6331 17.7129 14.4541 18.1423 14.3462 18.583C14.2955 18.7904 14.3421 19.0058 14.4742 19.1739C14.6061 19.3419 14.8042 19.4382 15.0177 19.4382H19.8173C20.4053 19.4382 20.8838 18.9598 20.8838 18.3717C20.8838 17.7837 20.4053 17.3053 19.8173 17.3053H17.6499C17.6675 17.2844 17.6857 17.2636 17.7043 17.2426C17.8459 17.0832 18.1926 16.7502 18.7348 16.253C19.3034 15.7312 19.6872 15.3405 19.9083 15.0584C20.2415 14.6344 20.4893 14.2204 20.6448 13.8281C20.8033 13.4283 20.8838 13.0021 20.8838 12.5611C20.8838 11.77 20.5972 11.0985 20.0322 10.5648C19.4709 10.0355 18.6982 9.76733 17.7352 9.76733C16.8601 9.76733 16.1169 9.99639 15.5263 10.4482C15.17 10.7209 14.8957 11.0988 14.7109 11.5717C14.5861 11.8911 14.6184 12.2566 14.7973 12.5491C14.9763 12.8417 15.287 13.0368 15.6283 13.0709C15.6663 13.0747 15.7042 13.0766 15.7415 13.0766C16.2219 13.0766 16.6503 12.7711 16.8076 12.3166C16.8569 12.1741 16.9221 12.0608 17.0017 11.9797C17.1693 11.809 17.3949 11.7259 17.6917 11.7259C17.9933 11.7259 18.2187 11.8044 18.3804 11.966C18.5417 12.1273 18.6201 12.3626 18.6201 12.6855C18.6201 12.9853 18.513 13.298 18.3017 13.6152C18.1884 13.7812 17.8499 14.1695 16.8897 15.0641Z" fill="#FFC73F"/>
<path d="M26.4992 9.76733H25.6975C25.4691 9.76733 25.2558 9.87996 25.1269 10.0686L21.4193 15.4961C21.3111 15.6544 21.2539 15.8396 21.2539 16.0315V16.9109C21.2539 17.2919 21.5639 17.6019 21.9449 17.6019H24.9886V18.3375C24.9886 18.9445 25.4824 19.4383 26.0894 19.4383C26.6964 19.4383 27.1902 18.9445 27.1902 18.3375V17.6019H27.3002C27.8642 17.6019 28.323 17.1431 28.323 16.5791C28.323 16.0151 27.8642 15.5562 27.3002 15.5562H27.1902V10.4583C27.1902 10.0774 26.8802 9.76733 26.4992 9.76733ZM24.9887 15.5562H23.6225L24.9887 13.5252V15.5562Z" fill="#FFC73F"/>
</g>
<defs>
<clipPath id="clip0">
<rect width="35.5312" height="35.5312" fill="white" transform="translate(0.283203 0.0493164)"/>
</clipPath>
</defs>
</svg>
