<svg width="38" height="39" viewBox="0 0 38 39" fill="none" xmlns="http://www.w3.org/2000/svg">
<g clip-path="url(#clip0)">
<path d="M18.8016 0.890137C8.49295 0.890137 0.0585938 9.32449 0.0585938 19.6331C0.0585938 29.9418 8.49295 38.3762 18.8016 38.3762C29.1103 38.3762 37.5446 29.9418 37.5446 19.6331C37.5446 9.32449 29.1103 0.890137 18.8016 0.890137ZM18.8016 34.6276C10.5547 34.6276 3.8072 27.8801 3.8072 19.6331C3.8072 11.3862 10.5547 4.63874 18.8016 4.63874C27.0485 4.63874 33.796 11.3862 33.796 19.6331C33.796 27.8801 27.0485 34.6276 18.8016 34.6276Z" fill="#DDDDDD"/>
<path d="M19.7392 10.2617H16.9277V21.5075L26.6741 27.5053L28.1735 25.0687L19.7392 20.0081V10.2617Z" fill="#DDDDDD"/>
</g>
<defs>
<clipPath id="clip0">
<rect width="37.486" height="37.486" fill="white" transform="translate(0.0585938 0.890137)"/>
</clipPath>
</defs>
</svg>
