<svg width="31" height="39" viewBox="0 0 31 39" fill="none" xmlns="http://www.w3.org/2000/svg">
<path d="M14.8463 0.848904C7.39275 1.11043 1.20066 6.92562 0.485295 14.3484C0.339147 15.833 0.423759 17.2714 0.685289 18.6483C0.685289 18.6483 0.708365 18.8098 0.785285 19.1175C1.01605 20.1482 1.36219 21.1482 1.79294 22.0866C3.29289 25.6404 6.762 31.5863 14.5463 38.0553C15.0233 38.4553 15.7232 38.4553 16.2078 38.0553C23.9922 31.594 27.4613 25.648 28.9689 22.0789C29.4074 21.1405 29.7458 20.1482 29.9766 19.1098C30.0458 18.8098 30.0766 18.6406 30.0766 18.6406C30.2535 17.7176 30.3458 16.7714 30.3458 15.8022C30.3458 7.35637 23.3537 0.548914 14.8463 0.848904ZM15.3771 23.2481C11.3618 23.2481 8.10811 19.9944 8.10811 15.9791C8.10811 11.9639 11.3618 8.71017 15.3771 8.71017C19.3923 8.71017 22.6461 11.9639 22.6461 15.9791C22.6461 19.9944 19.3923 23.2481 15.3771 23.2481Z" fill="#DDDDDD"/>
</svg>
