<svg width="13" height="17" viewBox="0 0 13 17" fill="none" xmlns="http://www.w3.org/2000/svg">
<path d="M11.2844 5.95374H10.5076V4.39999C10.5076 2.22475 8.79843 0.515625 6.62319 0.515625C4.44794 0.515625 2.73882 2.22475 2.73882 4.39999V5.95374H1.96195C1.10739 5.95374 0.408203 6.65292 0.408203 7.50748V15.2762C0.408203 16.1308 1.10739 16.83 1.96195 16.83H11.2844C12.139 16.83 12.8382 16.1308 12.8382 15.2762V7.50748C12.8382 6.65292 12.139 5.95374 11.2844 5.95374ZM6.62319 1.99168C7.94387 1.99168 9.0315 3.07931 9.0315 4.39999V5.95374H4.29257V4.39999H4.21488C4.21488 3.07931 5.3025 1.99168 6.62319 1.99168ZM11.2844 15.2762H1.96195V7.50748H11.2844V15.2762ZM6.62319 12.9456C7.47775 12.9456 8.17693 12.2464 8.17693 11.3918C8.17693 10.5373 7.47775 9.8381 6.62319 9.8381C5.76863 9.8381 5.06944 10.5373 5.06944 11.3918C5.06944 12.2464 5.76863 12.9456 6.62319 12.9456Z" fill="#FFC73F"/>
</svg>
