<svg width="74" height="94" viewBox="0 0 74 94" fill="none" xmlns="http://www.w3.org/2000/svg">
<g clip-path="url(#clip0)">
<path d="M20.738 65.4826H13.2423C12.6592 65.4826 12.2012 65.0279 12.2012 64.4492C12.2012 63.8706 12.6592 63.4159 13.2423 63.4159H20.738C21.5293 63.4159 22.1955 62.7546 22.1955 61.9692V32.2919C22.1955 31.5066 21.5293 30.8452 20.738 30.8452H13.2423C12.6592 30.8452 12.2012 30.3906 12.2012 29.8119C12.2012 29.2332 12.6592 28.7786 13.2423 28.7786H20.738C22.6953 28.7786 24.2777 30.3492 24.2777 32.2919V61.9692C24.2777 63.9119 22.6953 65.4826 20.738 65.4826Z" fill="#FFC73F"/>
<path d="M42.6852 54.4878H28.0684C27.4854 54.4878 27.0273 54.0331 27.0273 53.4545C27.0273 52.8758 27.4854 52.4211 28.0684 52.4211H42.6852C43.2682 52.4211 43.7263 52.8758 43.7263 53.4545C43.7263 54.0331 43.2682 54.4878 42.6852 54.4878Z" fill="#FFC73F"/>
<path d="M42.6852 41.8399H28.0684C27.4854 41.8399 27.0273 41.3852 27.0273 40.8065C27.0273 40.2279 27.4854 39.7732 28.0684 39.7732H42.6852C43.2682 39.7732 43.7263 40.2279 43.7263 40.8065C43.7263 41.3852 43.2682 41.8399 42.6852 41.8399Z" fill="#FFC73F"/>
<path d="M25.569 61.8039H23.1954C22.6124 61.8039 22.1543 61.3493 22.1543 60.7706C22.1543 60.1919 22.6124 59.7373 23.1954 59.7373H25.569C26.3603 59.7373 27.0266 59.0759 27.0266 58.2906V35.9706C27.0266 35.1853 26.3603 34.5239 25.569 34.5239H23.1954C22.6124 34.5239 22.1543 34.0693 22.1543 33.4906C22.1543 32.9119 22.6124 32.4573 23.1954 32.4573H25.569C27.5263 32.4573 29.1087 34.0279 29.1087 35.9706V58.2493C29.1087 60.1919 27.5263 61.8039 25.569 61.8039Z" fill="#FFC73F"/>
<path d="M54.886 69.5332C51.8044 69.5332 48.2647 66.9292 45.4747 62.5479C42.6429 58.0839 40.9772 52.4626 40.9355 47.1306C40.9772 41.7986 42.6429 36.1772 45.4747 31.7132C48.2647 27.3319 51.7628 24.7279 54.886 24.7279C60.9659 24.7279 63.6727 27.1252 65.6716 29.6879C67.1708 31.5892 67.962 33.8626 67.962 36.2599V58.0839C67.962 60.4812 67.1708 62.7132 65.6716 64.6559C63.6727 67.1772 60.9659 69.5332 54.886 69.5332ZM43.0177 47.1306C43.0594 52.0492 44.6001 57.2986 47.2237 61.4319C49.5973 65.1519 52.5124 67.4666 54.8444 67.4666C60.2996 67.4666 62.4234 65.3172 64.0059 63.2919C65.2135 61.7626 65.8798 59.9026 65.8798 58.0012V36.2186C65.8798 34.3172 65.2552 32.4572 64.0059 30.9279C62.4234 28.9026 60.2996 26.7532 54.8444 26.7532C52.5124 26.7532 49.5973 29.0679 47.2237 32.7879C44.6001 36.9626 43.0594 42.1706 43.0177 47.1306Z" fill="#FFC73F"/>
<path d="M47.3907 48.1639C46.8077 48.1639 46.3496 47.7092 46.3496 47.1305C46.4329 38.3265 51.8882 30.7212 54.7199 30.1012C55.3029 29.9772 55.8443 30.3492 55.9692 30.8865C56.0941 31.4239 55.7193 32.0025 55.178 32.1265C54.0952 32.3745 48.5151 38.2852 48.4318 47.1305C48.4318 47.7092 47.9737 48.1639 47.3907 48.1639Z" fill="#FFC73F"/>
<path d="M70.3361 55.1492H66.963C66.38 55.1492 65.9219 54.6946 65.9219 54.1159C65.9219 53.5372 66.38 53.0826 66.963 53.0826H70.3361C70.7525 53.0826 71.2106 52.9172 71.5021 52.6279C71.7936 52.3799 71.9601 52.0079 71.9601 51.6772V42.5426C71.9601 42.1706 71.7936 41.8399 71.5021 41.5919C71.2106 41.3026 70.7941 41.1372 70.3361 41.1372H66.963C66.38 41.1372 65.9219 40.6826 65.9219 40.1039C65.9219 39.5252 66.38 39.0706 66.963 39.0706H70.3361C71.2939 39.0706 72.21 39.4426 72.9179 40.0626C73.6259 40.7239 74.0423 41.6332 74.0423 42.5426V51.6772C74.0423 52.5866 73.6259 53.4959 72.9179 54.1572C72.21 54.8186 71.2939 55.1492 70.3361 55.1492Z" fill="#FFC73F"/>
<path d="M62.2559 67.5491C61.6729 67.5491 61.2148 67.0945 61.2148 66.5158V27.7451C61.2148 27.1665 61.6729 26.7118 62.2559 26.7118C62.8389 26.7118 63.297 27.1665 63.297 27.7451V66.5158C63.297 67.0945 62.8389 67.5491 62.2559 67.5491Z" fill="#FFC73F"/>
<path d="M13.2423 93.5892C12.6592 93.5892 12.2012 93.1345 12.2012 92.5559V1.70521C12.2012 1.12654 12.6592 0.671875 13.2423 0.671875C13.8253 0.671875 14.2833 1.12654 14.2833 1.70521V92.5559C14.2833 93.1345 13.8253 93.5892 13.2423 93.5892Z" fill="#FFC73F"/>
<path d="M1.04042 9.59942C0.790558 9.59942 0.499056 9.51676 0.29084 9.31009C-0.125592 8.89676 -0.125592 8.23542 0.29084 7.86342L7.24526 0.960757C7.66169 0.547423 8.32798 0.547423 8.70277 0.960757C9.1192 1.37409 9.1192 2.03542 8.70277 2.40742L1.79 9.31009C1.58178 9.51676 1.29028 9.59942 1.04042 9.59942Z" fill="#FFC73F"/>
<path d="M1.04042 16.4612C0.790558 16.4612 0.499056 16.3786 0.29084 16.1719C-0.125592 15.7586 -0.125592 15.0972 0.29084 14.7252L12.4923 2.61457C12.9087 2.20123 13.575 2.20123 13.9498 2.61457C14.3662 3.0279 14.3662 3.68923 13.9498 4.06123L1.79 16.1719C1.58178 16.3786 1.29028 16.4612 1.04042 16.4612Z" fill="#FFC73F"/>
<path d="M1.04042 23.3639C0.790558 23.3639 0.499056 23.2812 0.29084 23.0746C-0.125592 22.6612 -0.125592 21.9999 0.29084 21.6279L12.4923 9.47589C12.9087 9.06256 13.575 9.06256 13.9498 9.47589C14.3662 9.88923 14.3662 10.5506 13.9498 10.9226L1.79 23.0332C1.58178 23.2399 1.29028 23.3639 1.04042 23.3639Z" fill="#FFC73F"/>
<path d="M1.04042 30.2252C0.790558 30.2252 0.499056 30.1426 0.29084 29.9359C-0.125592 29.5226 -0.125592 28.8612 0.29084 28.4892L12.4923 16.3372C12.9087 15.9239 13.575 15.9239 13.9498 16.3372C14.3662 16.7506 14.3662 17.4119 13.9498 17.7839L1.79 29.9359C1.58178 30.1012 1.29028 30.2252 1.04042 30.2252Z" fill="#FFC73F"/>
<path d="M1.04042 37.0865C0.790558 37.0865 0.499056 37.0039 0.29084 36.7972C-0.125592 36.3839 -0.125592 35.7225 0.29084 35.3505L12.4923 23.1985C12.9087 22.7852 13.575 22.7852 13.9498 23.1985C14.3662 23.6119 14.3662 24.2732 13.9498 24.6452L1.79 36.7972C1.58178 37.0039 1.29028 37.0865 1.04042 37.0865Z" fill="#FFC73F"/>
<path d="M1.04042 43.9479C0.790558 43.9479 0.499056 43.8653 0.29084 43.6586C-0.125592 43.2453 -0.125592 42.5839 0.29084 42.2119L12.4923 30.1013C12.9087 29.6879 13.575 29.6879 13.9498 30.1013C14.3662 30.5146 14.3662 31.1759 13.9498 31.5479L1.79 43.6586C1.58178 43.8653 1.29028 43.9479 1.04042 43.9479Z" fill="#FFC73F"/>
<path d="M1.04042 50.8093C0.790558 50.8093 0.499056 50.7266 0.29084 50.5199C-0.125592 50.1066 -0.125592 49.4453 0.29084 49.0733L12.4923 36.9626C12.9087 36.5493 13.575 36.5493 13.9498 36.9626C14.3662 37.3759 14.3662 38.0373 13.9498 38.4093L1.79 50.5199C1.58178 50.7266 1.29028 50.8093 1.04042 50.8093Z" fill="#FFC73F"/>
<path d="M1.04042 57.7119C0.790558 57.7119 0.499056 57.6293 0.29084 57.4226C-0.125592 57.0093 -0.125592 56.3479 0.29084 55.9759L12.4923 43.8239C12.9087 43.4106 13.575 43.4106 13.9498 43.8239C14.3662 44.2372 14.3662 44.8986 13.9498 45.2706L1.79 57.3813C1.58178 57.5879 1.29028 57.7119 1.04042 57.7119Z" fill="#FFC73F"/>
<path d="M1.04042 64.5731C0.790558 64.5731 0.499056 64.4905 0.29084 64.2838C-0.125592 63.8705 -0.125592 63.2091 0.29084 62.8371L12.4923 50.6851C12.9087 50.2718 13.575 50.2718 13.9498 50.6851C14.3662 51.0985 14.3662 51.7598 13.9498 52.1318L1.79 64.2838C1.58178 64.4491 1.29028 64.5731 1.04042 64.5731Z" fill="#FFC73F"/>
<path d="M1.04042 71.4346C0.790558 71.4346 0.499056 71.3519 0.29084 71.1452C-0.125592 70.7319 -0.125592 70.0706 0.29084 69.6986L12.4923 57.5466C12.9087 57.1332 13.575 57.1332 13.9498 57.5466C14.3662 57.9599 14.3662 58.6212 13.9498 58.9932L1.79 71.1452C1.58178 71.3519 1.29028 71.4346 1.04042 71.4346Z" fill="#FFC73F"/>
<path d="M1.04042 78.2958C0.790558 78.2958 0.499056 78.2132 0.29084 78.0065C-0.125592 77.5932 -0.125592 76.9318 0.29084 76.5598L12.4923 64.4492C12.9087 64.0358 13.575 64.0358 13.9498 64.4492C14.3662 64.8625 14.3662 65.5238 13.9498 65.8958L1.79 78.0065C1.58178 78.2132 1.29028 78.2958 1.04042 78.2958Z" fill="#FFC73F"/>
<path d="M1.04042 85.1573C0.790558 85.1573 0.499056 85.0746 0.29084 84.8679C-0.125592 84.4546 -0.125592 83.7933 0.29084 83.4213L12.4923 71.3106C12.9087 70.8973 13.575 70.8973 13.9498 71.3106C14.3662 71.7239 14.3662 72.3853 13.9498 72.7573L1.79 84.8679C1.58178 85.0746 1.29028 85.1573 1.04042 85.1573Z" fill="#FFC73F"/>
<path d="M1.04042 92.0598C0.790558 92.0598 0.499056 91.9771 0.29084 91.7705C-0.125592 91.3572 -0.125592 90.6958 0.29084 90.3238L12.4923 78.1718C12.9087 77.7585 13.575 77.7585 13.9498 78.1718C14.3662 78.5851 14.3662 79.2465 13.9498 79.6185L1.79 91.7292C1.58178 91.9358 1.29028 92.0598 1.04042 92.0598Z" fill="#FFC73F"/>
<path d="M6.32948 93.6718C6.07962 93.6718 5.78812 93.5891 5.5799 93.3825C5.16347 92.9691 5.16347 92.3078 5.5799 91.9358L12.4927 85.0331C12.9091 84.6198 13.5754 84.6198 13.9502 85.0331C14.3666 85.4465 14.3666 86.1078 13.9502 86.4798L7.07906 93.3825C6.87084 93.5891 6.57934 93.6718 6.32948 93.6718Z" fill="#FFC73F"/>
</g>
<defs>
<clipPath id="clip0">
<rect width="74" height="93" fill="white" transform="translate(0 0.671875)"/>
</clipPath>
</defs>
</svg>
