<svg width="157" height="50" viewBox="0 0 157 50" fill="none" xmlns="http://www.w3.org/2000/svg">
<path d="M51.6184 18.8261L47.3224 25.2821L43.0024 18.8261H39.0664V35.6261H42.4984V23.5781L47.1544 30.6581H47.4664L52.1464 23.5781V35.6261H55.5784V18.8261H51.6184Z" fill="black"/>
<path d="M67.05 26.8661H58.962V30.1541H67.05V26.8661Z" fill="black"/>
<path d="M80.3048 26.8181C81.5528 26.1701 82.3448 24.8981 82.3448 23.4341C82.3448 20.5781 79.8728 18.5381 76.2008 18.5381C72.6728 18.5381 70.0568 20.3141 69.6968 23.8661H73.1528C73.4888 22.3061 74.4488 21.8021 76.0808 21.8021C78.0968 21.8021 78.8648 22.6901 78.8648 23.8901C78.8648 25.1381 77.8808 25.5701 76.2008 25.5701H74.2088V28.5701H76.6328C78.7448 28.5701 79.3928 29.2901 79.3928 30.4421C79.3928 31.8101 78.5288 32.6501 76.3688 32.6501C74.4488 32.6501 73.2968 32.0501 73.0088 30.3941H69.5288C69.8168 34.1141 72.7208 35.9141 76.4408 35.9141C80.3768 35.9141 82.8728 33.9941 82.8728 30.7781C82.8728 28.8821 81.8888 27.4661 80.3048 26.8181Z" fill="black"/>
<path d="M96.8755 35.6261H100.523L94.2355 18.8261H89.8915L83.6035 35.6261H87.2275L88.6675 31.6661H95.4595L96.8755 35.6261ZM89.8435 28.4021L92.0515 22.3061L94.2595 28.4021H89.8435Z" fill="black"/>
<path d="M115.205 18.8261L110.909 25.2821L106.589 18.8261H102.653V35.6261H106.085V23.5781L110.741 30.6581H111.053L115.733 23.5781V35.6261H119.165V18.8261H115.205Z" fill="black"/>
<path d="M130.565 18.5381C125.621 18.5381 121.829 22.2821 121.829 27.2261C121.829 32.1701 125.621 35.9141 130.565 35.9141C135.509 35.9141 139.325 32.1701 139.325 27.2261C139.325 22.2821 135.509 18.5381 130.565 18.5381ZM130.565 21.8021C133.589 21.8021 135.845 24.0821 135.845 27.2261C135.845 30.3701 133.589 32.6501 130.565 32.6501C127.541 32.6501 125.285 30.3701 125.285 27.2261C125.285 24.0821 127.541 21.8021 130.565 21.8021Z" fill="black"/>
<path d="M156.036 35.6261L149.052 26.9621L155.652 18.8261H151.404L145.428 26.2661V18.8261H141.996V35.6261H145.428V27.7781L151.74 35.6261H156.036Z" fill="black"/>
<g clip-path="url(#clip0)">
<path d="M0.351562 20.1914V39.0645L18.1839 49.5708V30.6595L0.351562 20.1914Z" fill="#FBCB40"/>
<path d="M18.1839 30.6595V49.5708L17.0975 48.9213L16.086 48.3483L0.351562 39.0645V20.1914L13.9881 28.2144L14.3627 28.4436L15.0745 28.8257L15.6739 29.1695L16.086 29.4369L17.0975 30.0482L18.1839 30.6595Z" fill="#FBCB40"/>
<path d="M18.1836 30.6596L23.5408 27.5269V46.4382L18.1836 49.571V30.6596Z" fill="#FBB010"/>
<path d="M23.5411 27.5268L5.70876 17.0205L0.351562 20.1915L18.1839 30.6596L23.5411 27.5268Z" fill="#FBDC78"/>
<path d="M18.5578 26.1133L20.6557 27.374L17.846 29.0168L15.748 27.7561L18.5578 26.1133Z" fill="#484748"/>
<path d="M8.14459 6.66698C8.14459 6.59057 8.14459 6.55236 8.14459 6.47595C8.14459 6.43775 8.14459 6.39954 8.14459 6.36134C8.14459 6.32313 8.1446 6.24672 8.18206 6.20852C8.18206 6.17032 8.18206 6.13211 8.18206 6.09391C8.18206 6.0557 8.18206 5.97929 8.21952 5.94109C8.21952 5.90288 8.21952 5.86468 8.25698 5.82647C8.25698 5.78827 8.25698 5.75006 8.29445 5.71186C8.29445 5.67365 8.33191 5.59725 8.33191 5.55904C8.33191 5.52084 8.36937 5.48263 8.36937 5.44443C8.36937 5.40622 8.40684 5.32981 8.40684 5.29161C8.40684 5.2534 8.4443 5.2152 8.4443 5.2152C8.48176 5.13879 8.51922 5.02418 8.55669 4.94777C8.55669 4.94777 8.55669 4.94777 8.55669 4.90956C8.59415 4.79495 8.66908 4.68033 8.744 4.56572C8.744 4.56572 8.744 4.56572 8.744 4.52751C8.78146 4.45111 8.85639 4.3747 8.93132 4.29829L8.96878 4.26008C9.04371 4.18367 9.08117 4.10726 9.15609 4.06906C9.23102 3.99265 9.30595 3.95444 9.38087 3.87804L9.41833 3.83983C9.49326 3.80163 9.56819 3.72522 9.64311 3.68701L6.83339 5.32981C6.75847 5.36802 6.68354 5.44443 6.60862 5.48263L6.57115 5.52084C6.49623 5.59725 6.4213 5.63545 6.34638 5.71186C6.27145 5.78827 6.23399 5.82647 6.15906 5.90288L6.1216 5.94109C6.04667 6.0175 6.00921 6.09391 5.93428 6.17032C5.93428 6.17032 5.93428 6.17032 5.93428 6.20852C5.85936 6.32313 5.82189 6.43775 5.74697 6.55236C5.70951 6.62877 5.67204 6.74339 5.63458 6.8198C5.63458 6.8198 5.63458 6.8198 5.63458 6.858C5.63458 6.8962 5.63458 6.8962 5.59712 6.93441C5.55965 6.97261 5.55965 7.04902 5.55965 7.08723V7.12543C5.55965 7.16364 5.55965 7.16364 5.55965 7.20184C5.55965 7.24005 5.52219 7.31646 5.52219 7.35466C5.52219 7.39287 5.52219 7.39287 5.52219 7.43107C5.52219 7.46927 5.52219 7.46927 5.52219 7.50748C5.52219 7.54568 5.52219 7.58389 5.48473 7.62209C5.48473 7.6603 5.48473 7.6603 5.48473 7.6985C5.48473 7.73671 5.48473 7.73671 5.48473 7.77491C5.48473 7.81312 5.48473 7.85132 5.48473 7.88953C5.48473 7.92773 5.48473 7.92773 5.48473 7.96594C5.48473 8.00414 5.48473 8.04234 5.48473 8.08055C5.48473 8.11875 5.48473 8.15696 5.48473 8.19516V8.23337C5.48473 8.27157 5.48473 8.34798 5.48473 8.38619C5.48473 8.42439 5.48473 8.42439 5.48473 8.4626C5.48473 8.4626 5.48473 8.4626 5.48473 8.5008C5.48473 8.57721 5.48473 8.65362 5.48473 8.76823L5.44727 21.6814L8.25698 20.0386L8.29445 7.12543C8.29445 7.01082 8.29445 6.93441 8.29445 6.8198C8.1446 6.74339 8.14459 6.70518 8.14459 6.66698Z" fill="#BAB6AA"/>
<path d="M20.6572 14.0788C20.6572 14.0406 20.6572 14.0406 20.6572 14.0024C20.6572 13.9642 20.6572 13.926 20.6572 13.8495C20.6572 13.8113 20.6572 13.7349 20.6572 13.6967C20.6572 13.6585 20.6572 13.6203 20.6572 13.5821C20.6572 13.5439 20.6572 13.5057 20.6572 13.4293C20.6572 13.3911 20.6572 13.3529 20.6572 13.3529C20.6572 13.2765 20.6572 13.2001 20.6197 13.1237C20.6197 13.0855 20.6197 13.0472 20.6197 13.009V12.9708C20.6197 12.8562 20.5823 12.7034 20.5823 12.5888C20.5823 12.5506 20.5823 12.5506 20.5823 12.5124C20.5823 12.3978 20.5448 12.3214 20.5448 12.2067C20.5448 12.1685 20.5448 12.1685 20.5448 12.1303C20.5448 12.0921 20.5074 12.0157 20.5074 11.9775C20.5074 11.9011 20.4699 11.8629 20.4699 11.7865C20.4699 11.7483 20.4699 11.7101 20.4324 11.6719C20.4324 11.6337 20.395 11.5573 20.395 11.5191C20.395 11.4809 20.395 11.4427 20.3575 11.4044C20.3575 11.3662 20.32 11.2898 20.32 11.2516C20.32 11.2134 20.2826 11.137 20.2826 11.0988C20.2826 11.0606 20.2826 11.0606 20.2451 11.0224C20.2077 10.946 20.2077 10.8696 20.1702 10.7932C20.1702 10.755 20.1327 10.7168 20.1327 10.6404V10.6021C20.0953 10.4875 20.0578 10.3347 20.0203 10.2201V10.1819C19.9829 10.0673 19.9454 9.95267 19.908 9.87626C19.908 9.87626 19.908 9.83806 19.8705 9.83806C19.8705 9.79985 19.833 9.76165 19.833 9.72344C19.7956 9.64703 19.7956 9.60883 19.7581 9.53242C19.7581 9.49421 19.7206 9.45601 19.7206 9.4178C19.7206 9.3796 19.6832 9.34139 19.6457 9.26499C19.6457 9.22678 19.6082 9.18858 19.6082 9.15037C19.5708 9.07396 19.5333 8.99755 19.5333 8.92114C19.5333 8.88294 19.4959 8.84473 19.4959 8.80653V8.76832C19.4584 8.65371 19.3835 8.5391 19.346 8.42448C19.346 8.38628 19.3085 8.34807 19.3085 8.30987C19.2711 8.23346 19.2336 8.11885 19.1962 8.04244C19.1962 8.04244 19.1962 8.00423 19.1587 8.00423C19.1212 7.92782 19.0838 7.85141 19.0463 7.775C19.0088 7.69859 18.9714 7.66039 18.9714 7.58398V7.54577C18.859 7.35475 18.7466 7.16373 18.6717 6.9727C18.6717 6.9727 18.6717 6.9345 18.6342 6.9345C18.5967 6.8963 18.5967 6.85809 18.5593 6.78168C18.5218 6.70527 18.4469 6.62886 18.4094 6.55245C18.372 6.47604 18.3345 6.39963 18.297 6.36143C18.2596 6.28502 18.1847 6.20861 18.1472 6.1322C18.1472 6.094 18.1097 6.094 18.1097 6.05579C18.1097 6.01759 18.0723 6.01759 18.0723 5.97938C17.9224 5.78836 17.81 5.55913 17.6602 5.36811L17.6227 5.3299C17.5478 5.21529 17.4354 5.10068 17.3605 4.98606C17.3605 4.98606 17.3605 4.98606 17.3605 4.94786C17.2855 4.87145 17.2106 4.75683 17.1357 4.68042C17.0982 4.64222 17.0982 4.64222 17.0608 4.60401C16.9858 4.4894 16.8735 4.37479 16.7611 4.26017C16.7236 4.22197 16.7236 4.18376 16.6861 4.18376C16.6112 4.10735 16.5738 4.03094 16.4988 3.95453L16.4614 3.91633C16.4239 3.87813 16.3864 3.83992 16.349 3.80172C16.3115 3.76351 16.2366 3.6871 16.1991 3.6489L16.1617 3.61069C16.1242 3.57249 16.0867 3.53428 16.0118 3.45787C15.9743 3.41967 15.9369 3.38146 15.8994 3.34326C15.862 3.30506 15.862 3.30505 15.8245 3.26685C15.787 3.22865 15.7121 3.19044 15.6746 3.11403C15.6372 3.07583 15.5997 3.03762 15.5623 2.99942C15.5248 2.96121 15.5248 2.96121 15.4873 2.92301C15.4499 2.8848 15.3749 2.8466 15.3375 2.77019C15.3 2.73198 15.2626 2.73198 15.2251 2.69378C15.1876 2.65558 15.1502 2.65558 15.1127 2.61737C15.0752 2.57917 15.0003 2.54096 14.9628 2.50276C14.9254 2.46455 14.9254 2.46455 14.8879 2.42635C14.6631 2.42635 14.6257 2.38814 14.5882 2.34994C14.5508 2.31173 14.5133 2.27353 14.4384 2.23532C14.4009 2.23532 14.4009 2.19712 14.3634 2.19712C14.326 2.15891 14.2511 2.12071 14.2136 2.08251C14.1761 2.0443 14.1387 2.0443 14.1012 2.0061C14.1012 2.0061 14.0637 2.0061 14.0637 1.96789C13.9513 1.89148 13.8764 1.81507 13.764 1.77687C13.6516 1.70046 13.5767 1.66225 13.4643 1.58584C13.4269 1.58584 13.4269 1.54764 13.3894 1.54764C13.3145 1.50943 13.2396 1.47123 13.1646 1.43303C13.1272 1.43303 13.0897 1.39482 13.0897 1.39482C13.0522 1.35662 13.0148 1.35662 12.9773 1.31841C12.9398 1.31841 12.9024 1.28021 12.9024 1.28021C12.8649 1.242 12.79 1.242 12.7525 1.2038C12.7151 1.2038 12.6776 1.16559 12.6401 1.16559C12.6401 1.16559 12.6027 1.16559 12.6027 1.12739C12.4903 1.08918 12.4154 1.05098 12.303 1.01277C12.1531 0.936365 12.0407 0.89816 11.9658 0.859955H11.9283C11.8909 0.859955 11.8534 0.821751 11.816 0.821751C11.7785 0.821751 11.7036 0.783546 11.6661 0.783546C11.6286 0.783546 11.6286 0.783546 11.5912 0.745341C11.5537 0.745341 11.5163 0.707137 11.4788 0.707137C11.4413 0.707137 11.4039 0.668932 11.3664 0.668932C11.3289 0.668932 11.2915 0.668932 11.254 0.630727C11.2166 0.630727 11.1791 0.592523 11.1416 0.592523C11.1042 0.592523 11.1042 0.592523 11.0667 0.592523C11.0292 0.592523 10.9918 0.592523 10.9543 0.554318C10.9169 0.554318 10.8419 0.554318 10.8045 0.516113H10.767C10.7295 0.516113 10.6921 0.516113 10.6546 0.516113C10.6171 0.516113 10.5422 0.516113 10.5048 0.516113H10.4673C10.4298 0.516113 10.3924 0.516113 10.3549 0.516113C10.28 0.516113 10.2425 0.516113 10.1676 0.516113H10.1301C10.0927 0.516113 10.0927 0.516113 10.0552 0.516113C9.98028 0.516113 9.90535 0.516113 9.83043 0.516113C9.79296 0.516113 9.79296 0.516113 9.7555 0.516113H9.71804C9.60565 0.516113 9.49326 0.554318 9.38087 0.554318H9.34341C9.30595 0.554318 9.30595 0.554318 9.26848 0.554318C9.19356 0.554318 9.11863 0.592523 9.08117 0.592523C9.04371 0.592523 9.00624 0.630727 8.96878 0.630727C8.93132 0.630727 8.89385 0.668932 8.85639 0.668932H8.81893C8.744 0.707137 8.70654 0.707137 8.63161 0.745341C8.59415 0.745341 8.55669 0.783546 8.51922 0.783546C8.4443 0.821751 8.33191 0.859955 8.25698 0.936365L5.44727 2.57917C5.52219 2.54096 5.63458 2.46455 5.70951 2.42635C5.74697 2.42635 5.78443 2.38814 5.82189 2.38814C5.82189 2.46455 5.85936 2.42635 5.93428 2.42635C5.97175 2.38814 6.04667 2.38814 6.08414 2.38814C6.1216 2.38814 6.15906 2.34994 6.19652 2.34994C6.27145 2.31173 6.34638 2.31173 6.38384 2.31173C6.4213 2.31173 6.4213 2.31173 6.45876 2.31173H6.49623C6.60862 2.27353 6.721 2.27353 6.83339 2.27353C6.87086 2.27353 6.90832 2.27353 6.94578 2.27353C7.02071 2.27353 7.09563 2.27353 7.17056 2.27353C7.20802 2.27353 7.24549 2.27353 7.28295 2.27353C7.35787 2.27353 7.39534 2.27353 7.47026 2.27353C7.50773 2.27353 7.58265 2.27353 7.62011 2.27353C7.65758 2.27353 7.7325 2.27353 7.76997 2.27353C7.84489 2.27353 7.88235 2.27353 7.95728 2.31173C7.99474 2.31173 8.06967 2.31173 8.10713 2.34994C8.18206 2.34994 8.21952 2.38814 8.29445 2.38814C8.33191 2.38814 8.36937 2.38814 8.40684 2.42635C8.48176 2.42635 8.55669 2.46455 8.59415 2.46455C8.63161 2.46455 8.66908 2.50276 8.70654 2.50276C8.78146 2.54096 8.85639 2.54096 8.93132 2.57917C8.96878 2.57917 9.00624 2.61737 9.04371 2.61737C9.15609 2.65558 9.26848 2.69378 9.38087 2.73198C9.49326 2.77019 9.60565 2.80839 9.71804 2.8848C9.7555 2.8848 9.79296 2.92301 9.83043 2.92301C9.90535 2.96121 9.98028 2.99942 10.0552 3.03762C10.0927 3.07583 10.1301 3.07583 10.1676 3.11403C10.3549 3.07583 10.4673 3.11403 10.5797 3.19044C10.6921 3.26685 10.8045 3.34326 10.9543 3.41967C11.0667 3.49608 11.1791 3.57249 11.2915 3.6489C11.3289 3.6871 11.3664 3.6871 11.4039 3.72531C11.4788 3.76351 11.5537 3.83992 11.6286 3.87813C11.6661 3.91633 11.7036 3.95453 11.7785 3.99274C11.8534 4.03094 11.9283 4.10735 11.9658 4.14556C12.0033 4.18376 12.0782 4.22197 12.1157 4.26017C12.1906 4.29838 12.2281 4.37479 12.303 4.41299C12.3404 4.4512 12.4154 4.4894 12.4528 4.56581C12.5278 4.60401 12.5652 4.68042 12.6401 4.75683C12.6776 4.79504 12.7525 4.83324 12.79 4.90965C12.8649 4.98606 12.9024 5.02427 12.9773 5.10068C13.0148 5.13888 13.0522 5.17708 13.1272 5.25349C13.2021 5.3299 13.2396 5.40631 13.3145 5.44452C13.3519 5.48272 13.3894 5.52093 13.4269 5.55913C13.5018 5.63554 13.5767 5.71195 13.6516 5.82656C13.6891 5.86477 13.6891 5.90297 13.7266 5.90297C13.839 6.01759 13.9139 6.1322 14.0263 6.24682C14.0637 6.28502 14.0637 6.28502 14.1012 6.32323C14.1761 6.43784 14.2511 6.51425 14.326 6.62886C14.4009 6.74348 14.5133 6.85809 14.5882 6.9727C14.5882 7.01091 14.6257 7.01091 14.6257 7.04911C14.7755 7.24014 14.8879 7.43116 15.0378 7.66039C15.0752 7.69859 15.1127 7.775 15.1502 7.81321C15.1876 7.88962 15.2626 7.96603 15.3 8.04244C15.3375 8.11885 15.3749 8.19525 15.4124 8.23346C15.4499 8.30987 15.5248 8.38628 15.5623 8.46269C15.5997 8.5391 15.6372 8.5773 15.6746 8.65371C15.787 8.84473 15.8994 9.03576 15.9743 9.22678C16.0118 9.30319 16.0493 9.3796 16.0867 9.45601C16.1242 9.53242 16.1617 9.60883 16.1991 9.68524C16.2366 9.79985 16.3115 9.91446 16.349 9.99087C16.349 10.0291 16.3864 10.0673 16.3864 10.1055C16.4614 10.2583 16.4988 10.3729 16.5738 10.5257C16.5738 10.5639 16.6112 10.6021 16.6112 10.6404C16.6487 10.755 16.6861 10.8314 16.7236 10.946C16.7611 10.9842 16.7611 11.0224 16.7611 11.0988C16.7985 11.2134 16.836 11.2898 16.8735 11.4044C16.8735 11.4427 16.9109 11.4809 16.9109 11.5191C16.9484 11.6337 16.9858 11.7865 17.0608 11.9011V11.9393C17.0982 12.0921 17.1357 12.245 17.2106 12.3596C17.2106 12.3978 17.2481 12.436 17.2481 12.5124C17.2855 12.627 17.323 12.7034 17.323 12.818C17.323 12.8562 17.3605 12.9326 17.3605 12.9708C17.3979 13.0472 17.3979 13.1619 17.4354 13.2383C17.4354 13.2765 17.4729 13.3529 17.4729 13.3911C17.5103 13.4675 17.5103 13.5821 17.5478 13.6585C17.5478 13.6967 17.5853 13.7731 17.5853 13.8113C17.6227 13.926 17.6227 14.0406 17.6602 14.1552C17.6602 14.1934 17.6602 14.1934 17.6602 14.2316C17.6976 14.3844 17.6976 14.499 17.7351 14.6518C17.7351 14.6901 17.7351 14.7283 17.7351 14.7665C17.7351 14.8811 17.7726 14.9575 17.7726 15.0721C17.7726 15.1103 17.7726 15.1867 17.7726 15.2249C17.7726 15.3013 17.7726 15.4159 17.7726 15.4923C17.7726 15.5306 17.7726 15.5688 17.7726 15.6452C17.7726 15.798 17.7726 15.9126 17.7726 16.0272L17.8475 20.3825L20.6572 18.7397L20.6947 14.4226C20.6572 14.308 20.6572 14.1934 20.6572 14.0788Z" fill="#EDEDE2"/>
<path d="M10.5794 3.19044C14.6254 5.55913 17.8847 11.3662 17.8847 16.0654L17.8472 20.3825L15.7493 19.16L15.7868 14.8429C15.7868 11.4809 13.4641 7.35475 10.5794 5.67374C7.69477 3.99274 5.37207 5.3299 5.33461 8.73012L5.29714 21.6433L3.19922 20.3825L3.23668 7.46936C3.23668 2.73198 6.53342 0.821749 10.5794 3.19044Z" fill="#CECCBF"/>
<path d="M18.5586 26.1133V28.5966L20.6565 27.374L18.5586 26.1133Z" fill="#0F0F10"/>
<path d="M9.6421 37.3071L6.79492 38.9881L10.5038 41.1658L9.6421 37.3071Z" fill="#484748"/>
<path d="M10.8784 33.8306L8.18105 35.4352L6.79492 38.9882L9.67957 37.269L9.49225 36.3139L9.52972 36.2375C9.6421 36.2757 9.82942 36.3139 10.0167 36.2757C10.3914 36.1993 10.8784 35.6262 10.9158 35.0913C10.9533 34.48 10.8784 33.8306 10.8784 33.8306Z" fill="#0F0F10"/>
<path d="M10.3543 32.5317C10.0545 31.9968 9.45514 31.3855 9.45514 31.3855C9.45514 31.3473 9.41768 31.3091 9.41768 31.2709C9.1929 31.1181 8.96812 30.9653 8.74335 30.8507C8.44364 30.6979 8.06901 30.6215 7.73185 30.5068L7.24483 30.8125C7.20737 30.8507 7.1699 30.8507 7.13244 30.8889L7.09498 30.9271C7.05752 30.9653 7.05752 30.9653 7.02005 31.0035L6.98259 31.0417C6.94513 31.0799 6.94513 31.1181 6.90766 31.1563C6.90766 31.1563 6.90766 31.1563 6.90766 31.1945C6.8702 31.2327 6.8702 31.3091 6.83274 31.3473C6.83274 31.3855 6.79528 31.4237 6.79528 31.462V31.5002V31.5384V31.5766C6.79528 31.6148 6.75781 31.653 6.75781 31.6912V31.7294C6.75781 31.7294 6.75781 31.7294 6.75781 31.7676V31.8058C6.75781 31.844 6.75781 31.8822 6.75781 31.9204C6.75781 31.9204 6.75781 31.9586 6.75781 31.9968C6.75781 31.9968 6.75781 31.9968 6.75781 32.035C6.75781 32.035 6.75781 32.035 6.75781 32.0732C6.75781 32.1114 6.75781 32.1496 6.75781 32.1878C6.75781 32.226 6.75781 32.2643 6.75781 32.3025C6.75781 32.3407 6.75781 32.3789 6.75781 32.4171C6.75781 32.4553 6.75781 32.4935 6.75781 32.5317C6.75781 32.5699 6.75781 32.6081 6.75781 32.6463C6.75781 32.6845 6.75781 32.7227 6.75781 32.7609C6.75781 32.7991 6.75781 32.8373 6.75781 32.8755C6.75781 32.9137 6.75781 32.9519 6.75781 32.9519C6.75781 32.9901 6.75781 33.0283 6.79528 33.0665C6.79528 33.1048 6.79528 33.1048 6.79528 33.143C6.79528 33.143 6.79528 33.143 6.79528 33.1812C6.79528 33.2194 6.83274 33.2576 6.83274 33.2958C6.83274 33.334 6.83274 33.334 6.83274 33.3722C6.83274 33.3722 6.83274 33.3722 6.83274 33.4104C6.83274 33.4104 6.83274 33.4104 6.83274 33.4486C6.83274 33.4868 6.8702 33.525 6.8702 33.5632V33.6014C6.8702 33.6014 6.8702 33.6014 6.8702 33.6396V33.6778C6.8702 33.716 6.90766 33.7542 6.90766 33.7924V33.8306C6.90766 33.8306 6.90766 33.8306 6.90766 33.8689V33.9071C6.90766 33.9453 6.94513 33.9835 6.94513 34.0217C6.94513 34.0217 6.94513 34.0599 6.98259 34.0599C6.98259 34.0599 6.98259 34.0599 6.98259 34.0981V34.1363C6.98259 34.1745 7.02005 34.2127 7.02005 34.2509C7.02005 34.2509 7.02005 34.2891 7.05752 34.2891C7.05752 34.2891 7.05752 34.3273 7.09498 34.3273C7.09498 34.3273 7.09498 34.3655 7.13244 34.3655C7.13244 34.4037 7.1699 34.4037 7.1699 34.4419C7.1699 34.4801 7.20737 34.4801 7.20737 34.5183C7.20737 34.5183 7.20737 34.5183 7.20737 34.5565C7.20737 34.5565 7.20737 34.5947 7.24483 34.5947C7.28229 34.6711 7.31976 34.7094 7.35722 34.7858C7.35722 34.7858 7.35722 34.824 7.39468 34.824C7.39468 34.824 7.39468 34.8622 7.43214 34.8622C7.46961 34.9004 7.46961 34.9386 7.50707 34.9386C7.50707 34.9768 7.54453 34.9768 7.54453 35.015C7.54453 35.0532 7.582 35.0532 7.582 35.0914C7.582 35.0914 7.582 35.1296 7.61946 35.1296C7.61946 35.1296 7.61946 35.1296 7.65692 35.1678C7.69439 35.206 7.69439 35.2442 7.73185 35.2824C7.73185 35.2824 7.73185 35.2824 7.76931 35.3206C7.76931 35.3206 7.76931 35.3206 7.80677 35.3588L7.84424 35.397C7.8817 35.4352 7.8817 35.4734 7.91916 35.4734C7.95663 35.5117 7.95663 35.5117 7.99409 35.5499C8.03155 35.5881 8.06901 35.6263 8.06901 35.6263L8.14394 35.7027L10.8413 34.0981C10.8787 33.8306 10.654 33.0283 10.3543 32.5317Z" fill="#484748"/>
<path d="M6.60813 39.0264L7.99426 35.4352C7.09515 34.5183 6.5332 33.1811 6.5332 32.0732C6.5332 30.6214 7.5447 30.0101 8.81844 30.736C10.0547 31.4619 11.0662 33.2575 11.0662 34.7093C11.0662 35.8172 10.4668 36.4667 9.5677 36.3139L10.6916 41.3951L6.60813 39.0264ZM10.5043 41.1659L9.41785 36.1611H9.49277C10.3544 36.3139 10.9538 35.7408 10.9538 34.6711C10.9538 33.2957 10.0173 31.6147 8.81844 30.927C7.65709 30.2393 6.68305 30.8124 6.68305 32.1878C6.68305 33.2575 7.245 34.5565 8.14411 35.397L8.21903 35.4734L6.83291 39.0264L10.5043 41.1659Z" fill="#484748"/>
<path d="M19.3073 15.0339L19.2324 17.9375L20.0191 17.479L20.0941 14.5754L19.3073 15.0339Z" fill="white"/>
<path d="M16.9852 6.17041L16.2734 6.59066C17.4348 8.19526 18.5587 10.3347 19.1206 13.0855L19.8324 12.6652C19.2705 9.95267 18.1466 7.77501 16.9852 6.17041Z" fill="white"/>
<path d="M7.69493 19.6949L6.9082 20.1916V11.7866L7.69493 11.3281V19.6949Z" fill="#CECCBF"/>
</g>
<defs>
<clipPath id="clip0">
<rect width="23.1895" height="49.0548" fill="white" transform="translate(0.351562 0.516113)"/>
</clipPath>
</defs>
</svg>
