<svg width="68" height="73" viewBox="0 0 68 73" fill="none" xmlns="http://www.w3.org/2000/svg">
<path d="M52.7271 49.6867H58.4891V52.5677H52.7271V49.6867ZM52.7271 55.4487H58.4891V61.2107L56.7605 58.9059C56.6206 58.7356 56.4447 58.5984 56.2455 58.5042C56.0462 58.4101 55.8285 58.3612 55.6081 58.3612C55.3877 58.3612 55.1701 58.4101 54.9708 58.5042C54.7716 58.5984 54.5957 58.7356 54.4557 58.9059L52.7271 61.2107V55.4487ZM54.1676 64.0917L55.6081 62.1708L57.0486 64.0917H54.1676ZM52.7271 72.7347V69.8537C52.7271 69.0896 53.0307 68.3568 53.571 67.8165C54.1113 67.2762 54.8441 66.9727 55.6081 66.9727C56.3722 66.9727 57.105 67.2762 57.6453 67.8165C58.1856 68.3568 58.4891 69.0896 58.4891 69.8537V72.7347H52.7271ZM67.1321 72.7347H61.3701V69.8537C61.3643 68.8391 61.0875 67.8445 60.5685 66.9727H67.1321V72.7347ZM56.9466 41.0437H56.7386C56.7245 40.9655 56.6954 40.8928 56.6835 40.8128C56.5249 39.8526 56.5588 38.8705 56.7832 37.9234C57.0075 36.9764 57.4179 36.0835 57.9904 35.2964L58.3505 34.7908L59.428 36.4071C59.7275 36.8562 59.8994 37.3782 59.9255 37.9174C59.9516 38.4566 59.8308 38.9927 59.5761 39.4686C59.3214 39.9446 58.9423 40.3425 58.4792 40.6199C58.0161 40.8972 57.4864 41.0437 56.9466 41.0437ZM51.7867 36.4071L55.6081 30.6753L56.6415 32.2255L55.6512 33.6168C54.1062 35.7461 53.4455 38.3908 53.8075 40.9965C53.3134 40.9205 52.8464 40.7212 52.4498 40.4169C52.0531 40.1127 51.7396 39.7133 51.5381 39.2558C51.3367 38.7982 51.2539 38.2973 51.2974 37.7993C51.3409 37.3013 51.5092 36.8222 51.7869 36.4065L51.7867 36.4071ZM54.1676 43.9139C54.202 43.9139 54.2343 43.9241 54.2688 43.9241H55.6036H55.6081C55.6081 43.9241 55.611 43.9241 55.6125 43.9241H56.9473C56.982 43.9241 57.0141 43.9144 57.0486 43.9139V46.8057H54.1676V43.9139ZM49.8461 56.8892V64.0917H46.9651V56.8892H49.8461ZM32.5601 64.0917V61.2107H35.4411V64.0917H32.5601ZM23.9171 56.8892H29.6791V64.0917H23.9171V56.8892ZM23.9171 48.2462H29.6791V54.0082H23.9171V48.2462ZM30.2611 34.4298L30.6189 34.9666C30.9134 35.4078 31.0847 35.9198 31.1148 36.4495C31.145 36.9791 31.033 37.5072 30.7904 37.9791C30.5478 38.4509 30.1835 38.8493 29.7352 39.133C29.2869 39.4167 28.7709 39.5753 28.2406 39.5925C28.2541 38.0519 28.7427 36.5531 29.6399 35.3006L30.2611 34.4298ZM31.1196 41.6402C31.4108 41.4657 31.6861 41.266 31.9425 41.0437H38.3221L36.1592 43.9247C35.6942 44.5492 35.4424 45.3068 35.4411 46.0854C35.4428 46.6417 35.5738 47.1899 35.8238 47.6868C36.0738 48.1837 36.436 48.6156 36.8816 48.9484V52.5677H32.5601V46.8057C32.5601 46.4236 32.4084 46.0572 32.1382 45.7871C31.8681 45.5169 31.5017 45.3652 31.1196 45.3652V41.6402ZM44.0841 58.3297H38.3221V55.4487H44.0841V58.3297ZM32.5601 55.4487H35.4411V58.3297H32.5601V55.4487ZM38.3221 46.0854C38.322 45.9296 38.3726 45.7779 38.4662 45.6533L39.918 43.7176C39.7471 44.7386 39.7301 45.7794 39.8676 46.8055H39.0424C38.8514 46.8055 38.6682 46.7296 38.5332 46.5946C38.3981 46.4596 38.3222 46.2764 38.3221 46.0854ZM38.3221 61.2107H44.0841V64.0917H38.3221V61.2107ZM39.7626 52.5677V49.6867H41.6594H41.6639C41.6639 49.6867 41.6668 49.6867 41.6682 49.6867H42.6436V52.5677H39.7626ZM43.3639 46.8057H42.8127C42.6455 45.9217 42.6401 45.0146 42.7969 44.1287L43.9394 45.652C44.02 45.759 44.0691 45.8863 44.0814 46.0196C44.0936 46.153 44.0684 46.2871 44.0086 46.4069C43.9489 46.5267 43.8569 46.6275 43.743 46.698C43.6291 46.7684 43.4978 46.8057 43.3639 46.8057ZM34.1292 2.39145L35.4411 0.424805L36.7524 2.39145C36.83 2.50764 36.8745 2.64272 36.8813 2.78227C36.8881 2.92182 36.8568 3.06059 36.7908 3.18374C36.7248 3.3069 36.6266 3.40981 36.5067 3.48148C36.3868 3.55315 36.2496 3.59089 36.1099 3.59066H34.7708C34.6312 3.5907 34.4943 3.55286 34.3746 3.48117C34.2548 3.40949 34.1568 3.30664 34.091 3.18361C34.0251 3.06058 33.9939 2.92198 34.0006 2.7826C34.0073 2.64321 34.0518 2.50827 34.1292 2.39217V2.39145ZM35.249 6.47166H35.6317L38.1012 23.7577H32.7795L35.249 6.47166ZM30.9815 26.6387H39.8995L41.0519 38.1627H33.768C34.0059 37.3577 34.0618 36.51 33.9316 35.6808C33.8014 34.8516 33.4883 34.0618 33.0152 33.3685L30.6598 29.8348L30.9815 26.6387ZM22.9772 34.9667L26.7981 29.2348L28.5516 31.8648L27.2976 33.6226C26.0495 35.3641 25.3717 37.4497 25.3576 39.5924C24.8271 39.5757 24.3107 39.4173 23.862 39.1338C23.4132 38.8503 23.0485 38.4519 22.8056 37.9799C22.5627 37.508 22.4505 36.9796 22.4805 36.4497C22.5106 35.9197 22.6819 35.4075 22.9767 34.966L22.9772 34.9667ZM25.3576 42.4734C25.3922 42.4734 25.4243 42.4836 25.459 42.4836H28.1374C28.172 42.4836 28.2041 42.4739 28.2386 42.4734V45.3652H25.3576V42.4734ZM21.0361 56.8892V64.0917H18.1551V56.8892H21.0361ZM9.51214 54.0082H15.2741V56.8892H9.51214V54.0082ZM13.7324 45.3652H13.5245C13.5104 45.287 13.4811 45.2143 13.4694 45.1343C13.3108 44.1741 13.3447 43.1919 13.569 42.2449C13.7934 41.2979 14.2037 40.4049 14.7763 39.6179L15.1364 39.1123L16.2139 40.7286C16.5133 41.1778 16.6852 41.6998 16.7113 42.2391C16.7373 42.7783 16.6164 43.3145 16.3616 43.7905C16.1068 44.2664 15.7276 44.6642 15.2644 44.9416C14.8012 45.2189 14.2714 45.3653 13.7315 45.3652H13.7324ZM8.57239 40.7286L12.3931 34.9968L13.4265 36.547L12.4362 37.9383C10.8912 40.0676 10.2305 42.7123 10.5925 45.318C10.0984 45.2421 9.63139 45.0427 9.23471 44.7385C8.83802 44.4342 8.52446 44.0349 8.32302 43.5773C8.12157 43.1198 8.03875 42.6189 8.08222 42.1208C8.12568 41.6228 8.29402 41.1438 8.57167 40.728L8.57239 40.7286ZM10.9526 48.2354C10.9872 48.2354 11.0193 48.2456 11.054 48.2456H12.3886H12.3931C12.3931 48.2456 12.396 48.2456 12.3975 48.2456H13.7324C13.767 48.2456 13.7991 48.2359 13.8336 48.2354V51.1272H10.9526V48.2354ZM9.51214 59.7702H15.2741V64.0917H9.51214V59.7702ZM0.869141 66.9727H50.6469C50.1282 67.8446 49.8517 68.8392 49.8461 69.8537V72.7347H44.0841V69.8537H41.2031V72.7347H35.4411V69.8537H32.5601V72.7347H26.7981V69.8537H23.9171V72.7347H18.1551V69.8537H15.2741V72.7347H9.51214V69.8537H6.63114V72.7347H0.869141V66.9727Z" fill="#DCA92F"/>
</svg>
