<?xml version="1.0" encoding="utf-8"?>
<!-- Generator: Adobe Illustrator 23.0.1, SVG Export Plug-In . SVG Version: 6.00 Build 0)  -->
<svg version="1.1" id="Слой_1" xmlns="http://www.w3.org/2000/svg" xmlns:xlink="http://www.w3.org/1999/xlink" x="0px" y="0px"
	 viewBox="0 0 29 30" style="enable-background:new 0 0 29 30;" xml:space="preserve">
<style type="text/css">
	.st0{clip-path:url(#SVGID_2_);}
	.st1{fill:#ECB43A;}
</style>
<g>
	<defs>
		<rect id="SVGID_1_" x="0.2" y="0.9" width="28.7" height="28.7"/>
	</defs>
	<clipPath id="SVGID_2_">
		<use xlink:href="#SVGID_1_"  style="overflow:visible;"/>
	</clipPath>
	<g class="st0">
		<path class="st1" d="M28.9,23.1c-0.1-0.2-0.6-0.6-1.5-1.1c-0.3-0.1-0.6-0.4-1.1-0.6c-0.5-0.3-0.9-0.5-1.3-0.7
			c-0.4-0.2-0.8-0.4-1.1-0.6c-0.1,0-0.2-0.2-0.5-0.4c-0.3-0.2-0.5-0.3-0.7-0.4c-0.2-0.1-0.4-0.1-0.6-0.1c-0.3,0-0.6,0.2-1,0.6
			c-0.4,0.4-0.8,0.8-1.1,1.3c-0.3,0.5-0.7,0.9-1.1,1.3c-0.4,0.4-0.7,0.6-0.9,0.6c-0.1,0-0.3,0-0.5-0.1c-0.2-0.1-0.3-0.1-0.4-0.2
			c-0.1,0-0.3-0.1-0.5-0.3c-0.2-0.1-0.4-0.2-0.4-0.2c-1.9-1-3.5-2.2-4.8-3.5c-1.3-1.3-2.5-2.9-3.5-4.8c0,0-0.1-0.2-0.2-0.4
			c-0.1-0.2-0.2-0.4-0.3-0.5c0-0.1-0.1-0.2-0.2-0.4C7,12.2,7,12.1,7,11.9c0-0.2,0.2-0.6,0.6-0.9c0.4-0.4,0.8-0.7,1.3-1.1
			c0.5-0.3,0.9-0.7,1.3-1.1c0.4-0.4,0.6-0.7,0.6-1c0-0.2,0-0.4-0.1-0.6c-0.1-0.2-0.2-0.4-0.4-0.7C9.9,6.2,9.8,6,9.7,6
			C9.5,5.6,9.3,5.3,9.1,4.9C8.9,4.5,8.6,4,8.4,3.6C8.1,3.1,7.9,2.7,7.8,2.5C7.3,1.5,6.9,1,6.7,0.9c-0.1,0-0.2-0.1-0.4-0.1
			c-0.4,0-0.8,0.1-1.4,0.2C4.2,1.2,3.8,1.3,3.4,1.5C2.7,1.8,2,2.6,1.3,4c-0.7,1.3-1,2.5-1,3.8c0,0.4,0,0.7,0.1,1.1
			c0,0.3,0.1,0.7,0.3,1.2c0.1,0.4,0.2,0.8,0.3,1c0.1,0.2,0.2,0.6,0.4,1.1c0.2,0.5,0.3,0.9,0.4,1c0.5,1.3,1,2.5,1.7,3.6
			c1.1,1.7,2.5,3.5,4.4,5.4c1.9,1.9,3.7,3.3,5.4,4.4c1,0.7,2.2,1.2,3.6,1.7c0.1,0,0.5,0.2,1,0.4c0.5,0.2,0.9,0.3,1.1,0.4
			c0.2,0.1,0.5,0.2,1,0.3c0.4,0.1,0.8,0.2,1.2,0.3c0.3,0,0.7,0.1,1.1,0.1c1.3,0,2.5-0.3,3.8-1c1.4-0.8,2.2-1.5,2.5-2.2
			c0.2-0.3,0.3-0.8,0.4-1.4c0.1-0.6,0.2-1.1,0.2-1.4C28.9,23.3,28.9,23.2,28.9,23.1z"/>
	</g>
</g>
</svg>
