<svg width="29" height="30" viewBox="0 0 29 30" fill="none" xmlns="http://www.w3.org/2000/svg">
<g clip-path="url(#clip0)">
<path d="M28.8694 23.1075C28.7882 22.8628 28.2716 22.5024 27.3198 22.027C27.062 21.8771 26.6946 21.6735 26.2192 21.4152C25.7434 21.1568 25.3115 20.9188 24.9243 20.7012C24.5363 20.4838 24.1729 20.2731 23.8333 20.0694C23.779 20.0287 23.6091 19.9099 23.3236 19.7123C23.0378 19.5153 22.7969 19.3691 22.5994 19.2738C22.4023 19.179 22.2085 19.1313 22.0181 19.1313C21.7463 19.1313 21.4068 19.3251 20.9991 19.7123C20.5914 20.1 20.2174 20.5211 19.8778 20.9769C19.538 21.4325 19.1777 21.8536 18.7974 22.2411C18.4166 22.6287 18.1037 22.8223 17.8593 22.8223C17.7366 22.8223 17.5836 22.7881 17.4003 22.7206C17.217 22.6527 17.0776 22.5945 16.9819 22.5476C16.887 22.4996 16.7243 22.4048 16.493 22.2616C16.2613 22.1188 16.1325 22.0406 16.1053 22.027C14.243 20.9936 12.6458 19.8108 11.3134 18.479C9.98145 17.1464 8.79856 15.5493 7.76544 13.6868C7.75187 13.6596 7.67352 13.5304 7.53089 13.2994C7.38805 13.0682 7.29284 12.9053 7.24528 12.8099C7.19771 12.7148 7.13993 12.5754 7.07208 12.3919C7.00423 12.2084 6.97016 12.0556 6.97016 11.9331C6.97016 11.6886 7.16393 11.3757 7.55139 10.995C7.93878 10.6146 8.36032 10.2542 8.81556 9.91458C9.27116 9.57496 9.69227 9.201 10.0798 8.79332C10.4672 8.38543 10.6609 8.04575 10.6609 7.77391C10.6609 7.58372 10.6133 7.38981 10.5183 7.19275C10.4231 6.99527 10.277 6.75429 10.0798 6.46868C9.88254 6.1832 9.76362 6.01343 9.72276 5.95879C9.51907 5.61918 9.30859 5.25557 9.09082 4.86811C8.87306 4.48071 8.63536 4.0489 8.37696 3.57315C8.11877 3.09763 7.915 2.73044 7.7653 2.47218C7.28977 1.52077 6.92959 1.00396 6.68483 0.92268C6.58962 0.881898 6.44678 0.861328 6.25665 0.861328C5.8894 0.861328 5.4103 0.929179 4.819 1.06531C4.22748 1.20123 3.76202 1.34378 3.42213 1.49356C2.7424 1.77889 2.02197 2.6081 1.26061 3.9809C0.567314 5.2585 0.220703 6.52303 0.220703 7.77356C0.220703 8.14031 0.244487 8.49713 0.292054 8.8441C0.339621 9.19071 0.424613 9.58161 0.547102 10.0167C0.669376 10.4517 0.76801 10.7748 0.842575 10.9852C0.917211 11.1957 1.05656 11.5729 1.26054 12.1169C1.46423 12.6607 1.58672 12.9936 1.6275 13.1159C2.10325 14.4482 2.66741 15.6376 3.31985 16.6845C4.39332 18.4244 5.85826 20.2226 7.7138 22.0783C9.56942 23.9339 11.3673 25.3987 13.1074 26.4726C14.1541 27.125 15.3439 27.6891 16.676 28.1652C16.7984 28.2058 17.1313 28.328 17.6749 28.5324C18.2187 28.7362 18.596 28.8756 18.8066 28.9503C19.0172 29.0252 19.3404 29.1239 19.775 29.2464C20.2105 29.3689 20.6011 29.4539 20.9477 29.5018C21.2945 29.5487 21.6514 29.5729 22.0182 29.5729C23.2687 29.5729 24.5333 29.2261 25.8111 28.5329C27.1837 27.7718 28.0127 27.0512 28.2982 26.371C28.4483 26.0315 28.5905 25.5659 28.7265 24.9743C28.8628 24.3831 28.9305 23.9041 28.9305 23.5369C28.9309 23.346 28.9104 23.2035 28.8694 23.1075Z" fill="#DDDDDD"/>
</g>
<defs>
<clipPath id="clip0">
<rect width="28.7115" height="28.7115" fill="white" transform="translate(0.21875 0.861328)"/>
</clipPath>
</defs>
</svg>
