<svg width="88" height="88" viewBox="0 0 88 88" fill="none" xmlns="http://www.w3.org/2000/svg">
<g clip-path="url(#clip0)">
<path d="M58.4917 42.0338L40.4264 28.9017C39.7634 28.4211 38.8833 28.3487 38.1567 28.7222C37.4242 29.0928 36.9668 29.8455 36.9668 30.659V56.9145C36.9668 57.7367 37.4242 58.4865 38.1567 58.8571C38.4664 59.0134 38.8052 59.0916 39.1468 59.0916C39.5926 59.0916 40.0443 58.9497 40.4264 58.6689L58.4917 45.5484C59.062 45.1286 59.395 44.4801 59.395 43.7911C59.3979 43.0905 59.0562 42.4449 58.4917 42.0338Z" fill="#FFC73F"/>
<path d="M44.144 0.240601C20.1149 0.240601 0.642578 19.7129 0.642578 43.742C0.642578 67.7625 20.1149 87.229 44.144 87.229C68.1674 87.229 87.6426 67.7596 87.6426 43.742C87.6455 19.7129 68.1674 0.240601 44.144 0.240601ZM44.144 79.9711C24.1332 79.9711 7.90922 63.7557 7.90922 43.742C7.90922 23.7371 24.1332 7.50146 44.144 7.50146C64.1519 7.50146 80.373 23.7342 80.373 43.742C80.3759 63.7557 64.1519 79.9711 44.144 79.9711Z" fill="#FFC73F"/>
</g>
<defs>
<clipPath id="clip0">
<rect width="87" height="87" fill="white" transform="translate(0.642578 0.234863)"/>
</clipPath>
</defs>
</svg>
