<svg width="344" height="403" fill="none" xmlns="http://www.w3.org/2000/svg"><path d="M172.375.92L.893 100.02l11.767 6.861L184.087 7.726 172.375.92z" fill="#EEF5F9"/><path d="M12.66 282.841l171.427-99.157V7.726L12.66 106.882v175.959z" fill="#ECB43A"/><path d="M.893 276.035l11.767 6.806V106.882L.893 100.021v176.014zM172.32 375.191v27.39L.893 303.48v-27.445l171.427 99.156z" fill="#BBC2C6"/><path d="M343.748 303.48L172.32 402.581v-27.39l171.428-99.156v27.445z" fill="#D4DBDF"/><path d="M343.748 276.035L172.32 375.191v5.035l171.428-99.156v-5.035z" fill="#B8A891"/><path d="M12.66 282.841v5.035l159.66 92.35v-5.035l-159.66-92.35z" fill="#9F8F78"/><path d="M343.747 276.035L172.32 375.191l-159.66-92.35 171.427-99.157 159.66 92.351z" fill="#D1C1AA"/><path d="M327.67 285.497l-11.822 6.695V116.178l11.822-6.695v176.014z" fill="#D4DBDF"/><path d="M315.849 116.178L156.244 23.883l11.767-6.806 159.66 92.295-11.822 6.806z" fill="#EEF5F9"/><path d="M156.244 23.883V199.84l39.501 22.853V64.94l67.068 38.788v157.754l53.036 30.71V116.178L156.244 23.883z" fill="#FFC33F"/><path d="M189.557 52.711l-.662.388 80.769 46.7v165.667l.663-.387V99.412l-80.77-46.7z" fill="#271911"/><path d="M189.557 52.711l-.662.388 80.769 46.7.663-.387-80.77-46.7z" fill="#675951"/><path d="M188.895 53.099v165.666l6.85 3.929V64.94l67.068 38.788v157.754l6.851 3.984V99.799l-80.769-46.7z" fill="#40322A"/><path d="M195.744 64.94v157.754l11.878-6.585V71.856l-11.878-6.916zM132.598 263.751l-3.922-2.269V103.728l3.922 2.269v157.754z" fill="#40322A"/><path d="M199.666 67.209l-67.068 38.788-3.922-2.269 67.068-38.788 3.922 2.269z" fill="#675951"/><path d="M199.666 224.962l-67.068 38.789V105.997l67.068-38.788v157.753z" fill="#4D3F37"/><path d="M140.996 110.921l47.898-27.667v.775l-47.898 27.666v-.774z" fill="#40322A"/><path d="M188.894 83.034v71.102l-46.738 27.058v1.494l47.898-27.722V83.864l-1.16-.83z" fill="#40322A"/><path d="M188.894 154.136l-47.898 27.722 1.16.83 47.898-27.722-1.16-.83z" fill="#675951"/><path d="M140.996 200.781l47.898-27.666v.719l-47.898 27.722v-.775z" fill="#40322A"/><path d="M188.894 172.894v43.658l-46.738 27.058v1.494l47.898-27.722v-43.658l-1.16-.83z" fill="#40322A"/><path d="M188.894 216.552l-47.898 27.722 1.16.83 47.898-27.722-1.16-.83z" fill="#675951"/><path d="M137.737 190.988c.607-1.051 1.436-1.992 2.375-2.545.939-.554 1.768-.609 2.376-.222.607.332.994 1.107.994 2.214 0 1.106-.387 2.268-.994 3.32-.608 1.051-1.437 1.992-2.376 2.545-.939.553-1.768.609-2.375.221-.608-.332-.995-1.106-.995-2.213s.387-2.269.995-3.32z" fill="url(#paint0_linear)"/><path d="M138.068 191.154c.553-.996 1.381-1.881 2.21-2.379.884-.498 1.657-.553 2.21-.222.552.332.939 1.052.939 2.048s-.332 2.102-.939 3.098c-.553.996-1.381 1.882-2.21 2.38-.884.498-1.657.553-2.21.221-.552-.332-.939-1.051-.939-2.047 0-.941.387-2.103.939-3.099z" fill="url(#paint1_linear)"/><path d="M138.896 191.652c.332-.609.829-1.162 1.381-1.494.553-.332 1.05-.332 1.381-.166l.221.111c.332.221.553.664.553 1.272 0 .609-.221 1.328-.553 1.937-.331.609-.828 1.162-1.381 1.494-.552.332-1.049.332-1.381.166l-.221-.111c-.331-.221-.552-.664-.552-1.272 0-.609.221-1.328.552-1.937z" fill="url(#paint2_linear)"/><path d="M139.117 191.763c.331-.609.829-1.162 1.381-1.494.553-.332 1.05-.332 1.381-.111.332.221.553.664.553 1.273 0 .608-.221 1.328-.553 1.936-.331.609-.828 1.162-1.381 1.494-.552.332-1.05.332-1.381.166-.387-.221-.553-.664-.553-1.272 0-.664.221-1.384.553-1.992z" fill="url(#paint3_linear)"/><path d="M139.117 193.423c0 .442.166.774.442.94a.792.792 0 0 0 .387.111c.166 0 .387-.055.663-.221.387-.222.773-.609.994-1.052.276-.442.442-.94.442-1.383 0-.442-.166-.774-.442-.94a.79.79 0 0 0-.387-.111c-.165 0-.386.055-.662.221a2.618 2.618 0 0 0-.995 1.051 2.43 2.43 0 0 0-.442 1.384zm.055 0c0-.443.166-.941.387-1.384.276-.442.608-.829.995-1.051.221-.11.442-.166.607-.166.111 0 .221.056.332.111.276.166.386.443.386.885 0 .443-.165.941-.386 1.383-.277.443-.608.83-.995 1.052-.221.11-.442.166-.607.166-.111 0-.221-.056-.332-.111-.276-.166-.387-.498-.387-.885z" fill="url(#paint4_linear)"/><path opacity=".1" d="M142.376 193.976c-.386.664-.884 1.273-1.436 1.715l-1.215-2.268 2.651.553z" fill="#000"/><path d="M139.891 192.205c.166-.276.387-.498.608-.664.221-.166.442-.166.608-.055l3.812 2.158c.166.111.276.277.276.553 0 .277-.11.609-.276.886a2.371 2.371 0 0 1-.608.664c-.221.166-.442.166-.608.055l-3.812-2.158c-.165-.111-.276-.277-.276-.553.055-.277.166-.609.276-.886z" fill="url(#paint5_linear)"/><path d="M152.818 187.613l.939.553-9.281 5.755-.884-.554 9.226-5.754z" fill="url(#paint6_linear)"/><path d="M143.704 194.419c.166-.277.387-.498.608-.664l9.447-5.589v2.379l-9.447 5.257c-.221.166-.442.166-.608.055-.166-.11-.276-.276-.276-.553 0-.332.11-.609.276-.885z" fill="url(#paint7_linear)"/><path d="M131.879 201.667l-2.541-1.438v-10.071l2.541 1.439v10.07z" fill="url(#paint8_linear)"/><path d="M151.659 262.81c-.995.609-9.447 5.091-9.889 5.367a.742.742 0 0 1-.221.554c.718-.388 1.381-.72 2.099-1.107.718-.387.718-.387 1.879-.996.718-.387 1.933-.996 2.651-1.383l1.216-.609c.442-.221.497-.277.994-.553.718-.388.939-.498.939-.498.221-.111.277-.166.387-.277 0 0 .111-.111.221-.277.055-.055.055-.11.111-.166 0-.055.055-.11.055-.166 0-.055.055-.166.055-.221v-.166-.111c0 .111-.11.388-.497.609z" fill="#9D0000"/><path d="M152.099 261.703c0-.055-.055-.11-.055-.166-.055-.11-.055-.11-.11-.166-.056-.055-.056-.11-.111-.166l-.11-.11a.601.601 0 0 0-.277-.222c-.055-.055-.11-.055-.165-.11-.056-.056-.166-.056-.221-.111-.056 0-.111-.055-.166-.055-.055 0-.111-.055-.166-.055h-.497c-.055 0-.166.055-.276.055-.111.055-.221.055-.332.166-.165.11-.221.11-.497.332-.221.166-.552.387-.829.498-.607.387-.994.664-1.657 1.051-.221.111-1.05.664-1.878 1.217-.829.498-1.602 1.052-2.431 1.55-.276.166-.663.442-.939.608-.332.222-.663.443-1.05.664.166-.11.332-.11.552.056.442.221.774.83.774 1.328.442-.222 8.839-4.759 9.889-5.368.387-.221.497-.442.497-.664.111 0 .111-.11.055-.332z" fill="#B61617"/><path d="M141.768 268.454c0 .332-.11.553-.276.664.111-.055.166-.111.276-.166a.644.644 0 0 0 .277-.664l-.277.166z" fill="#9D0000"/><path d="M140.994 266.517c-.276-.166-.552-.166-.718-.055-.11.055-.166.111-.276.166.166-.111.442-.111.718.055.553.332 1.05 1.107 1.05 1.771l.276-.166c0-.664-.497-1.494-1.05-1.771z" fill="#B61617"/><path d="M140.719 266.683c-.552-.332-1.049-.055-.994.609 0 .664.497 1.439 1.05 1.771.552.332 1.049.055.994-.609-.055-.664-.497-1.494-1.05-1.771z" fill="#9D0000"/><path d="M127.35 274.762l1.491-.775.829-.276 10.828-5.976h.166c.166.11.276.276.276.442 0 .111-.055.166-.055.166l-11.049 5.755-.663.498-1.437.775h-.165c-.166-.111-.277-.277-.277-.443-.055-.111 0-.166.056-.166z" fill="url(#paint9_linear)"/><path d="M127.295 275.039c.055.166.11.276.221.332h.055l.995-.886-1.271.554z" fill="url(#paint10_linear)"/><path d="M107.131 228.227s7.182-5.257 9.612-2.158c2.486 3.154-.663 19.975-2.375 27.556-1.768 7.58-11.657-6.142-11.657-6.142l4.42-19.256z" fill="#00507E"/><path d="M104.921 241.396l-1.271 1.992-.939 4.095s1.657 2.324 3.757 4.537l2.928 1.052 2.099-16.047c-2.431 3.597-6.574 4.371-6.574 4.371z" fill="#004472"/><path d="M122.102 213.011s2.651.387 3.314.11c.663-.221 3.536-1.383 4.972-.774 1.382.608 3.426 1.328 3.37 2.268-.11.941-.718 2.933-.718 3.154-.055.222-.497.941-.939.941-.497.055-3.425.166-4.641-.277-1.215-.498-4.53-1.604-4.53-1.604l-.828-3.818z" fill="#ECB700"/><path d="M132.653 216.718c-.387-.941-.276-1.937-1.381-2.213-1.105-.277-1.713 1.826-1.713 2.49 0 .664-.276.664-1.491.221-1.216-.443-4.254-1.771-4.31-1.881l-1.215-.277.387 1.826s3.314 1.162 4.53 1.605c1.215.498 4.198.332 4.64.276.498-.055.94-.719.94-.94 0-.056.055-.166.055-.277a2.91 2.91 0 0 1-.442-.83z" fill="#D58A00"/><path d="M109.119 234.48s2.707-1.052 3.37-1.882c.663-.83 4.752-10.07 4.752-10.07s2.928 1.494 6.187 3.928c3.26 2.435 8.95 7.194 11.325 5.81 2.376-1.328 3.37-9.461 4.144-12.117.773-2.601.939-5.866.939-5.866l-3.536-.498-4.143 9.075s-3.481-2.269-5.359-4.925c-1.878-2.656-4.199-5.588-8.287-6.64l-4.254-2.988-8.839-5.865s-4.309-1.439-6.74-1.273c-2.43.111-5.8 3.542-6.74 7.858-.884 4.316-2.762 14.275-2.762 14.275l12.375 11.012 7.568.166z" fill="#273134"/><path d="M117.24 222.362c-1.437-.664-4.696 1.051-6.409 3.541-1.768 2.545-3.425 6.419-3.425 6.419s-.442.996-.939 2.102l2.652.056s2.707-1.052 3.37-1.882c.663-.83 4.751-10.07 4.751-10.07s.442.221 1.16.664c-.442-.332-.829-.664-1.16-.83z" fill="#3E494C"/><path d="M105.363 202.497s-4.309-1.438-6.74-1.272c-.11 0-.276 0-.387.055.608.664 1.382 1.273 2.376 1.328 2.541.221 3.812 0 3.812 0l1.049-.055-.11-.056z" fill="#555F62"/><path d="M106.523 196.909s.939 3.43-.166 5.09c-1.16 1.66-.774 1.882-.774 1.882s6.575 4.98 9.061 5.588c0 0 .11-4.039.939-4.648.829-.608 1.049-1.162 1.878-1.217.774-.055 2.541-.166 2.707-1.383.166-1.273.774-2.546.939-3.376.221-.774.277-1.494.277-1.494s1.215-.387 1.049-1.051c-.165-.664-1.933-2.877-1.933-2.877l-13.977 3.486z" fill="#F2A983"/><path d="M114.588 209.414s.111-4.039.94-4.648c.828-.609 1.049-1.162 1.878-1.217.387-.056 1.05-.056 1.602-.277-1.823-.719-2.652-2.711-2.652-2.711s-.386.166-1.215-.664c-.774-.83.055-3.929.055-3.929s-2.652.443-2.762.443c-.111 0 0 1.881 0 4.205.055 1.771-1.437 4.261-2.541 5.921 1.878 1.051 3.093 3.209 4.695 2.877z" fill="#D88F69"/><path d="M106.192 200.727s1.989 1.272 5.359 3.762c3.37 2.435 3.646 3.763 3.646 3.763l.111 2.545s-6.409-1.936-9.227-4.15c-2.817-2.158-3.038-3.818-3.038-3.818l3.149-2.102z" fill="#333D40"/><path d="M106.799 200.782c.497.443 1.436.941 2.983 1.162 2.928.387 4.364-2.822 4.475-4.261.055-.719-.829-1.604-1.713-2.324l-5.966 1.55c-.055 0 .552 2.158.221 3.873z" fill="#3E484B"/><path d="M117.407 195.913s8.342-1.439 9.336-3.542c.995-2.102-4.475-3.596-8.287-3.043-3.812.609-1.049 6.585-1.049 6.585z" fill="#D58A00"/><path d="M106.965 197.739s2.873 1.77 5.966.94c3.094-.83 7.514-3.707 9.116-7.359 0 0-.221-4.814-3.702-6.861-1.325-.775-3.48-.941-5.856-.609-4.64.719-7.624 5.367-7.292 8.743.221 2.711.994 4.426 1.768 5.146z" fill="#2E383B"/><path d="M106.137 196.577c1.105.553 4.088 1.881 6.629 1.106 0 0-1.105-2.434-5.082-3.375-1.05-.221-1.768-.277-2.321-.166.221.996.497 1.771.774 2.435z" fill="#3E494C"/><path d="M100.225 264.802s-.055 2.047.166 2.324c.221.277 1.657.941 2.872.775 1.161-.166 3.094-.996 5.249-2.546l.11-.774s1.16-.554 2.1-.886c.939-.332 3.48-1.826 3.977-2.711.497-.941.829-1.217.608-2.213 0 0-.497 1.715-1.989 2.766-1.492 1.052-4.364 2.048-5.524 2.601-1.161.498-2.21 1.439-3.757 1.66-1.547.221-3.37-.332-3.812-.996z" fill="#2E383B"/><path d="M111.331 255.949c-2.541-.056-3.039 1.051-4.254 1.383-1.271.387-4.641 1.881-5.525 2.601-.828.719-1.325 3.928-1.325 4.869.442.664 2.265 1.217 3.812.996 1.546-.221 2.596-1.162 3.756-1.66 1.16-.498 4.033-1.549 5.525-2.601 1.491-1.051 1.989-2.766 1.989-2.766v.11c0-.055.055-.11.055-.11 0-1.937-1.492-2.767-4.033-2.822z" fill="#2E383B"/><path d="M120.334 257.222c-2.873-3.099-6.906-7.249-13.811-11.676l.331-1.217s.552-2.988.166-4.703l5.414-7.028c-.221.166-.939.332-3.315.166-3.48-.276-11.16-5.09-8.563-11.177 0 0 8.453-11.177 17.844-10.236l-2.375-1.992s-7.735-1.218-17.845 10.679c.498-12.505 5.194-17.209 5.194-17.209l-2.818-.276c-3.48 2.545-4.972 16.765-4.972 16.765-.718.83-2.652 3.597-6.409 3.984 0 0-1.105 8.466-2.099 13.17-.055.166-.055.387-.055.664-1.823 4.426-5.69 16.212 4.475 18.094 2.762 3.596 7.734 4.039 11.491 4.979l5.138 3.32s-4.641 2.38-6.298 3.32c-1.658.996-7.845 3.376-7.845 3.376s3.646 7.912 3.646 9.904c0 0 5.69-3.818 8.011-4.482 2.32-.664 13.645-5.367 15.91-9.628 2.155-4.094 1.658-5.699-1.215-8.797z" fill="#0B6A98"/><path d="M97.184 287.931c-1.878-1.162-1.325-3.873-1.491-5.865-.166-1.992-1.05-6.142-2.1-8.466-1.05-2.324-2.762-1.937-2.762-1.937l-2.1 1.218c-.607.221-1.049 1.438 0 6.584l.774.222c0 1.438-.442 3.486-.276 4.648.166 1.272 1.989 2.213 4.64 3.762 2.708 1.605 5.194 2.601 5.194 2.601l.663-1.107c.055.056-.663-.498-2.542-1.66z" fill="#414E52"/><path d="M88.733 279.521l4.806 1.217s-.442-3.209-1.381-5.312c-.884-2.103-2.155-2.435-2.928-2.545-.774-.111-1.823.11-.497 6.64zM100.113 286.825c-.773-1.716-2.597-1.66-2.652-2.324 0 0 .221-5.423.11-7.581-.055-2.158-.938-5.699-1.933-6.308-.994-.553-3.757-.055-4.585 1.107.497 0 1.712.166 2.541 1.936 1.05 2.324 1.934 6.474 2.1 8.466.165 1.992-.332 4.704 1.491 5.866 1.878 1.162 2.597 1.715 2.597 1.715s.718-1.992.331-2.877z" fill="#2E383B"/><path d="M94.975 283.283c.166-1.217-.441-2.766-.441-2.766l-.94.221-4.032-.996c0 1.439-.442 3.486-.277 4.648.166 1.273 1.99 2.213 4.64 3.763 2.708 1.604 5.194 2.6 5.194 2.6-5.8-3.596-4.254-6.252-4.144-7.47z" fill="#2E383B"/><path d="M107.794 263.751c3.646-.332 9.005 2.102 9.005 2.102.166-1.604-2.652-3.486-9.005-5.92-6.353-2.435-5.856-.941-11.049-1.66a29.423 29.423 0 0 1-1.823-.332c2.541 1.217 5.58 1.66 8.066 2.268l5.138 3.32c-.056.056-.166.111-.332.222z" fill="#005D8B"/><path d="M105.859 272.438c-3.812 1.217-6.905 3.375-8.894 5.091.387 1.162.663 2.158.663 2.711 0 0 5.69-3.818 8.01-4.482 2.321-.664 13.646-5.367 15.911-9.628 1.713-3.265 1.823-4.925.497-6.916.442 7.801-9.17 11.011-16.187 13.224zM92.6 240.843l2.321.664-3.425-2.49s.552-3.154.884-4.427c-.553 1.052-2.1 3.376-2.1 3.376s-1.491-.941-3.093-1.937c-.056.166-.056.332-.11.498-.056.166-.056.387-.056.664-1.823 4.427-5.69 16.213 4.475 18.094 0 0-3.37-8.189 1.105-14.442zM92.6 234.037c-.055-.055-.11.166-.221.553.166-.276.22-.498.22-.553zM99.783 249.198l1.27-4.648s3.149 1.55 5.47 1.052l.331-1.218s.553-2.988.166-4.703l5.414-7.027c-.221.166-.939.332-3.315.166-.552-.056-1.16-.222-1.768-.443-1.049 1.826-2.762 4.814-3.535 6.474-1.216 2.49-.663 4.814-.663 4.814s-3.591-.83-5.249-1.605l1.879 1.882s-.277 3.154 0 5.256z" fill="#005D8B"/><path d="M135.03 215.943s.884-2.324.939-2.545c.056-.166-1.767-2.877-1.878-3.375-.11-.498-.331-3.265 0-3.874.332-.608.332-.94 2.541-1.272 2.155-.332 2.486-.554 3.149 1.051.663 1.605 1.05 2.601.94 3.652-.111 1.051-.94 4.98-.94 4.98l-.276 2.268-4.475-.885z" fill="#ECB700"/><path d="M134.367 205.762c.497.055.995.221 1.05.941.11 1.383 1.105 1.383 1.271 1.383.165 0 1.381-1.051.883-2.877l-.165-.332c-.221.055-.498.055-.774.11-1.547.166-1.989.443-2.265.775z" fill="#D58A00"/><path d="M257.397 247.206c-.553-1.438-1.768-3.596-1.934-5.478l-4.64-2.102s-3.315-.498-5.138-.498-2.818.719-3.26 1.992c-.497 1.272-.442 2.656 1.105 4.26 1.492 1.605 2.486 1.771 3.812 1.992 1.326.222 2.597.443 3.149 1.494v.941s1.105 2.49 2.873 2.877c1.768.388 3.867-.332 4.917-2.213-.055-.055-.332-1.826-.884-3.265z" fill="#2E383B"/><path d="M250.436 248.866v.941s1.105 2.49 2.873 2.877c1.767.388 3.867-.332 4.916-2.213 0 0-.11-.664-.331-1.549-.442.664-1.436 1.77-2.818 2.047-1.988.443-3.48-.387-4.143-1.494-.663-1.107-.552-1.992-2.652-2.379-1.823-.332-4.696-1.107-6.187-4.261.11.775.497 1.605 1.326 2.545 1.491 1.605 2.486 1.771 3.812 1.992 1.436.222 2.707.443 3.204 1.494z" fill="#414E52"/><path d="M239.499 181.194l1.105-3.873s4.474-2.213 6.242-3.929c0 0 .884 3.984 1.105 4.759.221.774 1.492 4.094 1.713 8.023.221 3.929.663 11.454.773 15.217.166 3.762.829 7.58 2.1 11.343 1.27 3.762 3.204 7.968 3.259 12.948.055 4.98 1.657 17.098 1.657 21.192 0 0 .221 1.273-1.602 1.826-1.823.498-5.966-1.162-7.403-3.652-1.381-2.49-.11-5.478 0-7.138.111-1.66-1.933-9.628-2.928-13.556-1.049-3.929-4.088-9.739-5.524-14.774-1.381-5.035-5.967-15.327-5.967-15.327l5.47-13.059z" fill="#005D8B"/><path d="M227.18 248.147l-6.464-3.763c-.11.941-.331 2.324-1.547 2.435-1.215.055-4.972-.055-6.74-.166-1.768-.055-4.198.055-4.751 3.099 0 0-.11.83.166 1.383.221.498 1.712 2.988 4.419 3.541 2.708.553 5.636.332 7.514 1.162l-.166 1.107s2.431 1.328 4.144 1.715c1.712.387 3.093-.166 3.867-.775l.442-1.826s.276-2.157.276-3.264c0-1.162-1.05-3.099-1.16-4.648z" fill="#2E383B"/><path d="M225.245 256.889c-2.431-.166-4.033-1.328-5.801-1.77-1.713-.443-5.248-.388-6.685-.775-1.215-.332-4.309-1.715-5.082-4.703 0 .055 0 .111-.056.166 0 0-.11.83.166 1.383.221.498 1.713 2.988 4.42 3.541 2.707.554 5.635.332 7.513 1.162l-.165 1.107s2.43 1.328 4.143 1.715c1.713.388 3.094-.166 3.867-.774l.442-1.716c-.497.332-1.381.775-2.762.664z" fill="#414E52"/><path d="M224.748 178.206s-.773 4.427-.994 6.031c-.166 1.605-2.983 6.806-3.867 12.672-.939 5.81-.276 9.738-.276 14.11 0 4.371.994 13.722 1.215 18.038.166 4.316-.552 15.493-2.431 17.873 0 0-1.27 2.6.221 3.707 1.547 1.107 7.458 4.593 9.668 3.597 0 0 1.105-11.344 1.658-13.834.552-2.49 2.154-8.189 1.712-11.896-.442-3.708-.663-8.688.221-11.288.829-2.656 1.934-10.181 2.818-13.391.884-3.209.939-4.814.939-4.814s3.867-2.766 5.469-5.92c1.547-3.154 1.05-12.672-.442-15.659 0 0-3.701 2.434-8.563 2.655-4.862.111-7.348-1.881-7.348-1.881z" fill="#0B6A98"/><path d="M225.741 137.481c-.11.719-.552 1.881.055 2.711.608.83 7.624 7.747 7.624 7.747l5.359-6.197s-8.95-4.98-10.828-5.755c-1.934-.775-2.21 1.494-2.21 1.494z" fill="#555F62"/><path d="M223.532 132.059c.055-.388.055-.83-.055-1.162-.166-.388-1.879-2.214-2.376-2.49-.497-.222-2.818-.886-3.37-.941-.552-.055-.994-.055-1.326.498-.331.553-.829 1.383-.939 1.937-.111.553.055 1.106-.221 1.936-.276.775-.718 1.494-.276 2.269.442.775 1.049 1.383 1.27 1.328.221-.055.829-.111.829-.111s2.762 2.601 4.972 2.601c2.21 0 1.602-4.371 1.602-4.371l-.11-1.494z" fill="#ECB700"/><path d="M223.588 133.497v-.277l-.498-.332-1.602-.996s-.055-.276-.442-.719c-.386-.442-.994-1.106-1.215-1.217-.221-.111-1.713-.83-1.934-.83-.165 0-.331-.055-.607.443-.332.498-.056.719-.995.885-.387.055-.718.055-.939.055 0 .388 0 .775-.166 1.217-.276.775-.718 1.494-.276 2.269.442.775 1.05 1.383 1.271 1.328.221-.055.828-.111.828-.111s2.763 2.601 4.972 2.601c2.21.111 1.603-4.316 1.603-4.316z" fill="#D58A00"/><path d="M221.819 134.936c-.166-.388-.552-.664-1.049-.941.441.443.828.941.883 1.162.056.387.332 2.711.332 2.711l1.16.388 2.541 2.047c.332-.277.663-.719.94-1.273-.829-.774-2.1-1.66-2.431-1.77-.442-.166-1.823-1.107-2.376-2.324z" fill="#BBC2C6"/><path d="M244.69 138.256h3.205s5.8-.332 6.85 3.652c.994 3.984.387 6.142-.718 10.181-1.105 4.039-4.254 10.237-4.53 10.735-.277.498-4.365 3.486-4.365 3.486s-10.552 5.533-14.253 5.699c-3.702.166-5.414-2.933-5.414-5.423 0-2.324.221-8.078.276-10.07v-.388c0-1.438-.055-6.474.276-6.695.332-.277 3.205-2.103 3.205-2.103l2.209-1.715 13.259-7.359z" fill="#273134"/><path d="M231.099 162.99c.663 3.209 1.271 6.252 1.437 8.687-.608.166-1.16.276-1.602.276-3.702.166-5.414-2.932-5.414-5.422 0-1.992.165-6.585.221-9.075l.497.222c0 .055 3.812.498 4.861 5.312z" fill="#3E494D"/><path d="M236.182 184.957s.497-3.708 0-5.976l-.828.111s.718 4.15.828 5.865zM228.724 184.348s.111-2.877.663-4.095l-1.381-.221c0-.055.276 2.877.718 4.316z" fill="#005D8B"/><path d="M225.466 166.531s.165 3.431 3.701 3.707c3.536.222 11.104-1.936 13.314-10.624 0 0-5.193-13.944-13.093-12.394l2.044-1.716s8.453-1.494 12.762 13.17l.387-.222-.111-.055c4.309-10.292 1.215-20.141 1.215-20.141h2.21c2.044 9.24.056 16.212-1.049 19.145.11.719.994 4.925 2.707 5.423 0 0-2.542 5.146-2.707 6.142-.166.996 2.265 6.584.939 7.414-1.326.83-5.746 4.15-11.933 4.925-6.188.774-11.16-.609-11.491-.996-.442-.387 1.105-11.288 1.105-13.778z" fill="#0B6A98"/><path d="M225.465 166.531s.166 3.431 3.702 3.707c.552.056 1.27 0 1.988-.11-.055.221-.055.498-.165.774-.663 2.49-4.199 6.474-4.751 10.015-1.161-.221-1.824-.498-1.989-.608-.332-.388 1.215-11.288 1.215-13.778zM247.233 159.061c.442 1.494 1.16 3.431 2.32 3.763 0 0-2.541 5.146-2.707 6.142-.166.996 2.265 6.584.939 7.414-.331.222-.884.609-1.602 1.052-.331-1.605-.773-3.376-1.436-4.704-1.326-2.766 1.491-10.9 2.486-13.667z" fill="#005D8B"/><path d="M231.819 146.39c-1.381-1.052-8.895 3.596-10.055 4.537 0 0-2.596-.553-7.9-.277 0 0-5.801-9.683-6.961-10.789-1.16-1.162-4.254-1.605-4.254-1.605s-.331 1.328 0 3.486c.387 2.158 5.856 14.774 7.072 15.714 1.27.941 10.938 2.38 17.402 2.38s7.845-2.822 8.618-5.589c.719-2.711-1.988-6.419-3.922-7.857z" fill="#2E383B"/><path d="M213.865 150.65s-5.801-9.683-6.961-10.79c-.442-.442-1.16-.774-1.879-.995 1.105 4.039 3.647 12.007 4.531 12.781 1.049.886 4.309-.996 4.309-.996z" fill="#3E494C"/><path d="M245.41 132.888s-1.658 3.431-.774 5.312c.884 1.882.442 2.103.442 2.103s-7.734 3.984-10.386 4.205c0 0 .663-4.205-.055-4.98-.718-.774-.884-1.383-1.713-1.604-.773-.222-2.596-.609-2.541-1.937.055-1.328-.276-2.767-.332-3.652-.055-.885 0-1.549 0-1.549s-1.16-.609-.883-1.273c.331-.664 2.541-2.656 2.541-2.656l13.701 6.031z" fill="#F2A983"/><path d="M234.692 144.453s.663-4.205-.055-4.98c-.718-.775-.884-1.383-1.713-1.605-.386-.11-1.049-.276-1.602-.553 1.989-.443 3.26-2.379 3.26-2.379s.386.221 1.381-.498c.994-.72.663-4.04.663-4.04l2.817.941c.111.055-.331 1.937-.828 4.316-.387 1.826.718 4.648 1.491 6.585-2.154.774-3.812 2.822-5.414 2.213z" fill="#D88F69"/><path d="M245.023 136.872s-2.265.996-6.243 2.933c-3.978 1.937-5.856 4.648-5.856 4.648l-.774 1.549s7.459-2.379 10.773-4.15c3.37-1.77 3.481-3.43 3.481-3.43l-1.381-1.55z" fill="#3E494C"/><path d="M244.361 136.872c-.608.388-1.658.775-3.315.72-3.094-.111-3.978-3.708-3.812-5.202.055-.719 1.16-1.493 2.21-2.102l5.911 2.6c.055 0-.994 2.158-.994 3.984z" fill="#3E484B"/><path d="M234.36 130.011s-8.342-2.932-8.949-5.256c-.608-2.324 5.303-2.933 9.115-1.716 3.867 1.218-.166 6.972-.166 6.972z" fill="#D58A00"/><path d="M244.801 133.719s-3.314 1.328-6.353-.056c-3.038-1.383-7.071-5.146-8.01-9.185 0 0 1.16-4.925 5.137-6.419 1.547-.608 3.812-.387 6.133.388 4.64 1.549 6.85 6.861 5.911 10.292-.773 2.711-1.878 4.371-2.818 4.98z" fill="#273134"/><path d="M245.851 132.612c-1.216.387-4.586 1.217-7.072 0 0 0 1.658-2.324 5.856-2.601 1.105-.055 1.879 0 2.431.221a8.654 8.654 0 0 1-1.215 2.38z" fill="#3E484B"/><path d="M222.758 136.817a.454.454 0 0 0-.276-.442l-5.469-3.154a1.403 1.403 0 0 0-1.326 0l-2.928 1.715c-.166.111-.277.277-.277.387v3.984c0 .166.111.277.277.388l5.469 3.153c.387.222.939.222 1.326 0l2.928-1.715c.166-.111.276-.221.276-.387v-3.929z" fill="#ECA600"/><path d="M222.482 136.43c.387.221.387.553 0 .774l-2.928 1.716a1.409 1.409 0 0 1-1.326 0l-5.469-3.154c-.387-.222-.387-.553 0-.775l2.928-1.715a1.409 1.409 0 0 1 1.326 0l5.469 3.154z" fill="#FFD119"/><path d="M213.808 121.49l-11.049-6.197c-.055-.056-.111 0-.221 0a.658.658 0 0 0-.276.498c0 .11.055.166.11.166l11.049 6.197c.056.055.111 0 .221 0a.661.661 0 0 0 .277-.498c0-.055-.056-.111-.111-.166z" fill="#889AA5"/><path d="M204.912 116.954c.111-.222.277-.388.498-.498.11-.056.165-.056.221-.111l1.105-.277c.165 0 .331 0 .441.056.221.11.387.442.387.83 0 .387-.166.885-.387 1.272-.221.388-.552.775-.939.996a.975.975 0 0 1-.939.111c-.11-.055-.221-.221-.276-.387l-.332-1.107v-.221c0-.166.111-.443.221-.664z" fill="url(#paint11_linear)"/><path d="M205.354 117.229c.221-.387.552-.774.939-.996a.978.978 0 0 1 .939-.11l1.547.885c.221.111.386.443.386.83 0 .387-.165.885-.386 1.273-.221.387-.553.774-.939.996a.98.98 0 0 1-.94.11l-1.546-.885c-.221-.111-.387-.443-.387-.83 0-.443.166-.885.387-1.273z" fill="url(#paint12_linear)"/><path d="M206.072 119.221c0-.442.166-.94.387-1.328.221-.442.608-.83.994-.996.221-.11.442-.166.608-.166l.663.388c.221.11.387.442.387.83 0 .387-.166.885-.387 1.272-.221.388-.552.775-.939.996a.976.976 0 0 1-.939.111l-.718-.387c0-.277-.056-.498-.056-.72z" fill="url(#paint13_linear)"/><path d="M206.9 118.115c.221-.388.553-.775.94-.996.386-.222.663-.222.939-.111.221.111.387.443.387.83 0 .387-.166.885-.387 1.273-.221.387-.553.774-.939.996a.98.98 0 0 1-.94.11c-.221-.11-.386-.442-.386-.83 0-.442.165-.885.386-1.272z" fill="#151F22"/><path d="M207.178 118.281c.221-.443.608-.775.939-.996.387-.222.719-.222.94-.111l1.657.775c.276.166.442.498.442.94 0 .498-.166.996-.442 1.439-.276.443-.663.885-1.05 1.107-.386.221-.773.276-1.049.11l-1.492-1.106c-.221-.166-.387-.443-.387-.886.056-.387.221-.885.442-1.272z" fill="url(#paint14_linear)"/><path d="M212.814 118.945l-1.437-.83c-.331-.166-.718-.166-1.215.11-.939.554-1.713 1.882-1.713 2.988 0 .554.221.941.497 1.107l1.437.83c.331.166.718.166 1.215-.111.939-.553 1.713-1.881 1.713-2.988 0-.498-.221-.885-.497-1.106z" fill="#2E383B"/><path d="M213.31 120.051c0 1.107-.773 2.435-1.713 2.988-.442.277-.884.277-1.215.111-.331-.166-.497-.553-.497-1.107 0-1.106.773-2.434 1.712-2.988.442-.276.884-.276 1.216-.11.276.221.497.608.497 1.106z" fill="#151F22"/><path d="M220.161 128.628l-1.768-1.051c-.497-.277-1.271-.277-1.768 0a.74.74 0 0 0-.387.442l.056 7.913c-.056.221.055.498.331.664l1.768 1.051c.497.277 1.271.277 1.768 0 .165-.111.276-.221.331-.387l-.055-7.968c.11-.221 0-.498-.276-.664z" fill="#414E52"/><path d="M218.781 137.758c.442.11.994.055 1.381-.166.166-.111.276-.222.332-.388l-.056-7.967c.111-.222 0-.498-.331-.664l-1.713-.996-.552.553s1.105 5.09.939 9.628z" fill="#2E383B"/><path d="M222.481 123.593c0-.222-.165-.498-.497-.664l-8.894-5.257c-.608-.387-1.658-.387-2.321 0l-1.547.885c-.221.166-.442.332-.442.498-.165.775-.442 2.214-.276 2.988.055.222.111.443.884.886 5.304 3.043 4.586 4.924 6.243 5.81 1.657.885.331.221.552.387 2.044 1.328 3.426 1.494 4.089 1.273.662-.222 1.823-.996 2.044-1.218.221-.221.221-3.154.221-3.818l-.056-1.77z" fill="#FFD119"/><path d="M208.504 122.043c.055.222.11.443.884.886 5.303 3.043 4.585 4.924 6.242 5.81 1.658.885.332.221.553.387 2.044 1.328 3.425 1.494 4.088 1.273.663-.222 1.823-.996 2.044-1.218.221-.221.221-3.154.221-3.818v-1.826-.11c0-.056 0-.056-.055-.111s-.111-.166-.166-.221c-.221.719-1.602 1.272-2.099 1.549-.553.332-1.271.387-2.155-.111-.884-.498-7.182-4.26-8.618-5.146a3.551 3.551 0 0 1-.608-.442v.11c-.221.775-.497 2.214-.331 2.988z" fill="#ECA600"/><path d="M217.84 126.138l-2.375-1.383v-.277l2.375 1.383v.277zM217.84 126.747l-2.375-1.384v-.332l2.375 1.384v.332zM217.84 127.3l-2.375-1.383v-.332l2.375 1.383v.332zM217.84 127.853l-2.375-1.383v-.277l2.375 1.384v.276zM217.84 128.407l-2.375-1.384v-.276l2.375 1.383v.277z" fill="#151F22"/><path d="M204.527 128.517s.829-1.604 1.105-1.438c.276.166 1.989 1.051 2.486 1.604.498.554.884.996.884 1.55.056.608-.663 2.766-.828 3.154-.166.387-2.21-.332-2.21-.332l-1.437-4.538z" fill="#D58A00"/><path d="M207.125 132.335s0-.609.11-1.107c.111-.498.663-1.826 1.382-1.66.663.111.221 1.218.276 1.716.055.498.331 1.77.166 2.158-.221.387-1.437.387-1.437.387l-.497-1.494z" fill="#ECB700"/><path d="M203.202 128.739c-.995.332-2.044 1.438-2.155 2.932-.11 1.494.387 3.818.497 4.316.111.498.166 4.095.608 4.98 0 0 2.265-1.715 4.696-1.107l-1.05-2.545s1.437-1.549 1.602-1.715c.166-.166 1.658-1.882 1.603-2.435-.056-.553-.719-.996-1.437-1.107a2.964 2.964 0 0 1-1.878-1.383c-.497-.83-.553-1.217-.221-1.881.331-.664.663-1.66-.055-1.771-.774-.166-2.21 1.716-2.21 1.716zM216.184 131.063c.056-.498 1.271-.775 2.21-.388.995.388 2.321 1.052 2.762.996.442-.055 2.266-.774 2.266-.774s1.657 2.932 2.265 3.375c.607.498 2.209 1.715 2.209 1.715s-1.049 3.375-2.209 4.316l-2.542-2.047-1.16-.387s-.276-2.324-.331-2.712c-.056-.387-1.16-1.604-1.713-1.826-.608-.166-3.867-1.217-3.757-2.268z" fill="#ECB700"/><path d="M203.146 328.269l-15.745-9.517-1.436-15.77 17.181 9.904v15.383z" fill="#2E383B"/><path d="M203.146 328.269l32.595-18.869.719-15.769-33.314 19.255v15.383z" fill="#414E52"/><path opacity=".3" d="M203.146 312.886l-17.181-9.904.166 2.102 17.015 9.794v-1.992zM236.294 293.686l-33.148 19.2v2.048l33.148-19.201v-2.047z" fill="#000"/><path d="M203.422 313.606l-18.01-10.403v-4.814l18.01 10.403v4.814z" fill="#566873"/><path d="M203.422 313.606l33.534-19.422v-4.814l-33.534 19.422v4.814z" fill="#6F818C"/><path d="M185.412 298.389l33.589-19.422 17.955 10.403-33.534 19.422-18.01-10.403z" fill="#889AA5"/><path d="M218.172 290.809l-12.209 7.082-7.955-4.592 12.264-7.083 7.9 4.593z" fill="#62747F"/><path d="M210.272 286.991l7.238 4.205.662-.387-7.9-4.593-12.264 7.083.663.387 11.601-6.695z" fill="#495B66"/><path d="M203.311 304.476l-.497.277-11.16-6.474.498-.222 11.159 6.419zM230.934 288.54l-.497.277-11.16-6.474.442-.277 11.215 6.474zM225.133 291.86l-.497.277-11.159-6.474.497-.277 11.159 6.474zM208.837 301.322l-.498.221-11.159-6.418.497-.277 11.16 6.474z" fill="#62747F"/><path d="M212.814 309.788l-4.365 2.545v-6.031l4.365-2.546v6.032z" fill="#FFCD00"/><path d="M209.554 301.875l-4.365 2.546 3.26 1.881 4.364-2.545-3.259-1.882z" fill="#FFEC40"/><path d="M205.189 304.42v.388l2.542 1.494v5.588l.718.443V306.302l-3.26-1.882z" fill="#D58A00"/><path d="M234.525 297.227l-4.42 2.546v-5.976l4.42-2.546v5.976z" fill="#FFCD00"/><path d="M231.21 289.37l-4.364 2.545 3.259 1.881 4.42-2.545-3.315-1.881z" fill="#FFEC40"/><path d="M226.846 291.915v.388l2.541 1.438v5.644l.718.387v-5.975l-3.259-1.882z" fill="#D58A00"/><path d="M206.516 289.149v8.41l1.712-.996v-6.418l7.624-4.427v6.419l1.713-.996v-8.411l-11.049 6.419z" fill="#FFCD00"/><path d="M206.516 289.149l11.049-6.419-1.16-.719-11.104 6.418v8.411l1.215.719v-8.41z" fill="#D58A00"/><path d="M216.405 282.011l-11.104 6.418 1.215.72 11.049-6.419-1.16-.719z" fill="#FFEC40"/><path d="M215.852 285.718l-1.161.664v5.035l1.161.72v-6.419z" fill="#D58A00"/><path opacity=".1" d="M243.255 318.53l-1.381.775-.552-.332-53.865 31.152 1.713.996h1.105l54.638-31.595-1.658-.996z" fill="#000"/><path d="M244.857 319.028l-.718.609v-4.703l.718-.222v4.316z" fill="#2E383B"/><path d="M244.858 314.712l-.718.222-1.658-.941.774-.221 1.602.94z" fill="#414E52"/><path d="M191.048 350.513l-1.657-.996v-4.98l1.657.996v4.98z" fill="#FFB500"/><path d="M244.14 319.803l-53.091 30.71v-4.98l53.091-30.71v4.98z" fill="#FFCD00"/><path d="M215.467 331.368v1.328c0 .387.276.498.552.332l3.315-1.882c.331-.166.552-.608.552-.996v-1.328l-4.419 2.546zM197.898 344.039c0 1.162-.829 2.545-1.823 3.154-.994.553-1.823.11-1.823-1.052 0-1.162.829-2.545 1.823-3.154.994-.553 1.823-.11 1.823 1.052z" fill="#2E383B"/><path d="M196.076 343.485c-.277.166-.498.388-.719.609v2.877c.221 0 .442-.055.719-.166.386-.221.663-.553.939-.94v-2.49c-.276-.166-.608-.111-.939.11z" fill="#fff"/><path d="M195.137 346.916c.055 0 .165.055.221.055v-2.877c-.056.111-.166.221-.221.277v2.545z" fill="url(#paint15_linear)"/><path d="M237.896 320.91c0 1.162.829 1.604 1.824 1.051.994-.553 1.823-1.992 1.823-3.154s-.829-1.605-1.823-1.051c-1.05.608-1.824 1.992-1.824 3.154z" fill="#2E383B"/><path d="M239.718 318.198c.277-.166.498-.221.719-.166v2.878c-.221.276-.442.498-.719.608-.386.222-.662.222-.939.111v-2.49c.221-.332.553-.719.939-.941z" fill="#fff"/><path d="M196.462 343.319v2.38c-.276.387-.552.719-.939.94-.055.056-.11.056-.166.111v.277c.221 0 .442-.056.719-.166.386-.222.663-.554.939-.941v-2.49c-.166-.166-.332-.166-.553-.111z" fill="url(#paint16_linear)"/><path d="M239.884 318.143v2.601c-.221.276-.442.498-.718.608-.11.056-.276.111-.387.166v.111c.277.111.553.055.939-.111.277-.166.498-.387.719-.608v-2.878c-.221 0-.387 0-.553.111z" fill="url(#paint17_linear)"/><path d="M240.604 320.578c-.055.11-.166.221-.221.276v-2.877c.055 0 .166 0 .221.055v2.546z" fill="url(#paint18_linear)"/><path d="M244.139 314.823l-53.091 30.71-1.657-.996 53.091-30.654 1.657.94z" fill="#FFEC40"/><path d="M244.139 314.823l-53.091 30.71-1.657-.996 53.091-30.654 1.657.94z" fill="#FFEC40"/><path d="M190.33 350.623l.718-.221v-4.648l-.718.553v4.316zM188.672 349.738l1.657.885v-4.316l-1.657-.885v4.316z" fill="#2E383B"/><path d="M190.329 346.307l.718-.553-1.657-.941-.718.609 1.657.885z" fill="#414E52"/><path d="M200.826 342.379c0 .442-.276.94-.663 1.162-.387.221-.663.055-.663-.388 0-.442.276-.94.663-1.162.387-.166.663 0 .663.388z" fill="#2E383B"/><path d="M200.714 342.489c0 .332-.221.775-.552.941-.276.166-.553.055-.553-.332 0-.332.221-.775.553-.941.331-.166.552 0 .552.332z" fill="#FA0"/><path d="M200.438 342.101c.055.056.055.111.055.222 0 .332-.221.774-.553.94-.11.056-.165.056-.276.056.111.166.276.221.497.055.277-.166.553-.609.553-.941 0-.221-.111-.332-.276-.332z" fill="#414E52"/><path d="M236.129 322.016c0 .443-.277.941-.663 1.162-.387.222-.663.056-.663-.387s.276-.941.663-1.107c.331-.276.663-.11.663.332z" fill="#2E383B"/><path d="M235.962 322.072c0 .332-.221.775-.552.941-.276.166-.553.055-.553-.332 0-.332.221-.775.553-.941.331-.166.552 0 .552.332z" fill="#FA0"/><path d="M235.74 321.684c.055.055.055.11.055.221 0 .332-.22.775-.552.941-.11.055-.166.055-.276.055.11.166.276.221.497.055.276-.166.552-.608.552-.94-.055-.166-.165-.332-.276-.332zM218.284 327.882l-4.364 2.49 1.547.995 4.475-2.545-1.658-.94z" fill="#414E52"/><path d="M239.389 321.408c.055 0 .11 0 .165-.056l.277-.166a.661.661 0 0 0 .276-.498v-2.102c0-.111-.055-.166-.111-.222-.221-.055-.331-.055-.331-.055-.055 0-.055 0-.111.055l-.276.166a.66.66 0 0 0-.276.498v2.103c0 .111.055.166.11.166-.055.055.111.111.277.111z" fill="url(#paint19_linear)"/><path d="M195.799 346.639c.055 0 .11 0 .166-.055l.276-.166a.66.66 0 0 0 .276-.498v-2.103c0-.11-.055-.166-.11-.221-.221-.055-.332-.055-.332-.055-.055 0-.055 0-.11.055l-.277.166a.663.663 0 0 0-.276.498v2.103c0 .11.055.166.111.166-.056.055.165.11.276.11z" fill="url(#paint20_linear)"/><path d="M217.566 328.269v.996c0 .387-.276.83-.553.996l-.939.553c.111.056.166.111.221.111l2.873-1.66-1.602-.996z" fill="#283539"/><path d="M217.566 328.269l-2.873 1.66c.498.276 1.05.664 1.381.885l.94-.553c.331-.166.552-.609.552-.996v-.996z" fill="#fff"/><path opacity=".54" d="M216.239 330.925l.056.996c0 .387.276.498.552.332l1.657-.996c.332-.166.553-.609.553-.996v-.996l-1.602-.996-2.873 1.66 1.657.996z" fill="#fff"/><path d="M218.063 329.209h-.221l-1.712.996a.581.581 0 0 0-.276.498l.441.277v.609h.387l1.713-.996c.166-.111.331-.332.331-.498v-.277c0-.055-.055-.221-.055-.277-.11-.221-.331-.332-.608-.332z" fill="url(#paint21_linear)"/><path opacity=".1" d="M149.282 285.552c2.21 1.273 5.856 1.273 8.066 0 2.21-1.273 2.21-3.375 0-4.648-.165-.055-.276-.166-.442-.221l-3.149-1.826a1.413 1.413 0 0 0-1.16 0l-6.85 3.984c-.332.166-.332.498 0 .664l3.149 1.826c.11.055.276.11.386.221z" fill="#000"/><path d="M159.061 280.129c0-.774-.497-1.604-1.547-2.213-.11-.055-.276-.166-.386-.221l-2.928-1.66c-.277-.166-.774-.166-1.05 0l-6.298 3.652c-.166.11-.221.221-.221.332v3.154c0 .11.055.221.221.276l2.928 1.66c.11.056.221.166.387.222 2.044 1.162 5.358 1.162 7.402 0 1.05-.609 1.547-1.384 1.547-2.158l-.055-3.044z" fill="url(#paint22_linear)"/><path d="M158.398 278.635v6.032c.442-.443.663-.941.663-1.439v-3.043c0-.554-.221-1.107-.663-1.55z" fill="#2E383B"/><path d="M150.057 282.232c2.044 1.162 5.358 1.162 7.402 0 2.045-1.162 2.045-3.099 0-4.316-.11-.055-.276-.166-.386-.221l-2.928-1.66c-.277-.166-.774-.166-1.05 0l-6.298 3.652c-.276.166-.276.442 0 .608l2.928 1.66c.111.111.221.222.332.277z" fill="#FFCD00"/><path d="M151.383 281.457c-1.326-.774-1.326-1.992 0-2.766 1.326-.775 3.481-.775 4.806 0 1.326.774 1.326 1.992 0 2.766-1.325.775-3.48.775-4.806 0z" fill="#414E52"/><path d="M146.797 280.295c-.276-.166-.276-.442 0-.608-.166.11-.221.221-.221.332v3.154c0 .11.055.221.221.276l2.652 1.55V281.9l-2.652-1.605z" fill="#2E383B"/><path d="M157.514 277.916c-.11-.055-.276-.166-.387-.221l-2.928-1.66c-.276-.166-.773-.166-1.049 0l-6.298 3.652c-.277.166-.277.442 0 .608l2.651 1.55 1.05-.609c-.939-.83-.718-1.992.553-2.711 1.491-.886 3.922-.886 5.414 0 1.27.719 1.491 1.881.552 2.766l1.381.277c1.05-1.162.719-2.656-.939-3.652z" fill="#414E52"/><path opacity=".5" d="M151.658 283.726v1.66c1.713.443 3.702.332 5.249-.332v-1.66c-1.547.609-3.536.775-5.249.332z" fill="#FFCD00"/><path d="M152.1 284.003v1.272l3.37.166.11-.221v-1.273c-1.105.277-2.32.277-3.48.056z" fill="#151F22"/><path d="M151.99 284.224v1.273c1.16.221 2.376.221 3.481-.056v-1.272c-1.105.276-2.321.276-3.481.055z" fill="#2E383B"/><path d="M152.101 284.003l-.111.221c1.16.221 2.376.221 3.481-.055l.11-.222c-1.105.277-2.32.277-3.48.056z" fill="#414E52"/><path d="M147.515 283.615l-.497-.221v-2.601l.497.277v2.545zM145.747 284.777l-.497-.221v-2.601l.497.277v2.545z" fill="#151F22"/><path d="M145.748 284.777l1.768-1.162v-2.545l-1.768 1.162v2.545z" fill="#FFCD00"/><path d="M146.3 281.845l-.552.387v2.545l.552-.387v-2.545z" fill="#2E383B"/><path d="M112.82 284.169c2.1 1.549 5.193 3.153 5.801 3.319.608.166 9.281.277 9.281.277s.387 0 .829-.277c.442-.276 4.585-2.655 4.972-2.877.387-.221.166-.332-.331-.664-.497-.276-3.978-2.324-5.193-3.098-1.216-.775-3.923-3.21-4.807-2.988-.331.11-.055.719-.939 1.162-.884.442-2.486.719-4.199 1.328-1.712.608-3.701 1.549-4.53 1.66-.828.11-1.989-.222-2.375 0-.442.221-.553.608 1.491 2.158zm6.63-.886c1.16-.276 2.983-.83 4.309-1.438 1.326-.609 1.989-.941 3.038-.498 1.05.387 2.431 1.272 2.321 1.936-.111.83-1.934 1.494-3.37 1.882-1.381.387-4.365.608-5.911.663-1.547 0-2.542-.166-3.039-.94-.497-.885 1.436-1.328 2.652-1.605z" fill="#FF8300"/><path d="M119.449 283.283c1.16-.276 2.983-.83 4.309-1.438 1.326-.609 1.989-.941 3.038-.498 1.05.387 2.431 1.272 2.321 1.936a.424.424 0 0 1-.111.277c-.331-.553-1.381-1.162-2.21-1.494-1.049-.387-1.712-.111-3.038.498-1.326.609-3.149 1.162-4.309 1.439-.829.221-2.1.498-2.542.94-.055-.055-.055-.11-.11-.11-.497-.83 1.436-1.273 2.652-1.55z" fill="#E66A00"/><path d="M111.052 282.343c0 .276.387.83 1.768 1.825 2.099 1.55 5.193 3.154 5.801 3.32.607.166 9.281.277 9.281.277s.387 0 .829-.277c.442-.276 4.585-2.656 4.972-2.877.11-.055.165-.111.165-.166v.664c0 .055-.055.166-.165.221-.387.222-4.53 2.601-4.972 2.878-.442.276-.829.276-.829.276s-8.674-.11-9.281-.276c-.608-.166-3.702-1.826-5.801-3.32-1.437-1.051-1.823-1.605-1.768-1.881v-.664z" fill="#E66A00"/><path d="M132.487 284.611l-4.42 2.546c-.11.055-.221.11-.276.11-3.867-.055-8.121-.11-8.839-.221-.221 0-.995-.387-1.161-.498-.165-.111.719-.221 2.1-.221 1.657 0 4.696-.277 6.242-.664 1.658-.443 3.536-1.218 3.868-2.269.055-.221.165-.443.884 0 .607.332 1.16.664 1.491.885.332.056.276.222.111.332z" fill="#E66A00"/><path d="M111.439 282.011c.498-.11 1.492.166 2.266.056.828-.111 2.817-1.052 4.53-1.66 1.712-.609 3.314-.886 4.198-1.328.608-.277.663-.664.774-.941 2.099 1.383 6.132 3.818 6.132 3.818l-.387.719c-.386-.553-1.381-1.106-2.154-1.383-1.05-.387-1.713-.111-3.039.498s-3.149 1.162-4.309 1.439c-1.16.276-3.149.719-2.652 1.549.332.498.829.719 1.492.885-.553.222-1.271.554-1.823.222-.718-.443-3.37-1.937-4.42-3.044-.442-.498-.552-.719-.608-.83zM130.223 284.113c.276-.166.774-.166 1.105 0 .276.166.276.443 0 .609-.276.166-.773.166-1.105 0-.331-.166-.331-.443 0-.609zM126.908 285.995c.277-.166.774-.166 1.105 0 .276.166.276.442 0 .608-.276.166-.773.166-1.105 0-.276-.11-.276-.442 0-.608zM122.653 286.327c.276-.166.773-.166 1.105 0 .276.166.276.442 0 .608-.276.166-.774.166-1.105 0-.332-.166-.332-.442 0-.608z" fill="#2E383B"/><path d="M119.449 283.283c1.16-.276 2.983-.83 4.309-1.438 1.326-.609 1.989-.941 3.038-.498.774.332 1.768.885 2.155 1.383v.719c-.387-.553-1.381-1.106-2.155-1.383-1.049-.387-1.712-.111-3.038.498-1.326.609-3.149 1.162-4.309 1.439-.829.221-2.1.498-2.542.94-.055-.055-.055-.11-.11-.11-.497-.83 1.436-1.273 2.652-1.55z" fill="#151F22"/><path d="M122.818 288.042c2.486.055 5.083.055 5.083.055s.387 0 .829-.276c.442-.277 4.585-2.656 4.972-2.878.055 0 .055-.055.11-.055l33.755 19.532-2.265 1.328-.663.166.056-.442-.663.166.055-.443-.663.166.055-.443-.663.166.055-.442-.662.166.055-.443-.663.166.055-.443-.663.166.055-.442-.663.166.056-.443-.663.166.055-.443-.663.166.055-.442-.663.166.056-.443-.663.166.055-.443-.663.166.055-.442-.663.166.055-.443-.663.166.056-.443-.663.166.055-.442-.718.166.055-.443-.663.166.055-.442-.663.165.056-.442-.663.166.055-.443-.663.166.055-.442-.663.165.056-.442-.663.166.055-.443-.663.166.055-.442-.663.166.055-.443-.662.166.055-.443-.663.166.055-.442-.663.166.055-.443-.663.166.056-.443-.663.166.055-.442-.663.166.055-.443-.663.166.056-.443-.663.166.055-.442-.663.166.055-.443-.663.166.055-.443-.663.166.056-.442-.663.166.055-.443-.663.166.055-.443-.663.166.056-.442-.663.166.055-.443-.663.166.055-.443-.663.166.056-.442-.663.166.055-.443-.663.166.055-.443-.663.166.055-.442-.663.166.056-.443-.663.166.055-.443-.663.166.055-.442-.663.166.056-.443-1.437.885.055-.442-.662.166.055-.443-.663.166.055-.443-.663.166.055-.442-.663.166.056-.443-.663.166.055-.443-.663.166.055-.442-.663.166.056-.443-.663.166.055-.443-.663.166.055-.442-.663.166.055-.443-.662.166.055-.443-.663.166.055-.442-.663.166.055-.443-.663.166.056-.443-.663.166.055-.442-.718.166.055-.443-.663.166.055-.443-.663.166-.221-.055z" fill="url(#paint23_linear)"/><path d="M114.367 290.366c-.608-.332-1.547-.332-2.155 0l-.276.166c-.607.332-.607.885 0 1.272l7.956 4.593c.607.332 1.546.332 2.154 0l.276-.166c.608-.332.608-.885 0-1.273l-7.955-4.592z" fill="#FFCD00"/><path d="M122.267 295.567l-.552.277 1.547.885.552-.332-1.547-.83z" fill="url(#paint24_linear)"/><path d="M133.648 303.646l1.934 1.66-13.535-7.802v-.554l11.601 6.696z" fill="url(#paint25_linear)"/><path d="M137.902 303.922l-2.32 1.384-1.934-1.66 2.321-1.384 1.933 1.66z" fill="url(#paint26_linear)"/><path d="M135.969 302.262l-2.321 1.384-11.601-6.696 2.375-1.328 11.547 6.64z" fill="url(#paint27_linear)"/><path d="M114.367 289.481c-.608-.332-1.547-.332-2.155 0l-.276.166c-.607.332-.607.885 0 1.272l7.956 4.593c.607.332 1.546.332 2.154 0l.276-.166c.608-.332.608-.885 0-1.273l-7.955-4.592z" fill="#FFEC40"/><path d="M131.881 310.286l-25.137-14.829c-.166-.056-.332-.056-.553.055-.442.277-.773.885-.773 1.383 0 .277.11.443.221.498l25.137 14.829c.165.056.331.056.552-.055.442-.277.774-.885.774-1.383a.701.701 0 0 0-.221-.498z" fill="url(#paint28_linear)"/><path d="M124.699 314.823v-2.379l11.823-3.984v2.379l-7.403 4.316-4.42-.332z" fill="#2E383B"/><path d="M124.699 312.444l9.392-5.423 2.431 1.439-7.403 4.26-4.42-.276z" fill="#414E52"/><path d="M133.428 311.559c0 .498-.332 1.106-.774 1.327-.221.111-.386.111-.552.056-.166-.055-.221-.277-.221-.498 0-.498.331-1.107.773-1.328.221-.111.387-.111.553-.055.11.11.221.276.221.498z" fill="#BD7B00"/><defs><linearGradient id="paint0_linear" x1="142.503" y1="188.693" x2="137.279" y2="196.732" gradientUnits="userSpaceOnUse"><stop stop-color="#AEBFC8"/><stop offset=".198" stop-color="#E7F7FF"/><stop offset=".46" stop-color="#9AA9B2"/><stop offset=".733" stop-color="#A3B8C4"/><stop offset="1" stop-color="#586770"/></linearGradient><linearGradient id="paint1_linear" x1="139.889" y1="188.995" x2="140.869" y2="196.983" gradientUnits="userSpaceOnUse"><stop stop-color="#C7D5DC"/><stop offset=".366" stop-color="#D5E9F2"/><stop offset="1" stop-color="#586770"/></linearGradient><linearGradient id="paint2_linear" x1="141.638" y1="190.104" x2="138.95" y2="195.459" gradientUnits="userSpaceOnUse"><stop stop-color="#AEBFC8"/><stop offset=".198" stop-color="#E7F7FF"/><stop offset=".46" stop-color="#9AA9B2"/><stop offset=".733" stop-color="#A3B8C4"/><stop offset="1" stop-color="#586770"/></linearGradient><linearGradient id="paint3_linear" x1="140.539" y1="190.155" x2="140.539" y2="196.34" gradientUnits="userSpaceOnUse"><stop stop-color="#C7D5DC"/><stop offset=".366" stop-color="#D5E9F2"/><stop offset="1" stop-color="#586770"/></linearGradient><linearGradient id="paint4_linear" x1="138.967" y1="195.083" x2="141.665" y2="190.804" gradientUnits="userSpaceOnUse"><stop stop-color="#C7D5DC"/><stop offset="1" stop-color="#586770"/></linearGradient><linearGradient id="paint5_linear" x1="142.993" y1="192.704" x2="141.834" y2="194.708" gradientUnits="userSpaceOnUse"><stop stop-color="#B4C5CE"/><stop offset=".012" stop-color="#C2D3DB"/><stop offset=".033" stop-color="#D3E3EB"/><stop offset=".059" stop-color="#DEEFF7"/><stop offset=".096" stop-color="#E5F5FD"/><stop offset=".198" stop-color="#E7F7FF"/><stop offset=".922" stop-color="#586770"/><stop offset="1" stop-color="#BBCAD3"/></linearGradient><linearGradient id="paint6_linear" x1="144.049" y1="193.764" x2="153.662" y2="187.545" gradientUnits="userSpaceOnUse"><stop stop-color="#E7F7FF"/><stop offset=".698" stop-color="#BBCAD3"/><stop offset="1" stop-color="#889AA5"/></linearGradient><linearGradient id="paint7_linear" x1="153.78" y1="192.027" x2="143.447" y2="192.027" gradientUnits="userSpaceOnUse"><stop stop-color="#AEBFC8"/><stop offset="1" stop-color="#889AA5"/></linearGradient><linearGradient id="paint8_linear" x1="129.36" y1="195.905" x2="131.901" y2="195.905" gradientUnits="userSpaceOnUse"><stop stop-color="#AEBFC8"/><stop offset="1" stop-color="#889AA5"/></linearGradient><linearGradient id="paint9_linear" x1="133.802" y1="271.02" x2="134.387" y2="272.031" gradientUnits="userSpaceOnUse"><stop stop-color="#B9BCBE"/><stop offset="1" stop-color="#A0A3A5"/></linearGradient><linearGradient id="paint10_linear" x1="128.19" y1="274.288" x2="127.567" y2="275.366" gradientUnits="userSpaceOnUse"><stop stop-color="#878A8C"/><stop offset="1" stop-color="#6E7173"/></linearGradient><linearGradient id="paint11_linear" x1="205.235" y1="118.818" x2="206.931" y2="116.335" gradientUnits="userSpaceOnUse"><stop offset=".003" stop-color="#9EA5A9"/><stop offset=".794" stop-color="#DEE5E9"/><stop offset="1" stop-color="#D1D8DC"/></linearGradient><linearGradient id="paint12_linear" x1="207.973" y1="116.526" x2="206.138" y2="119.781" gradientUnits="userSpaceOnUse"><stop stop-color="#566063"/><stop offset="1" stop-color="#272C2E"/></linearGradient><linearGradient id="paint13_linear" x1="208.511" y1="116.865" x2="206.545" y2="120.395" gradientUnits="userSpaceOnUse"><stop offset=".003" stop-color="#9EA5A9"/><stop offset=".794" stop-color="#DEE5E9"/><stop offset="1" stop-color="#D1D8DC"/></linearGradient><linearGradient id="paint14_linear" x1="210.027" y1="117.436" x2="207.939" y2="121.141" gradientUnits="userSpaceOnUse"><stop stop-color="#566063"/><stop offset="1" stop-color="#272C2E"/></linearGradient><linearGradient id="paint15_linear" x1="195.134" y1="345.65" x2="195.352" y2="345.65" gradientUnits="userSpaceOnUse"><stop stop-color="#E9E9E9"/><stop offset="1" stop-color="#B7B7B7"/></linearGradient><linearGradient id="paint16_linear" x1="195.351" y1="345.113" x2="197" y2="345.113" gradientUnits="userSpaceOnUse"><stop stop-color="#B7B7B7"/><stop offset="1" stop-color="#858585"/></linearGradient><linearGradient id="paint17_linear" x1="238.759" y1="319.878" x2="240.409" y2="319.878" gradientUnits="userSpaceOnUse"><stop stop-color="#B7B7B7"/><stop offset="1" stop-color="#858585"/></linearGradient><linearGradient id="paint18_linear" x1="240.626" y1="319.343" x2="240.41" y2="319.343" gradientUnits="userSpaceOnUse"><stop stop-color="#E9E9E9"/><stop offset="1" stop-color="#B7B7B7"/></linearGradient><linearGradient id="paint19_linear" x1="238.952" y1="319.879" x2="240.083" y2="319.879" gradientUnits="userSpaceOnUse"><stop stop-color="#9AB533"/><stop offset="1" stop-color="#ECF747"/></linearGradient><linearGradient id="paint20_linear" x1="195.394" y1="345.113" x2="196.526" y2="345.113" gradientUnits="userSpaceOnUse"><stop stop-color="#9AB533"/><stop offset="1" stop-color="#ECF747"/></linearGradient><linearGradient id="paint21_linear" x1="215.837" y1="330.379" x2="218.714" y2="330.379" gradientUnits="userSpaceOnUse"><stop stop-color="#9AB533"/><stop offset="1" stop-color="#ECF747"/></linearGradient><linearGradient id="paint22_linear" x1="158.971" y1="281.069" x2="146.659" y2="281.069" gradientUnits="userSpaceOnUse"><stop stop-color="#FFCD00"/><stop offset=".28" stop-color="#FFC300"/><stop offset=".747" stop-color="#FA0"/><stop offset="1" stop-color="#F90"/></linearGradient><linearGradient id="paint23_linear" x1="167.555" y1="295.408" x2="122.786" y2="295.408" gradientUnits="userSpaceOnUse"><stop offset=".003" stop-color="#9EA5A9"/><stop offset=".794" stop-color="#DEE5E9"/><stop offset="1" stop-color="#D1D8DC"/></linearGradient><linearGradient id="paint24_linear" x1="121.741" y1="296.137" x2="123.799" y2="296.137" gradientUnits="userSpaceOnUse"><stop offset=".003" stop-color="#9EA5A9"/><stop offset=".794" stop-color="#DEE5E9"/><stop offset="1" stop-color="#D1D8DC"/></linearGradient><linearGradient id="paint25_linear" x1="122.073" y1="301.116" x2="135.575" y2="301.116" gradientUnits="userSpaceOnUse"><stop offset=".003" stop-color="#858C90"/><stop offset=".794" stop-color="#C5CCD0"/><stop offset="1" stop-color="#B8BFC3"/></linearGradient><linearGradient id="paint26_linear" x1="133.637" y1="303.787" x2="137.901" y2="303.787" gradientUnits="userSpaceOnUse"><stop offset=".003" stop-color="#9EA5A9"/><stop offset=".794" stop-color="#DEE5E9"/><stop offset="1" stop-color="#D1D8DC"/></linearGradient><linearGradient id="paint27_linear" x1="96.21" y1="278.632" x2="146.386" y2="310.625" gradientUnits="userSpaceOnUse"><stop offset=".003" stop-color="#9EA5A9"/><stop offset=".794" stop-color="#DEE5E9"/><stop offset="1" stop-color="#D1D8DC"/></linearGradient><linearGradient id="paint28_linear" x1="119.074" y1="303.297" x2="118.479" y2="304.328" gradientUnits="userSpaceOnUse"><stop stop-color="#F7C05C"/><stop offset=".182" stop-color="#F1B952"/><stop offset=".488" stop-color="#E1A539"/><stop offset=".876" stop-color="#C6860F"/><stop offset="1" stop-color="#BD7B00"/></linearGradient></defs></svg>