<svg width="55" height="43" viewBox="0 0 55 43" fill="none" xmlns="http://www.w3.org/2000/svg">
<path fill-rule="evenodd" clip-rule="evenodd" d="M44.832 19.8107H20.7715C19.1758 19.8107 17.8809 18.5158 17.9043 16.9202V3.32321C17.9043 1.75076 19.1758 0.455811 20.7715 0.455811H44.832C46.4043 0.455811 47.6992 1.72765 47.6992 3.32321V16.9433C47.6992 18.5158 46.4277 19.8107 44.832 19.8107ZM19.4531 7.78616H46.127V5.17314H19.4531V7.78616ZM20.7715 18.2383H44.832C45.5488 18.2383 46.127 17.6602 46.127 16.9433V9.35861H19.4531V16.9202C19.4531 17.6602 20.0547 18.2383 20.7715 18.2383ZM44.832 2.02826H20.7715C20.0547 2.02826 19.4531 2.60635 19.4531 3.34633V3.60069H46.1504V3.34633C46.1504 2.60635 45.5488 2.02826 44.832 2.02826ZM48.623 24.5512C50.4941 23.4874 52.875 24.1349 53.9629 26.008C54.8633 27.5804 54.4023 29.546 52.7148 31.2572C52.6914 31.2572 52.668 31.2803 52.6445 31.3034L52.6211 31.3201C52.3086 31.5592 48.873 34.3093 44.9473 37.0382C39.2617 40.9693 35.4707 42.8886 33.3223 42.8886C29.2305 42.8886 18.5508 40.6456 15.2695 39.9287V40.4837C15.2695 40.9231 14.9219 41.2699 14.4824 41.2699H12.125V42.1024C12.125 42.5417 11.7793 42.8886 11.3398 42.8886H1.6543C1.2168 42.8886 0.869141 42.5417 0.869141 42.1024C0.869141 41.663 1.2168 41.3162 1.6543 41.3162H7.43359V40.5299C7.43359 40.0906 7.7793 39.7437 8.21875 39.7437C8.6582 39.7437 9.00586 40.0906 9.00586 40.5299V41.3162H10.5762V22.4931H2.44141V38.9806C2.44141 39.42 2.09375 39.7668 1.6543 39.7668C1.2168 39.7668 0.869141 39.42 0.869141 38.9806V21.7069C0.869141 21.2675 1.2168 20.9207 1.6543 20.9207H11.3398C11.7793 20.9207 12.125 21.2675 12.125 21.7069V22.4931H14.4824C14.9219 22.4931 15.2695 22.84 15.2695 23.2793V23.9268C20.9512 23.1411 24.1406 24.2491 30.1895 26.3507L30.2012 26.3548C32.0508 26.9792 34.1309 27.7192 36.6738 28.5285C36.6738 28.5516 36.6953 28.5516 36.6953 28.5516H36.7188C38.6367 29.361 39.0762 31.1415 38.6602 32.5521C38.2676 33.8702 37.043 35.0726 35.3789 35.0726C35.1699 35.0726 34.9395 35.0495 34.709 35.0033C33.2051 34.7027 23.8672 33.454 23.7754 33.4308C23.3359 33.3846 23.0352 32.9915 23.1055 32.5521C23.1504 32.1127 23.5449 31.8121 23.9824 31.8815C24.377 31.9278 33.4609 33.1533 35.0078 33.454C36.1406 33.6852 36.9277 32.899 37.1816 32.0896C37.5742 30.7484 36.5117 30.1472 36.1406 29.9853C33.5996 29.176 31.5176 28.4591 29.6699 27.8117L29.6348 27.7984C23.6016 25.7031 20.6895 24.6916 15.2461 25.4993V38.31C18.0195 38.9113 29.2754 41.293 33.2988 41.293C36.9277 41.293 47.6992 33.2227 51.6055 30.0778C52.1816 29.4997 53.3613 28.066 52.5977 26.7711C51.9512 25.6611 50.5176 25.268 49.3848 25.9155C49.3633 25.9155 49.3633 25.9386 49.3398 25.9386C49.293 25.9617 44.7168 28.2279 40.9727 29.8003C40.5801 29.9622 40.1172 29.7772 39.9551 29.3841C39.793 28.991 39.9785 28.5285 40.3711 28.3666C43.3984 27.0889 46.9922 25.3431 48.2129 24.7491L48.623 24.5512ZM12.125 24.0656V39.7206H13.6973V38.9575V24.0656H12.125ZM29.1367 13.0122H21.8086C21.3711 13.0122 21.0234 13.3591 21.0234 13.7984C21.0234 14.2378 21.3711 14.5847 21.8086 14.5847H29.1367C29.5762 14.5847 29.9219 14.2378 29.9219 13.7984C29.9219 13.3591 29.5762 13.0122 29.1367 13.0122ZM41.6875 13.0122H43.791C44.207 13.0122 44.5781 13.3591 44.5781 13.7984C44.5781 14.2378 44.2305 14.5847 43.791 14.5847H41.6875C41.25 14.5847 40.9023 14.2378 40.9023 13.7984C40.9023 13.3591 41.25 13.0122 41.6875 13.0122Z" fill="#1D1D1B"/>
</svg>
