<svg width="47" height="53" viewBox="0 0 47 53" fill="none" xmlns="http://www.w3.org/2000/svg">
<path d="M29.6117 6.99926C29.6117 3.18377 26.5144 0.0620117 22.6775 0.0620117C18.8636 0.0620117 15.7432 3.16065 15.7432 6.99926V14.2602H2.91492C1.64365 14.2602 0.603516 15.3008 0.603516 16.5727V17.8676C0.603516 19.1394 1.64365 20.18 2.91492 20.18H15.7663V45.4085C15.7663 49.2239 18.8636 52.3457 22.7006 52.3457C26.5144 52.3457 29.6348 49.2471 29.6348 45.4085L29.6117 6.99926ZM22.6775 50.9351C19.6264 50.9351 17.1301 48.4377 17.1301 45.3853V20.1569H19.5339C20.3198 20.9894 21.4293 21.5212 22.6775 21.5212C25.0582 21.5212 26.9998 19.5788 26.9998 17.197C26.9998 14.8152 25.0582 12.8728 22.6775 12.8728C21.4524 12.8728 20.3198 13.4046 19.5339 14.2371H17.1532V6.99926C17.1532 3.94687 19.6495 1.44946 22.7006 1.44946C25.7516 1.44946 28.2479 3.92374 28.2479 6.99926V45.3853C28.2248 48.4377 25.7516 50.9351 22.6775 50.9351ZM2.01347 16.5495C2.01347 16.0408 2.42952 15.6246 2.93803 15.6246H18.6787C18.4938 16.1102 18.3782 16.642 18.3782 17.197C18.3782 17.752 18.4938 18.2838 18.6787 18.7694H2.93803C2.42952 18.7694 2.01347 18.3532 2.01347 17.8445V16.5495ZM19.7651 17.197C19.7651 15.5783 21.0826 14.2602 22.7006 14.2602C24.3186 14.2602 25.6361 15.5783 25.6361 17.197C25.6361 18.8157 24.3186 20.1338 22.7006 20.1338C21.0826 20.1338 19.7651 18.8157 19.7651 17.197Z" fill="black"/>
<path d="M22.6778 24.9436C20.2971 24.9436 18.3555 26.886 18.3555 29.2678C18.3555 30.4703 18.864 31.5802 19.6499 32.3433V37.0838C19.6499 38.7025 20.9674 39.9974 22.5622 39.9974C24.2727 39.9974 25.6595 38.61 25.6595 36.8756V32.3433C26.4685 31.5571 26.9539 30.4703 26.9539 29.2678C27.0001 26.886 25.0586 24.9436 22.6778 24.9436ZM22.5853 38.61C21.7301 38.61 21.0598 37.9162 21.0598 37.0838V33.2683C21.5683 33.4764 22.1 33.592 22.6778 33.592C23.2557 33.592 23.8104 33.4764 24.2958 33.2683V36.8988C24.3189 37.8469 23.533 38.61 22.5853 38.61ZM22.6778 32.2046C21.0598 32.2046 19.7423 30.8865 19.7423 29.2678C19.7423 27.6491 21.0598 26.331 22.6778 26.331C24.2958 26.331 25.6133 27.6491 25.6133 29.2678C25.6133 30.8865 24.2958 32.2046 22.6778 32.2046Z" fill="black"/>
<path d="M22.6783 4.80246C21.4763 4.80246 20.4824 5.7968 20.4824 6.99925C20.4824 8.20171 21.4763 9.19605 22.6783 9.19605C23.8802 9.19605 24.8741 8.20171 24.8741 6.99925C24.8741 5.7968 23.9033 4.80246 22.6783 4.80246ZM22.6783 7.8086C22.2391 7.8086 21.8693 7.43861 21.8693 6.99925C21.8693 6.5599 22.2391 6.18991 22.6783 6.18991C23.1174 6.18991 23.4872 6.5599 23.4872 6.99925C23.4872 7.43861 23.1405 7.8086 22.6783 7.8086Z" fill="black"/>
<path d="M22.6783 43.1885C21.4763 43.1885 20.4824 44.1829 20.4824 45.3853C20.4824 46.5878 21.4763 47.5821 22.6783 47.5821C23.8802 47.5821 24.8741 46.5878 24.8741 45.3853C24.8741 44.1829 23.9033 43.1885 22.6783 43.1885ZM22.6783 46.1947C22.2391 46.1947 21.8693 45.8247 21.8693 45.3853C21.8693 44.946 22.2391 44.576 22.6783 44.576C23.1174 44.576 23.4872 44.946 23.4872 45.3853C23.4872 45.8247 23.1405 46.1947 22.6783 46.1947Z" fill="black"/>
<path d="M22.6778 27.2791C22.2849 27.2791 21.9844 27.5797 21.9844 27.9729V31.0252C21.9844 31.4184 22.2849 31.719 22.6778 31.719C23.0707 31.719 23.3712 31.4184 23.3712 31.0252V27.9729C23.3712 27.6029 23.0707 27.2791 22.6778 27.2791Z" fill="black"/>
<path d="M45.8126 19.7638C46.2055 19.7638 46.506 19.4632 46.506 19.0701V16.2489C46.506 15.8558 46.2055 15.5552 45.8126 15.5552H35.6193V0.755736C35.6193 0.362626 35.3188 0.0620117 34.9258 0.0620117C34.5329 0.0620117 34.2324 0.362626 34.2324 0.755736V51.6289C34.2324 52.022 34.5329 52.3226 34.9258 52.3226C35.3188 52.3226 35.6193 52.022 35.6193 51.6289V45.4316H37.2373C37.4453 45.4316 37.6533 45.316 37.792 45.1541L40.1034 42.0323C40.2652 41.8242 40.2883 41.5467 40.1727 41.3155C40.0572 41.0843 39.826 40.9224 39.5487 40.9224H35.6193V38.425H45.8126C46.2055 38.425 46.506 38.1244 46.506 37.7312V34.9101C46.506 34.517 46.2055 34.2164 45.8126 34.2164H35.6193V32.2046H45.8126C46.2055 32.2046 46.506 31.904 46.506 31.5109V28.6897C46.506 28.2966 46.2055 27.996 45.8126 27.996H35.6193V25.9842H45.8126C46.2055 25.9842 46.506 25.6836 46.506 25.2905V22.4693C46.506 22.0762 46.2055 21.7756 45.8126 21.7756H35.6193V19.7638H45.8126ZM35.6193 16.9426H45.1192V18.3763H35.6193V16.9426ZM35.6193 23.163H45.1192V24.5967H35.6193V23.163ZM35.6193 29.3834H45.1192V30.8171H35.6193V29.3834ZM35.6193 35.6269H45.1192V37.0606H35.6193V35.6269ZM35.6193 42.3098H38.1849L36.8905 44.0441H35.6193V42.3098Z" fill="black"/>
</svg>
