<svg width="46" height="53" viewBox="0 0 46 53" fill="none" xmlns="http://www.w3.org/2000/svg">
<path d="M43.4821 37.609L43.459 37.5859C43.1586 37.3778 42.7194 37.1465 42.2571 36.8922C41.8873 36.684 41.4943 36.4759 41.1939 36.2909C40.9627 36.1522 40.6391 35.9441 40.1999 35.6897C39.8532 35.4816 39.3678 35.2041 38.8362 34.9035C37.9348 34.3947 36.9409 33.8629 35.947 33.3079C35.3922 33.0073 31.6246 30.9955 29.9835 30.1168C31.7402 28.3131 33.0346 25.8619 33.6818 23.1102C35.0224 22.8558 36.0163 21.6765 36.0163 20.2659C36.0163 19.0634 35.2766 17.9997 34.1903 17.5835C34.2827 16.381 33.8898 14.5774 33.7973 14.1842C33.7973 14.1149 33.7973 13.9761 33.7973 13.7911C33.7973 13.7449 33.7973 13.7218 33.7973 13.6755C33.7973 13.6755 33.7973 13.6755 33.7973 13.6524C33.7973 13.2593 33.7973 12.8662 33.7973 12.4731C33.8205 7.68636 33.8436 4.51835 31.8327 2.50655C30.2609 0.910987 27.5796 0.240387 22.9106 0.240387H22.8875H22.8644C18.1953 0.240387 15.5372 0.934111 13.9423 2.50655C11.9314 4.51835 11.9545 7.68636 11.9776 12.4731C11.9776 12.843 11.9776 13.2362 11.9776 13.6524C11.9776 13.6986 11.9776 13.7218 11.9776 13.768C11.9776 13.953 11.9776 14.0686 11.9776 14.1611C11.8852 14.5542 11.5154 16.3579 11.5847 17.5604C10.4983 17.9997 9.75869 19.0403 9.75869 20.2428C9.75869 21.6302 10.7295 22.7864 12.0239 23.0639C12.6711 25.8388 13.9654 28.3131 15.7452 30.0937C14.081 30.9724 10.3828 32.9611 9.82803 33.2617C8.83412 33.7935 7.8171 34.3485 6.93877 34.8341C6.40714 35.1347 5.92174 35.4122 5.57503 35.6203C5.11275 35.8978 4.81227 36.0828 4.58112 36.2216C4.28064 36.4065 3.88771 36.6147 3.51788 36.8228C3.0556 37.0771 2.61643 37.3084 2.31595 37.5165L2.29282 37.5396C1.02155 38.4646 0.328125 39.8058 0.328125 44.2688V48.1536C0.328125 48.4311 0.53616 48.6855 0.813529 48.7317V51.4835C0.813529 51.8072 1.06778 52.0616 1.39138 52.0616C1.71498 52.0616 1.96923 51.8072 1.96923 51.4835V48.7317H5.99108V51.6916C5.99108 52.0153 6.24533 52.2697 6.56893 52.2697C6.89253 52.2697 7.14678 52.0153 7.14678 51.6916V44.2456C7.14678 44.13 7.14678 43.9913 7.14678 43.8294C7.1699 42.3263 7.21613 39.5283 5.75994 38.0484C5.50568 37.794 5.22832 37.5859 4.90473 37.4471C5.0203 37.3778 5.11275 37.3084 5.22832 37.2621C5.43634 37.1234 5.73684 36.9384 6.176 36.684C6.52271 36.4759 7.0081 36.1984 7.53973 35.9209C8.07135 35.6203 8.64921 35.2966 9.25017 34.9729V51.6916C9.25017 52.0153 9.50443 52.2697 9.82803 52.2697C10.1516 52.2697 10.4059 52.0153 10.4059 51.6916V41.4939H13.3876C13.665 42.072 14.2428 42.4651 14.9131 42.4651H30.9543C31.6246 42.4651 32.2025 42.072 32.4798 41.4939H35.4616V51.6916C35.4616 52.0153 35.7158 52.2697 36.0394 52.2697C36.363 52.2697 36.6173 52.0153 36.6173 51.6916V34.9729C37.2182 35.2966 37.7961 35.6203 38.3277 35.9209C38.8593 36.2216 39.3216 36.4759 39.6683 36.684C40.1075 36.9384 40.408 37.1234 40.616 37.2621C40.7085 37.3315 40.824 37.4009 40.9396 37.4471C40.616 37.609 40.3386 37.794 40.0844 38.0484C38.6282 39.5283 38.6744 42.3263 38.6975 43.8294C38.6975 43.9913 38.6975 44.13 38.6975 44.2456V51.6916C38.6975 52.0153 38.9518 52.2697 39.2754 52.2697C39.599 52.2697 39.8532 52.0153 39.8532 51.6916V48.8242H43.8751V51.576C43.8751 51.8997 44.1293 52.1541 44.4529 52.1541C44.7765 52.1541 45.0308 51.8997 45.0308 51.576V48.8242C45.3082 48.778 45.5162 48.5467 45.5162 48.2461V44.3613C45.47 39.852 44.7765 38.5108 43.4821 37.609ZM5.96797 43.8294C5.96797 43.9913 5.96797 44.13 5.96797 44.2688V47.668H1.46072V44.3613C1.46072 40.037 2.10791 39.1583 2.91691 38.5802C2.94002 38.5802 2.94002 38.5571 2.96314 38.5571C3.07871 38.4877 3.2174 38.3721 3.40231 38.2796C4.02639 38.3027 4.5349 38.4877 4.90473 38.8808C6.0142 39.9908 5.99108 42.4882 5.96797 43.8294ZM28.1575 36.2909C27.048 37.9327 24.9215 39.0427 22.8644 39.0427C20.8072 39.0427 18.6807 37.9327 17.5712 36.2909C16.6236 34.8804 16.4155 33.146 16.9934 31.2499C17.2939 31.4811 17.6175 31.7123 17.9411 31.8973C19.4204 32.7761 21.0152 33.2385 22.6795 33.2385H22.9568C24.5979 33.2385 26.1928 32.7992 27.6721 31.8973C28.0188 31.6892 28.3424 31.458 28.666 31.2036C29.3132 33.1229 29.1283 34.8804 28.1575 36.2909ZM12.7404 17.2598C12.7404 16.6123 12.856 15.6411 13.0178 14.878L14.289 15.8954L14.081 16.936L12.7404 17.2598ZM13.3876 13.6986C14.1735 12.9587 16.6467 11.2937 22.8875 11.2937C28.5736 11.2937 31.4166 12.7043 32.4105 13.6755L30.4227 15.2711C29.8679 15.7104 29.1283 15.8723 28.458 15.6873C26.5164 15.1786 24.7366 14.9242 22.8875 14.9473C20.6917 14.9473 18.6345 15.248 16.2537 15.9879L13.3876 13.6986ZM22.4946 1.39659C22.6332 1.39659 22.7488 1.39659 22.8875 1.39659C23.0262 1.39659 23.1418 1.39659 23.2804 1.39659C25.1296 1.44284 29.1745 2.11344 29.4981 10.9237C27.9032 10.4613 25.7768 10.1144 22.8875 10.1144C19.9982 10.1144 17.8717 10.4613 16.2769 10.9237C16.5773 2.11344 20.6454 1.44284 22.4946 1.39659ZM32.7572 14.878C32.919 15.6642 33.0346 16.6123 33.0346 17.2598L31.694 16.936L31.4859 15.8954L32.7572 14.878ZM31.0237 3.33902C32.6879 5.00396 32.6648 7.94073 32.6416 12.4037C32.1794 12.0568 31.5322 11.6868 30.6769 11.34C30.5845 6.6689 29.475 3.45464 27.4179 1.72033C29.0821 2.04407 30.2378 2.5528 31.0237 3.33902ZM14.7513 3.33902C15.5141 2.57593 16.6929 2.04407 18.3571 1.74346C16.3 3.45464 15.1905 6.6689 15.098 11.3631C14.2197 11.71 13.5956 12.0799 13.1333 12.4268C13.1102 7.94073 13.1102 5.00396 14.7513 3.33902ZM10.9375 20.2659C10.9375 19.4334 11.5153 18.7166 12.3475 18.5547C12.3706 18.5547 12.3706 18.5547 12.3937 18.5547L14.7282 17.9766C14.9362 17.9304 15.1212 17.7454 15.1674 17.5141L15.3292 16.7048L15.7915 17.0748C15.8839 17.1673 16.0226 17.1904 16.1613 17.1904C16.2306 17.1904 16.2769 17.1904 16.3462 17.1673C18.727 16.4042 20.761 16.0573 22.9337 16.0804C24.6904 16.0804 26.3777 16.2885 28.2037 16.7741C28.9665 16.9823 29.7755 16.9129 30.492 16.5892L30.6769 17.5141C30.7232 17.7454 30.885 17.9072 31.1161 17.9766L33.4506 18.5547C33.4738 18.5547 33.4737 18.5547 33.4969 18.5547C34.3058 18.7166 34.9068 19.4334 34.9068 20.2659C34.9068 21.214 34.1672 21.9771 33.2426 22.0002C33.2426 22.0002 33.2426 22.0002 33.2195 22.0002C33.1964 22.0002 33.1502 22.0002 33.127 22.0233H33.1039C33.0808 22.0233 33.0577 22.0465 33.0115 22.0465C33.0115 22.0465 32.9884 22.0465 32.9884 22.0696C32.9652 22.0927 32.9421 22.0927 32.919 22.1158C32.919 22.1158 32.8959 22.1158 32.8959 22.139C32.8728 22.1621 32.8497 22.1852 32.8266 22.2083C32.8266 22.2083 32.8265 22.2083 32.8034 22.2314C32.7803 22.2546 32.7572 22.2777 32.7572 22.3008C32.7572 22.3008 32.7572 22.3008 32.7572 22.3239C32.7341 22.3471 32.7341 22.3702 32.711 22.4164V22.4396C32.711 22.4627 32.6879 22.4858 32.6879 22.5089C32.0638 25.492 30.6538 28.105 28.666 29.8624C28.2037 30.2787 27.7183 30.6486 27.1867 30.9492C25.8923 31.7355 24.5055 32.1286 23.0724 32.1286H22.7719C21.3388 32.1286 19.952 31.7355 18.6345 30.9492C18.1722 30.6718 17.7562 30.3711 17.3401 30.0012C17.3401 29.978 17.317 29.9549 17.2939 29.9549C17.2939 29.9318 17.2708 29.9318 17.2708 29.9087C17.2477 29.8855 17.2477 29.8855 17.2245 29.8624C17.2014 29.8393 17.2014 29.8393 17.1783 29.8162C17.1552 29.8162 17.1552 29.793 17.1321 29.793C17.109 29.793 17.0859 29.7699 17.0627 29.7699C17.0627 29.7699 17.0627 29.7699 17.0396 29.7699C15.1905 28.0587 13.8268 25.5844 13.1796 22.7402C13.1796 22.7171 13.1796 22.6939 13.2027 22.6477C13.2258 22.3239 12.9715 22.0696 12.648 22.0465C11.6772 21.9771 10.9375 21.214 10.9375 20.2659ZM10.3828 34.3254C10.6832 34.1635 11.8852 33.516 13.1796 32.8223V37.1003H10.3596L10.3828 34.3254C10.3828 34.3485 10.3828 34.3485 10.3828 34.3254ZM10.3828 38.2565H13.2027V40.3377H10.3828V38.2565ZM30.9081 41.3089H14.8669C14.5895 41.3089 14.3584 41.0776 14.3584 40.8001V32.2211C14.8669 31.9436 15.3754 31.6892 15.7915 31.458C15.1674 33.9785 15.8839 35.8053 16.6467 36.9615C17.9873 38.9502 20.4374 40.222 22.8875 40.222C25.3376 40.222 27.7877 38.9502 29.1283 36.9615C29.9142 35.8053 30.6076 33.9785 29.9835 31.458C30.3996 31.6892 30.9081 31.9436 31.4166 32.2211V40.8001C31.4166 41.0776 31.1855 41.3089 30.9081 41.3089ZM32.5723 40.3377V38.2565H35.3922V40.3377H32.5723ZM35.3922 37.1003H32.5723V32.8223C33.8667 33.516 35.0686 34.1635 35.3691 34.3254C35.3691 34.3254 35.3691 34.3254 35.3922 34.3254V37.1003ZM39.807 43.8294C39.7839 42.4882 39.7608 40.0139 40.8703 38.8808C41.2632 38.4877 41.7486 38.3027 42.3727 38.2796C42.5576 38.3721 42.6963 38.4646 42.8118 38.5571C42.8118 38.5571 42.8349 38.5802 42.8581 38.5802C43.6671 39.1583 44.3143 40.037 44.3143 44.3613V47.668H39.807V44.2688C39.807 44.13 39.807 43.9681 39.807 43.8294Z" fill="black"/>
<path d="M39.2288 52.3853C38.8359 52.3853 38.5354 52.0847 38.5354 51.6916V44.2456C38.5354 44.13 38.5354 44.0144 38.5354 43.8756V43.8294C38.5123 42.3032 38.4661 39.4821 39.9685 37.9559C40.1765 37.7477 40.4076 37.5627 40.6619 37.424C40.6157 37.4009 40.5694 37.3546 40.5232 37.3315C40.3152 37.1928 40.0147 37.0078 39.5755 36.7534C39.2288 36.5453 38.7665 36.2909 38.2349 35.9903C37.7495 35.7128 37.2179 35.4353 36.6863 35.1347V51.6916C36.6863 52.0847 36.3858 52.3853 35.9929 52.3853C35.5999 52.3853 35.2994 52.0847 35.2994 51.6916V41.6095H32.5026C32.2021 42.1876 31.5781 42.5807 30.9078 42.5807H14.8666C14.1963 42.5807 13.5953 42.2107 13.2717 41.6095H10.4749V51.6916C10.4749 52.0847 10.1744 52.3853 9.78147 52.3853C9.38853 52.3853 9.08805 52.0847 9.08805 51.6916V35.1578C8.55643 35.4585 8.0248 35.7359 7.5394 36.0134C7.00778 36.314 6.54551 36.5684 6.17568 36.7765C5.73651 37.0309 5.43602 37.2159 5.22799 37.3546C5.18177 37.3778 5.13554 37.424 5.08931 37.4471C5.34357 37.5859 5.57471 37.7709 5.78274 37.979C7.26204 39.4821 7.23893 42.3263 7.21581 43.8525V43.8988C7.21581 44.0375 7.21581 44.1531 7.21581 44.2687V51.6916C7.21581 52.0847 6.91533 52.3853 6.52239 52.3853C6.12945 52.3853 5.82897 52.0847 5.82897 51.6916V48.9398H2.03825V51.576C2.03825 51.9691 1.73777 52.2697 1.34483 52.2697C0.951889 52.2697 0.651406 51.9691 0.651406 51.576V48.9167C0.374037 48.8242 0.166016 48.5698 0.166016 48.2461V44.3612C0.166016 39.8289 0.88255 38.4646 2.20005 37.5396C2.22317 37.5396 2.22317 37.5165 2.24628 37.5165C2.54677 37.3084 2.98592 37.0771 3.44821 36.8228C3.81803 36.6147 4.21098 36.4065 4.51146 36.2215C4.7426 36.0828 5.04308 35.8978 5.50537 35.6203C5.85208 35.4122 6.33747 35.1347 6.89221 34.8341C7.79366 34.3254 8.78757 33.7935 9.78147 33.2385C10.3131 32.9379 13.8496 31.0649 15.56 30.1399C13.8264 28.3362 12.5783 25.9544 11.9311 23.2258C10.5905 22.902 9.64279 21.6996 9.64279 20.289C9.64279 19.0866 10.3593 17.9997 11.4688 17.5141C11.3995 16.2885 11.7693 14.5542 11.8617 14.1611C11.8617 14.0917 11.8617 13.953 11.8617 13.7911C11.8617 13.7449 11.8617 13.6986 11.8617 13.6524V12.4962C11.8386 7.68635 11.8155 4.49522 13.8495 2.43717C15.4444 0.81848 18.1488 0.124756 22.8409 0.124756H22.864H22.8872C27.5793 0.124756 30.2837 0.81848 31.8785 2.43717C33.9126 4.49522 33.8895 7.66323 33.8664 12.4962C33.8664 12.8662 33.8664 13.2593 33.8664 13.6755C33.8664 13.6986 33.8664 13.7449 33.8664 13.7911C33.8664 13.953 33.8664 14.0917 33.8664 14.1611C33.9588 14.5311 34.3286 16.2885 34.2593 17.5141C35.3688 17.9997 36.0853 19.0634 36.0853 20.289C36.0853 21.6996 35.1145 22.9252 33.7277 23.2258C33.0805 25.9313 31.8323 28.3131 30.1219 30.1168C31.8323 31.0186 35.3919 32.9379 35.9466 33.2385C36.9405 33.7704 37.9576 34.3254 38.8359 34.8341C39.3675 35.1347 39.8529 35.4122 40.1996 35.6203C40.6619 35.8747 40.9624 36.0828 41.1935 36.2215C41.494 36.4065 41.8638 36.6147 42.2568 36.8228C42.7191 37.0771 43.1582 37.3084 43.4587 37.5165L43.4818 37.5396C44.7993 38.4646 45.4927 39.852 45.4927 44.3612V48.2461C45.4927 48.5467 45.2847 48.8242 45.0074 48.9167V51.576C45.0074 51.9691 44.7069 52.2697 44.3139 52.2697C43.921 52.2697 43.6205 51.9691 43.6205 51.576V48.9398H39.8298V51.6916C39.9223 52.0847 39.6218 52.3853 39.2288 52.3853ZM36.432 34.7647L36.5938 34.8572C37.1948 35.181 37.7726 35.5047 38.3043 35.8053C38.8359 36.1059 39.2982 36.3603 39.668 36.5684C40.1072 36.8228 40.4076 37.0078 40.6388 37.1465C40.7312 37.2159 40.8468 37.2621 40.9624 37.3315L41.1473 37.4471L40.9624 37.5396C40.6619 37.6784 40.3845 37.8865 40.1534 38.1177C38.7203 39.5514 38.7665 42.3263 38.7897 43.8063V43.8525C38.7897 43.9913 38.7897 44.1069 38.7897 44.2225V51.6916C38.7897 51.946 38.9977 52.1541 39.2519 52.1541C39.5062 52.1541 39.7142 51.946 39.7142 51.6916V48.7086H43.9672V51.576C43.9672 51.8303 44.1753 52.0385 44.4295 52.0385C44.6838 52.0385 44.8918 51.8303 44.8918 51.576V48.7086L44.9842 48.6855C45.2154 48.6392 45.3772 48.4542 45.3772 48.223V44.3381C45.3772 39.9214 44.7069 38.5802 43.4587 37.7015L43.4356 37.6784C43.1351 37.4702 42.6959 37.239 42.2568 36.9846C41.887 36.7765 41.494 36.5684 41.1935 36.3834C40.9624 36.2447 40.6619 36.0597 40.1996 35.7822C39.8529 35.5741 39.3675 35.2966 38.8359 34.996C37.9344 34.4872 36.9405 33.9554 35.9466 33.4235C35.3919 33.1229 31.6243 31.1111 29.9832 30.2324L29.8445 30.163L29.9601 30.0474C31.7167 28.2437 32.988 25.8388 33.6121 23.087L33.6352 23.0177L33.7046 22.9945C34.999 22.7402 35.9466 21.584 35.9466 20.2659C35.9466 19.1328 35.2532 18.1153 34.1899 17.676L34.1206 17.6529V17.5604C34.2131 16.3579 33.8201 14.5311 33.7508 14.1842V14.1611V14.138C33.7508 14.0686 33.7508 13.9299 33.7508 13.768V13.7449C33.7508 13.7218 33.7508 13.6755 33.7508 13.6524V13.6293C33.7508 13.2361 33.7508 12.843 33.7508 12.4499C33.7739 7.68635 33.797 4.54147 31.8323 2.55279C30.1912 1.0266 27.5562 0.355997 22.9103 0.355997L22.8872 0.240377V0.355997L22.864 0.240377V0.355997C18.2412 0.355997 15.5831 1.0266 14.0345 2.59904C12.0698 4.58772 12.0929 7.7326 12.116 12.4962V13.6755C12.116 13.7218 12.116 13.7449 12.116 13.768C12.116 13.953 12.116 14.0686 12.116 14.1611V14.1842V14.2074C12.0466 14.5542 11.6537 16.381 11.7462 17.5835V17.676L11.6768 17.6991C10.6136 18.1153 9.92015 19.1328 9.92015 20.289C9.92015 21.6071 10.8216 22.717 12.0929 23.0177L12.1622 23.0408L12.1853 23.1102C12.8325 25.8851 14.1038 28.29 15.8605 30.0937L15.976 30.2093L15.8374 30.2786C14.1732 31.1574 10.4749 33.146 9.92015 33.4467C8.92625 33.9785 7.90923 34.5335 7.03089 35.0191C6.49927 35.3197 6.01388 35.5972 5.66717 35.8053C5.20489 36.0828 4.90441 36.2678 4.67326 36.4065C4.37278 36.5915 3.97983 36.7997 3.61001 37.0078C3.14773 37.2621 2.73168 37.4934 2.43119 37.7015L2.40807 37.7246C1.15991 38.6265 0.489604 39.9445 0.489604 44.3612V48.2461C0.489604 48.4773 0.651406 48.6623 0.882547 48.7086L0.975009 48.7317V51.5991C0.975009 51.8535 1.18304 52.0616 1.43729 52.0616C1.69155 52.0616 1.89957 51.8535 1.89957 51.5991V48.7317H6.08322V51.6916C6.08322 51.946 6.29124 52.1541 6.5455 52.1541C6.79976 52.1541 7.00778 51.946 7.00778 51.6916V44.2456C7.00778 44.13 7.00778 44.0144 7.00778 43.8756V43.8294C7.0309 42.3494 7.07712 39.5745 5.64404 38.1409C5.4129 37.9096 5.13553 37.7015 4.83505 37.5627L4.65014 37.4703L4.83505 37.3546C4.95062 37.2853 5.04309 37.239 5.13555 37.1696C5.34357 37.0309 5.66716 36.8459 6.10633 36.5915C6.45304 36.3834 6.93844 36.1059 7.47006 35.8284C8.00169 35.5278 8.57955 35.2041 9.18051 34.8803L9.3423 34.7878V51.6916C9.3423 51.946 9.55033 52.1541 9.80458 52.1541C10.0588 52.1541 10.2669 51.946 10.2669 51.6916V41.3782H13.4335L13.4566 41.4476C13.7109 42.0026 14.2656 42.3494 14.8666 42.3494H30.9078C31.5087 42.3494 32.0635 42.0026 32.3177 41.4476L32.3408 41.3782H35.5075V51.6916C35.5075 51.946 35.7155 52.1541 35.9697 52.1541C36.224 52.1541 36.432 51.946 36.432 51.6916V34.7647ZM44.4295 47.7836H39.6911V44.2687C39.6911 44.1531 39.6911 43.9913 39.6911 43.8525C39.668 42.5113 39.6449 39.9908 40.7775 38.8115C41.1704 38.3952 41.702 38.1871 42.3723 38.1871H42.3955L42.4186 38.2102C42.6266 38.3258 42.7653 38.4183 42.8577 38.4877L42.8809 38.5108C43.713 39.1121 44.4064 39.9677 44.4064 44.3844V47.7836H44.4295ZM39.9223 47.5524H44.1984V44.3612C44.1984 40.0602 43.5512 39.2508 42.7884 38.6727C42.7884 38.6727 42.7653 38.6496 42.7422 38.6496C42.6497 38.5802 42.511 38.5108 42.3492 38.3952C41.7714 38.4183 41.3091 38.6033 40.9624 38.9502C39.876 40.0602 39.9223 42.5113 39.9223 43.8294H39.8067H39.9223C39.9223 43.9913 39.9223 44.13 39.9223 44.2687V47.5524ZM6.08322 47.7836H1.34483V44.3612C1.34483 39.9445 2.03825 39.0889 2.84724 38.4877C2.87036 38.4877 2.87036 38.4646 2.89348 38.4646C2.98593 38.3952 3.14772 38.3027 3.33264 38.1871L3.35576 38.164H3.37887C4.04918 38.1871 4.55769 38.3952 4.97374 38.7883C6.12945 39.9445 6.08322 42.4651 6.06011 43.8294C6.06011 43.9913 6.06011 44.13 6.06011 44.2456V47.7836H6.08322ZM1.57597 47.5524H5.85208V44.2687C5.85208 44.1531 5.85208 43.9913 5.85208 43.8294H5.96765H5.85208C5.87519 42.5113 5.89831 40.0602 4.81194 38.9502C4.46523 38.6033 4.00295 38.4183 3.4251 38.3952C3.24018 38.4877 3.12461 38.5802 3.03215 38.6496C3.00904 38.6496 3.00904 38.6727 2.98592 38.6727C2.24627 39.2046 1.57597 40.037 1.57597 44.3381V47.5524ZM30.9078 41.4245H14.8666C14.5199 41.4245 14.2194 41.147 14.2194 40.777V32.1286L15.9529 31.2036L15.8836 31.458C15.2595 33.9785 15.9992 35.7822 16.7157 36.869C18.0332 38.8115 20.4371 40.0833 22.864 40.0833C25.291 40.0833 27.6949 38.8346 29.0124 36.869C29.7289 35.7822 30.4686 33.9785 29.8445 31.458L29.7752 31.2036L31.5087 32.1286V40.777C31.5318 41.1239 31.2545 41.4245 30.9078 41.4245ZM14.4736 32.2904V40.8001C14.4736 41.0314 14.6585 41.2164 14.8897 41.2164H30.9309C31.162 41.2164 31.3469 41.0314 31.3469 40.8001V32.2904L30.1912 31.6661C30.7228 34.1404 29.9832 35.9209 29.2667 37.0078C27.9029 39.0196 25.4297 40.3145 22.9334 40.3145C20.4371 40.3145 17.9407 39.0196 16.6001 37.0078C15.8836 35.9209 15.1439 34.1404 15.6756 31.6661L14.4736 32.2904ZM35.5075 40.4533H32.4564V38.1409H35.5075V40.4533ZM32.6875 40.222H35.2763V38.3721H32.6875V40.222ZM13.3179 40.4533H10.2669V38.1409H13.3179V40.4533ZM10.498 40.222H13.0868V38.3721H10.498V40.222ZM22.8872 39.1583C20.8069 39.1583 18.6342 38.0252 17.5016 36.3603C16.5308 34.9266 16.3228 33.146 16.9237 31.2267L16.97 31.0649L17.1086 31.1574C17.4322 31.3886 17.7327 31.6198 18.0563 31.8048C19.5125 32.6836 21.0843 33.1229 22.7485 33.1229H23.0258C24.6438 33.1229 26.2156 32.6836 27.6718 31.8048C27.9954 31.6198 28.319 31.3886 28.6657 31.1342L28.8044 31.0417L28.8506 31.2036C29.4516 33.146 29.2435 34.9266 28.2727 36.3603C27.1402 38.0252 24.9674 39.1583 22.8872 39.1583ZM17.0855 31.458C16.577 33.2385 16.785 34.9035 17.6865 36.2215C18.7729 37.8402 20.8531 38.9271 22.864 38.9271C24.875 38.9271 26.9552 37.8402 28.0416 36.2215C28.9431 34.8803 29.1511 33.2154 28.6426 31.4117C28.3421 31.643 28.0416 31.828 27.7642 31.9898C26.2618 32.8917 24.6669 33.331 22.9796 33.331H22.7254C21.038 33.331 19.4201 32.8685 17.9176 31.9667C17.6634 31.8511 17.3629 31.6661 17.0855 31.458ZM35.5075 37.2159H32.4564V32.6373L32.6182 32.7298C33.9126 33.4235 35.1145 34.071 35.415 34.2329L35.4843 34.256L35.5075 34.3254V37.2159ZM32.6875 36.9846H35.2763V34.3947C34.9065 34.1866 33.8432 33.6316 32.6875 33.0073V36.9846ZM13.3179 37.2159H10.2669V34.256L10.3362 34.2097C10.6367 34.0479 11.8386 33.4004 13.133 32.7067L13.2948 32.6142V37.2159H13.3179ZM10.498 36.9846H13.0868V33.0073C11.908 33.6316 10.8447 34.2097 10.498 34.3947V36.9846ZM23.0027 32.1979H22.7023C21.2461 32.1979 19.8361 31.8048 18.5186 31.0186C18.0794 30.7643 17.6171 30.4405 17.2011 30.0705L17.178 30.0474C17.1549 30.0243 17.1549 30.0012 17.1549 30.0012C17.1549 29.978 17.1318 29.978 17.1318 29.978L17.1086 29.9549C17.1086 29.9549 17.0855 29.9318 17.0624 29.9318L17.0393 29.9087C17.0162 29.9087 17.0162 29.8855 16.9931 29.8855L17.0393 29.7699L16.97 29.8624L16.9468 29.8393C15.0746 28.1281 13.6878 25.6076 13.0637 22.7633V22.7402V22.717C13.0637 22.6939 13.0637 22.6708 13.0637 22.6477C13.0637 22.5321 13.0174 22.4164 12.9481 22.3239C12.8788 22.2314 12.7401 22.1852 12.6245 22.1852C11.6306 22.1389 10.8447 21.3296 10.8447 20.3353C10.8447 19.4565 11.4688 18.6934 12.3471 18.5085C12.3702 18.5085 12.3702 18.5085 12.3934 18.5085L14.7279 17.9303C14.9128 17.8841 15.0284 17.7454 15.0746 17.5604L15.2595 16.566L15.8836 17.0516C15.9992 17.1441 16.161 17.1673 16.3228 17.121C18.7035 16.3579 20.7376 16.011 22.9334 16.0342C24.7132 16.011 26.4005 16.2423 28.2265 16.751C28.9662 16.936 29.7521 16.8898 30.4455 16.566L30.5842 16.4967L30.7922 17.5604C30.8153 17.7454 30.954 17.8841 31.1389 17.9303L33.4734 18.5085C33.4965 18.5085 33.4965 18.5085 33.5196 18.5085C34.398 18.6703 35.0221 19.4565 35.0221 20.3353C35.0221 21.3296 34.2362 22.1621 33.2423 22.1852C33.196 22.1852 33.1729 22.1852 33.1498 22.2083C33.1036 22.2314 33.0805 22.2314 33.0574 22.2314C33.0111 22.2546 32.988 22.2546 32.988 22.2777C32.9649 22.3008 32.9418 22.3239 32.9187 22.3471C32.8956 22.3702 32.8725 22.3933 32.8725 22.4164C32.8493 22.4396 32.8493 22.4627 32.8262 22.4858L32.7107 22.4627L32.8031 22.5089C32.8031 22.5089 32.8031 22.5321 32.8031 22.5552C32.179 25.5613 30.746 28.1975 28.7581 29.978C28.2959 30.3943 27.7874 30.7642 27.2788 31.088C25.8689 31.8048 24.482 32.1979 23.0027 32.1979ZM17.3629 29.8855C17.7789 30.2324 18.195 30.5561 18.6342 30.8105C19.9054 31.5736 21.2923 31.9667 22.7023 31.9667H23.0027C24.4127 31.9667 25.7764 31.5736 27.0708 30.8105C27.5793 30.5099 28.0647 30.1399 28.527 29.7237C30.4686 27.9894 31.9017 25.3994 32.5026 22.4396C32.5026 22.4164 32.5257 22.3933 32.5257 22.3702L32.5489 22.3239C32.572 22.3008 32.572 22.2546 32.5951 22.2314L32.6182 22.2083C32.6413 22.1852 32.6644 22.1389 32.6875 22.1158L32.7107 22.0927C32.7338 22.0696 32.7569 22.0464 32.78 22.0233L32.8725 22.0927L32.8031 22.0002C32.8262 21.9771 32.8493 21.954 32.8956 21.954L32.9187 21.9308C32.9418 21.9077 32.988 21.9077 33.0111 21.8846H33.0342C33.0805 21.8846 33.1036 21.8615 33.1498 21.8615C34.0513 21.8152 34.7216 21.0984 34.7216 20.2196C34.7216 19.4334 34.1668 18.7628 33.4041 18.6241C33.381 18.6241 33.381 18.6241 33.3578 18.6241L31.0233 18.046C30.7691 17.9766 30.561 17.7685 30.5148 17.5141L30.353 16.7279C29.6365 17.0285 28.8506 17.0748 28.1109 16.8666C26.2849 16.381 24.6207 16.1498 22.864 16.1729C20.6913 16.1729 18.6804 16.4967 16.3228 17.2597C16.1147 17.3291 15.8605 17.2829 15.6756 17.1441L15.352 16.8898L15.2364 17.5141C15.1902 17.7685 14.9822 17.9997 14.7279 18.046L12.3934 18.6241C12.3702 18.6241 12.3471 18.6241 12.324 18.6472C11.5613 18.7859 11.0296 19.4797 11.0296 20.2428C11.0296 21.1215 11.7231 21.8383 12.5783 21.8615C12.7632 21.8615 12.925 21.954 13.0637 22.0927C13.1792 22.2314 13.2486 22.4164 13.2486 22.6014C13.2486 22.6245 13.2486 22.6477 13.2486 22.6939C13.8727 25.4919 15.2133 27.9431 17.0393 29.6312C17.0624 29.6312 17.0855 29.6543 17.1086 29.6774C17.1318 29.6774 17.1318 29.7005 17.1549 29.7005C17.178 29.7237 17.2011 29.7237 17.2011 29.7468C17.2242 29.7699 17.2242 29.7699 17.2473 29.793C17.2704 29.8162 17.2704 29.8162 17.2936 29.8393C17.3398 29.8624 17.3629 29.8855 17.3629 29.8855ZM33.1498 17.4216L31.6012 17.0516L31.37 15.8723L32.8493 14.693L32.8956 14.878C33.0343 15.5717 33.1729 16.5891 33.1729 17.2829L33.1498 17.4216ZM31.7861 16.8435L32.9187 17.121C32.9187 16.5198 32.8031 15.7104 32.6875 15.0861L31.6243 15.9417L31.7861 16.8435ZM12.6245 17.4216V17.2829C12.6245 16.566 12.7632 15.5717 12.9019 14.878L12.9481 14.693L14.4043 15.8492L14.1732 17.0285L12.6245 17.4216ZM13.0868 15.0861C12.9712 15.7104 12.8556 16.4967 12.8556 17.121L13.9882 16.8435L14.1732 15.9417L13.0868 15.0861ZM16.2303 16.1035L13.2024 13.6986L13.2948 13.6061C14.0807 12.8662 16.5539 11.1781 22.8872 11.1781C28.1572 11.1781 31.3007 12.4268 32.5026 13.6061L32.5951 13.6986L30.5148 15.3636C29.937 15.8261 29.1511 15.9879 28.4345 15.8029C26.5161 15.2942 24.7594 15.063 22.9103 15.063C20.7144 15.0398 18.6573 15.3867 16.2997 16.1035H16.2303ZM13.5491 13.6755L16.2765 15.8492C18.6342 15.1323 20.6913 14.8086 22.8872 14.8086C24.7594 14.8086 26.5392 15.0398 28.4808 15.5486C29.128 15.7104 29.8214 15.5717 30.353 15.1555L32.2253 13.6524C31.0002 12.5424 27.9492 11.3862 22.8872 11.3862C16.8775 11.4093 14.4043 12.9355 13.5491 13.6755ZM13.0174 12.6349V12.4037C12.9943 7.91759 12.9712 4.9577 14.6817 3.24652C15.4675 2.46029 16.6695 1.92844 18.3568 1.6047L18.796 1.53533L18.4493 1.81282C16.4152 3.50088 15.3288 6.71514 15.2364 11.34V11.4093L15.1671 11.4325C14.4043 11.7331 13.7571 12.0799 13.2255 12.4731L13.0174 12.6349ZM14.8435 3.40838C13.2486 5.02707 13.2255 7.87134 13.2486 12.1724C13.7571 11.8256 14.3349 11.525 15.0053 11.2475C15.1208 6.83076 16.1147 3.709 17.987 1.90532C16.5539 2.22905 15.5369 2.71466 14.8435 3.40838ZM32.7569 12.6349L32.572 12.4962C32.0403 12.1031 31.37 11.7562 30.6304 11.4556L30.561 11.4325V11.3631C30.4686 6.73826 29.3822 3.54713 27.3482 1.83594L27.0015 1.55845L27.4406 1.62783C29.128 1.92844 30.3299 2.46029 31.1158 3.26964C32.8031 4.98083 32.8031 7.94072 32.78 12.4268L32.7569 12.6349ZM30.7691 11.2475C31.4394 11.525 32.0172 11.8256 32.5257 12.1724C32.5489 7.87134 32.5257 5.02707 30.9309 3.40838C30.2374 2.71466 29.2204 2.22905 27.7874 1.92844C29.6596 3.709 30.6766 6.85388 30.7691 11.2475ZM29.6134 11.0856L29.4516 11.0394C27.6255 10.5075 25.4297 10.23 22.864 10.23C20.3215 10.23 18.1025 10.5075 16.2765 11.0394L16.1147 11.0856V10.9237C16.3459 4.63396 18.4724 1.37346 22.4249 1.28096H22.5636C22.7485 1.28096 22.9334 1.28096 23.0952 1.28096H23.2339C27.2095 1.39658 29.336 4.63396 29.5671 10.9237L29.6134 11.0856ZM22.8872 10.0219C25.3835 10.0219 27.5562 10.2763 29.3822 10.785C29.128 4.72646 27.0939 1.62783 23.2801 1.5122H23.1414C22.9565 1.5122 22.7947 1.5122 22.6098 1.5122H22.4942C18.7035 1.6047 16.6464 4.72646 16.4152 10.785C18.195 10.2763 20.3908 10.0219 22.8872 10.0219Z" fill="black"/>
<path d="M19.2105 25.9776C18.9793 26.2088 18.9793 26.5788 19.2105 26.7869C20.135 27.7119 21.3601 28.2668 22.7007 28.3131C22.7238 28.3131 22.7469 28.3131 22.7469 28.3131H22.77H22.7931H22.8163C22.8163 28.3131 22.8163 28.3131 22.8394 28.3131C22.8394 28.3131 22.8394 28.3131 22.8625 28.3131H22.8856H22.9087H22.9318C22.9549 28.3131 22.9781 28.3131 22.9781 28.3131C24.2956 28.2437 25.5437 27.7119 26.4683 26.7869C26.6994 26.5557 26.6994 26.1857 26.4683 25.9776C26.2371 25.7463 25.8673 25.7463 25.6593 25.9776C24.9428 26.6944 23.9951 27.1106 22.9781 27.18C22.9549 27.18 22.9318 27.18 22.9318 27.18C22.9087 27.18 22.8856 27.18 22.8856 27.18C22.8856 27.18 22.8856 27.18 22.8625 27.18C22.8625 27.18 22.8625 27.18 22.8394 27.18C22.8163 27.18 22.7931 27.18 22.7931 27.18C22.77 27.18 22.7469 27.18 22.7469 27.18C21.7299 27.1338 20.7822 26.6944 20.0657 25.9776C19.8114 25.7463 19.4416 25.7463 19.2105 25.9776Z" fill="black"/>
<path d="M22.932 28.4287H22.8858C22.8858 28.4287 22.8627 28.4287 22.8396 28.4287H22.7702H22.7471H22.724C22.724 28.4287 22.7009 28.4287 22.6778 28.4287C21.3371 28.3593 20.0659 27.8044 19.1182 26.8563C18.9795 26.7175 18.9102 26.5557 18.9102 26.3707C18.9102 26.1857 18.9795 26.0007 19.1182 25.8851C19.2569 25.7463 19.4187 25.6769 19.6036 25.6769C19.7885 25.6769 19.9734 25.7463 20.089 25.8851C20.7824 26.5788 21.707 26.995 22.7009 27.0413C22.724 27.0413 22.7471 27.0413 22.7471 27.0413H22.7933L22.8164 27.1569V27.0413C22.8396 27.0413 22.8627 27.0413 22.8858 27.0413C22.8858 27.0413 22.9089 27.0413 22.932 27.0413C23.9259 26.995 24.8505 26.5788 25.5439 25.8851C25.6826 25.7463 25.8444 25.6769 26.0293 25.6769C26.2142 25.6769 26.376 25.7463 26.5147 25.8851C26.6534 26.0238 26.7227 26.1857 26.7227 26.3707C26.7227 26.5557 26.6534 26.7407 26.5147 26.8563C25.567 27.8044 24.2957 28.3593 22.9551 28.4287C23.0014 28.4287 22.9782 28.4287 22.932 28.4287C22.9551 28.4287 22.9551 28.4287 22.932 28.4287ZM22.9782 28.2206C22.9782 28.1975 23.0013 28.1975 22.9782 28.2206V28.1975V28.2206C23.0013 28.1975 23.0013 28.1975 22.9782 28.2206C24.2957 28.1512 25.4977 27.6194 26.3991 26.6944C26.4916 26.6019 26.5378 26.4863 26.5378 26.3707C26.5378 26.255 26.4916 26.1394 26.3991 26.0469C26.3067 25.9544 26.1911 25.9082 26.0755 25.9082C25.96 25.9082 25.8444 25.9544 25.7519 26.0469C25.0123 26.7869 24.0415 27.2263 23.0014 27.2725H22.9782C22.9551 27.2725 22.9551 27.2725 22.932 27.2725C22.9089 27.2725 22.8858 27.2725 22.8858 27.2725H22.8627C22.8395 27.2725 22.8164 27.2725 22.7933 27.2725C22.7702 27.2725 22.7471 27.2725 22.7471 27.2725C21.6838 27.2263 20.7131 26.7869 19.9734 26.0469C19.8809 25.9544 19.7654 25.9082 19.6498 25.9082C19.5111 25.9082 19.4187 25.9544 19.3262 26.0469C19.2338 26.1394 19.1875 26.255 19.1875 26.3707C19.1875 26.4863 19.2338 26.6019 19.3262 26.6944C20.2277 27.5962 21.4296 28.1281 22.724 28.1975C22.7471 28.1975 22.7471 28.1975 22.7702 28.1975H22.7933H22.8164H22.8858H22.9089H22.9551L22.9782 28.2206C22.9782 28.1975 22.9782 28.1975 22.9782 28.2206C22.9782 28.1975 22.9782 28.1975 22.9782 28.2206C22.9782 28.1975 22.9782 28.1975 22.9782 28.2206Z" fill="black"/>
<path d="M25.8925 20.0115C26.2392 19.6647 26.7246 19.4565 27.2331 19.4565C27.7416 19.4565 28.227 19.6647 28.5969 20.0346C28.7124 20.1503 28.8511 20.1965 29.0129 20.1965C29.1516 20.1965 29.3134 20.1503 29.429 20.0346C29.6601 19.8034 29.6601 19.4334 29.429 19.2253C28.8511 18.6241 28.0652 18.3003 27.2331 18.3003C26.4241 18.3003 25.6383 18.6241 25.0835 19.1791C24.8524 19.4103 24.8524 19.7803 25.0835 19.9884C25.2915 20.2196 25.6614 20.2196 25.8925 20.0115Z" fill="black"/>
<path d="M29.0114 20.3121C28.8265 20.3121 28.6416 20.2428 28.526 20.104C28.1793 19.7572 27.7171 19.5722 27.2317 19.5722C26.7463 19.5722 26.3071 19.7572 25.9835 20.0809C25.8448 20.2196 25.683 20.289 25.4981 20.289C25.3132 20.289 25.1283 20.2196 25.0127 20.0809C24.874 19.9421 24.8047 19.7803 24.8047 19.5953C24.8047 19.4103 24.874 19.2253 25.0127 19.1097C25.5906 18.5316 26.4227 18.1847 27.2548 18.1847C28.11 18.1847 28.919 18.5316 29.52 19.1328C29.7973 19.4103 29.7973 19.8496 29.52 20.104C29.3582 20.2428 29.1964 20.3121 29.0114 20.3121ZM27.2317 19.3409C27.7864 19.3409 28.2949 19.549 28.6878 19.9421C28.8728 20.1271 29.1732 20.1271 29.335 19.9421C29.5199 19.7571 29.5199 19.4797 29.335 19.2947C28.7803 18.7166 28.0175 18.4159 27.2317 18.4159C26.4458 18.4159 25.683 18.7166 25.1514 19.2715C25.0589 19.364 25.0127 19.4797 25.0127 19.5953C25.0127 19.7109 25.0589 19.8265 25.1514 19.919C25.2439 20.0115 25.3594 20.0578 25.475 20.0578C25.5906 20.0578 25.7061 20.0115 25.7986 19.919C26.1684 19.549 26.7 19.3409 27.2317 19.3409Z" fill="black"/>
<path d="M16.7144 20.1965C16.8531 20.1965 17.0149 20.1503 17.1305 20.0346C17.5003 19.6647 17.9857 19.4565 18.4942 19.4565C19.0027 19.4565 19.4881 19.6647 19.8348 20.0115C20.0659 20.2428 20.4358 20.2428 20.6438 20.0115C20.8749 19.7803 20.8749 19.4103 20.6438 19.2022C20.0891 18.6472 19.3032 18.3235 18.4942 18.3235C17.6621 18.3235 16.8993 18.6472 16.2984 19.2484C16.0672 19.4797 16.0672 19.8497 16.2984 20.0578C16.4139 20.1503 16.5526 20.1965 16.7144 20.1965Z" fill="black"/>
<path d="M16.7149 20.3121C16.53 20.3121 16.3682 20.2428 16.2295 20.104C15.9521 19.8265 15.9521 19.3872 16.2295 19.1328C16.8305 18.5084 17.6395 18.1847 18.4947 18.1847C19.3268 18.1847 20.1589 18.5316 20.7368 19.1097C20.8755 19.2484 20.9448 19.4103 20.9448 19.5953C20.9448 19.7803 20.8755 19.9653 20.7368 20.0809C20.5981 20.2196 20.4363 20.289 20.2514 20.289C20.0665 20.289 19.8815 20.2196 19.766 20.0809C19.4424 19.7572 18.9801 19.5722 18.5178 19.5722C18.0324 19.5722 17.5701 19.7572 17.2234 20.104C17.0616 20.2428 16.8998 20.3121 16.7149 20.3121ZM18.4947 18.4159C17.6857 18.4159 16.946 18.7397 16.3913 19.2947C16.2064 19.4797 16.2064 19.7803 16.3913 19.9421C16.5762 20.1271 16.8767 20.104 17.0385 19.9421C17.4314 19.549 17.94 19.3409 18.4947 19.3409C19.0263 19.3409 19.558 19.549 19.9278 19.919C20.0202 20.0115 20.1358 20.0578 20.2514 20.0578C20.3669 20.0578 20.4825 20.0115 20.575 19.919C20.6674 19.8265 20.7137 19.7109 20.7137 19.5953C20.7137 19.4797 20.6674 19.364 20.575 19.2715C20.0202 18.7166 19.2806 18.4159 18.4947 18.4159Z" fill="black"/>
<path d="M31.9945 44.8237H13.7575C13.4339 44.8237 13.1797 45.0781 13.1797 45.4018C13.1797 45.5175 13.1797 45.6099 13.2028 45.7256V45.7487V51.6916C13.2028 52.0153 13.4571 52.2697 13.7806 52.2697C14.1042 52.2697 14.3585 52.0153 14.3585 51.6916V48.6161C15.2831 49.7029 16.6468 50.3966 18.1723 50.3966H27.6029C29.1284 50.3966 30.4921 49.7029 31.4167 48.6161V51.6916C31.4167 52.0153 31.6709 52.2697 31.9945 52.2697C32.3181 52.2697 32.5724 52.0153 32.5724 51.6916V45.7487V45.7256C32.5724 45.6099 32.5955 45.5175 32.5955 45.4018C32.5724 45.1012 32.3181 44.8237 31.9945 44.8237ZM27.6029 49.2404H18.1723C16.2539 49.2404 14.659 47.8299 14.3816 46.0031H31.3705C31.0931 47.8299 29.5213 49.2404 27.6029 49.2404Z" fill="black"/>
<path d="M31.9932 52.3853C31.6003 52.3853 31.2998 52.0847 31.2998 51.6916V48.9167C30.329 49.9342 29.0115 50.5123 27.6016 50.5123H18.171C16.7611 50.5123 15.4436 49.9342 14.4728 48.9167V51.6916C14.4728 52.0847 14.1723 52.3853 13.7794 52.3853C13.3864 52.3853 13.0859 52.0847 13.0859 51.6916V45.6562C13.0859 45.5637 13.0859 45.4943 13.0859 45.4018C13.0859 45.0087 13.3864 44.7081 13.7794 44.7081H32.0164C32.4093 44.7081 32.7098 45.0087 32.7098 45.4018C32.7098 45.4943 32.7098 45.5637 32.7098 45.6562V45.7256V51.6916C32.6867 52.0847 32.3631 52.3853 31.9932 52.3853ZM31.531 48.2923V51.6916C31.531 51.946 31.739 52.1541 31.9932 52.1541C32.2475 52.1541 32.4555 51.946 32.4555 51.6916V45.6562C32.4555 45.5868 32.4555 45.4943 32.4555 45.4249C32.4555 45.1706 32.2475 44.9625 31.9932 44.9625H13.7563C13.502 44.9625 13.294 45.1706 13.294 45.4249C13.294 45.4943 13.294 45.5868 13.294 45.6562V45.7487V45.7718V51.7147C13.294 51.9691 13.502 52.1772 13.7563 52.1772C14.0105 52.1772 14.2185 51.9691 14.2185 51.7147V48.3155L14.4266 48.5467C15.3511 49.6567 16.7149 50.281 18.1479 50.281H27.5785C29.0115 50.281 30.3753 49.6567 31.2998 48.5467L31.531 48.2923ZM27.6016 49.356H18.171C16.2295 49.356 14.5652 47.9224 14.2648 46.003L14.2416 45.8643H31.5079L31.4848 46.003C31.2074 47.9224 29.52 49.356 27.6016 49.356ZM14.519 46.0955C14.8426 47.8299 16.3913 49.1017 18.171 49.1017H27.6016C29.3814 49.1017 30.9069 47.8067 31.2536 46.0955H14.519Z" fill="black"/>
</svg>
