<svg width="46" height="50" viewBox="0 0 46 50" fill="none" xmlns="http://www.w3.org/2000/svg">
<path d="M27.7979 25.6938C27.3507 25.6938 26.993 26.0517 26.993 26.499V37.8844H2.62239V6.99406H26.993V18.3794C26.993 18.8268 27.3507 19.1847 27.7979 19.1847C28.245 19.1847 28.6028 18.8268 28.6028 18.3794V4.08621C28.6028 2.11782 26.993 0.507324 25.0254 0.507324H4.56757C2.60003 0.507324 0.990234 2.11782 0.990234 4.08621V45.6908C0.990234 47.6592 2.60003 49.2697 4.56757 49.2697H25.0254C26.993 49.2697 28.6028 47.6592 28.6028 45.6908V26.499C28.6028 26.0517 28.245 25.6938 27.7979 25.6938ZM4.56757 2.14019H25.0254C26.0986 2.14019 26.9706 3.01255 26.9706 4.08621V5.38356H2.60003V4.08621C2.60003 3.01255 3.49437 2.14019 4.56757 2.14019ZM25.0254 47.6368H4.56757C3.49437 47.6368 2.62239 46.7645 2.62239 45.6908V39.5172H26.993V45.6908C26.9706 46.7645 26.0986 47.6368 25.0254 47.6368Z" fill="black"/>
<path d="M14.7858 40.3225C12.9971 40.3225 11.5215 41.7764 11.5215 43.5658C11.5215 45.3553 12.9748 46.8316 14.7858 46.8316C16.5745 46.8316 18.0278 45.3777 18.0278 43.5658C18.0501 41.7764 16.5745 40.3225 14.7858 40.3225ZM14.7858 45.1987C13.8915 45.1987 13.1536 44.4606 13.1536 43.5658C13.1536 42.6711 13.8915 41.933 14.7858 41.933C15.6801 41.933 16.418 42.6711 16.418 43.5658C16.418 44.4606 15.6801 45.1987 14.7858 45.1987Z" fill="black"/>
<path d="M11.5432 4.55595H14.8075C15.2547 4.55595 15.6124 4.19806 15.6124 3.7507C15.6124 3.30334 15.2547 2.94545 14.8075 2.94545H11.5432C11.096 2.94545 10.7383 3.30334 10.7383 3.7507C10.7383 4.19806 11.096 4.55595 11.5432 4.55595Z" fill="black"/>
<path d="M17.2229 4.55595H18.0278C18.4749 4.55595 18.8327 4.19806 18.8327 3.7507C18.8327 3.30334 18.4749 2.94545 18.0278 2.94545H17.2229C16.7757 2.94545 16.418 3.30334 16.418 3.7507C16.418 4.19806 16.7757 4.55595 17.2229 4.55595Z" fill="black"/>
<path d="M45.5954 22.7636C45.6848 22.5623 45.6848 22.3386 45.5954 22.1373C45.5506 22.0478 45.5059 21.9359 45.4165 21.8688L35.6683 12.1164C35.3552 11.8032 34.841 11.8032 34.528 12.1164C34.215 12.4295 34.215 12.944 34.528 13.2571L42.89 21.6228H13.9807C13.5335 21.6228 13.1758 21.9807 13.1758 22.428C13.1758 22.8754 13.5335 23.2333 13.9807 23.2333H42.89L34.528 31.599C34.215 31.9121 34.215 32.4266 34.528 32.7397C34.6845 32.8963 34.8857 32.9858 35.1093 32.9858C35.3105 32.9858 35.5117 32.8963 35.6906 32.7397L45.4389 22.9872C45.5059 22.9425 45.5506 22.853 45.5954 22.7636Z" fill="black"/>
</svg>
