<svg width="203" height="214" fill="none" xmlns="http://www.w3.org/2000/svg"><g clip-path="url(#clip0)" fill="#FFC73F"><path d="M7.44 156.983l-.387-.221v1.008l-.852-.488v.432l.852.487v1.019l.388.232v-1.018l.841.487v-.443l-.841-.487v-1.008z"/><path d="M7.627 64.72c-.852-.498-1.682-.742-2.457-.742-1.937 0-3.188 1.561-3.188 3.964v87.192c0 3.289 2.336 7.308 5.191 8.969.853.498 1.683.742 2.457.742.952 0 1.76-.377 2.325-1.085.564-.698.863-1.695.863-2.879V73.688c0-3.288-2.324-7.307-5.19-8.968zm-3.74 21.535l1.97 1.14-.61.355-1.97-1.14.61-.355zm4.415 2.558l1.97 1.14-.608.354-1.97-1.14.608-.354zm-.874 15.401a.325.325 0 0 1-.022-.1c-.022-.066-.044-.155-.078-.243-.033-.078-.066-.177-.121-.266-.056-.089-.1-.177-.166-.266l-.1-.133c-.033-.044-.078-.088-.11-.121l-.056-.067-.033-.033-.033-.033a.8.8 0 0 0-.155-.122c-.056-.044-.089-.055-.133-.089l-.067-.033-.033-.022-.022-.011h-.011l-.022-.011a1.253 1.253 0 0 0-.365-.111.874.874 0 0 0-.41.044.726.726 0 0 0-.299.233c-.01.022-.022.044-.044.055l-2.092-1.207V86.997l1.97 1.14v.122c0 .033.011.067.011.1.011.066.022.144.045.232.022.078.044.166.088.255.044.088.078.188.133.277.022.044.055.088.077.144l.1.133.055.066c.011.022.034.044.056.066.044.045.088.089.132.144.056.056.078.067.122.111l.056.044.033.022.022.012.01.01.023.012c.11.066.233.121.376.155a.904.904 0 0 0 .454-.011.762.762 0 0 0 .377-.255.797.797 0 0 0 .166-.266l2.07 1.174v14.681l-2.004-1.151zM6.133 87.739c.089.365.277.72.531 1.007a.463.463 0 0 0-.077.255v.177c0 .022-.011.044-.011.055 0 .011 0 .023-.011.023 0 .01-.034.022-.067.022a.372.372 0 0 1-.166-.045H6.31a.034.034 0 0 0 .022.011l-.033-.022-.066-.033c-.045-.022-.1-.055-.111-.077-.022-.022-.055-.045-.078-.067-.033-.01-.055-.055-.088-.077l-.089-.089c-.022-.033-.055-.066-.077-.1-.055-.066-.089-.132-.133-.199-.044-.066-.066-.133-.088-.188-.034-.055-.045-.11-.056-.166-.01-.022-.022-.044-.022-.067 0-.022-.011-.033-.011-.055l.653-.365zm3.741 17.626V90.684l.609-.355v14.682l-.609.354zm2.059 55.516c0 .974-.233 1.782-.664 2.325-.399.498-.963.753-1.639.753-.608 0-1.306-.211-2.014-.62-2.623-1.517-4.748-5.193-4.748-8.205v-52.537l2.147 1.24a.384.384 0 0 0 .221.056.494.494 0 0 0 .222-.056l.73-.42c.011.011.011.022.022.022l.023.022.022.022.033.056.066.099c.022.033.034.067.056.1.044.066.066.144.088.199.033.067.033.133.056.188.022.056.022.111.022.155 0 .022.01.045.01.067v.254c.023.211.211.377.41.388l2.435 1.406c.011.011.022.011.045.022 0 0 .01 0 .01.011.012 0 .012 0 .023.011.044.023.1.023.144.023.055 0 .1-.012.155-.034h.01c.012 0 .012-.011.023-.011.01 0 .022-.011.033-.022l1.273-.731.01-.011c.012-.011.023-.022.045-.033.011-.011.022-.022.033-.022l.034-.033c.01-.011.022-.022.022-.034.01-.011.01-.022.022-.033.01-.011.01-.022.022-.033.011-.011.011-.022.011-.044 0-.011.011-.022.011-.045 0-.011 0-.022.011-.044V89.82a.475.475 0 0 0-.221-.387l-2.634-1.517c-.011 0-.011-.011-.023-.011-.01 0-.01-.011-.022-.011-.022-.011-.044-.023-.066-.023-.022-.01-.044-.01-.078-.01H8.225c-.022 0-.044.01-.078.01-.01 0-.01 0-.022.012l-.066.033-.642.365c-.277-.254-.487-.675-.487-1.018a.475.475 0 0 0-.221-.388l-2.635-1.517s-.01 0-.01-.01c-.012-.012-.034-.012-.045-.023-.011 0-.022-.011-.033-.011-.011 0-.033-.011-.045-.011-.01 0-.033-.011-.044-.011H3.81c-.011 0-.034 0-.045.01-.01 0-.022 0-.044.012-.011 0-.022.011-.033.011-.011.011-.033.011-.044.022 0 0-.011 0-.011.011l-.786.454v-17.87c0-1.893.885-3.078 2.302-3.078.609 0 1.306.21 2.014.62 2.623 1.517 4.749 5.193 4.749 8.204v87.193h.022zM57.113 117.08l-.398-.233c.199-1.151.298-2.28.298-3.354 0-4.064-1.394-7.109-3.929-8.57l-3.652-2.104s-.011 0-.011-.011l-.011-.011c-2.557-1.462-5.922-1.129-9.475.919-3.475 2.004-6.74 5.447-9.197 9.677-2.446 4.229-3.797 8.758-3.797 12.755 0 4.063 1.395 7.108 3.93 8.57h.01l3.653 2.103c.011 0 .011.011.022.011l.011.011c1.052.598 2.236.897 3.52.897 1.837 0 3.863-.609 5.955-1.815a19.66 19.66 0 0 0 2.69-1.872l6.197 3.577c.277.155.587.243.919.243.443 0 .93-.144 1.417-.432 1.616-.93 2.889-3.122 2.889-4.982v-13.287c-.045-.985-.399-1.727-1.04-2.092zm-4.992 5.159v13.287c0 .232.023.454.067.653l-5.313-3.067-4.76-2.746c-.353-.199-.553-.675-.553-1.328v-13.287c0-1.539 1.096-3.421 2.447-4.196.608-.354 1.173-.388 1.549-.1a.494.494 0 0 0 .21.089l9.751 5.636c-.199.066-.41.155-.62.276-1.538.886-2.778 3.034-2.778 4.783zm-11.444 4.617c-.985-.376-1.56-1.461-1.56-3.033 0-1.55.575-3.366 1.56-4.983v8.016zm-12.872-.719c0-7.939 5.633-17.66 12.551-21.657 3.265-1.893 6.32-2.215 8.589-.919 0 0 .01 0 .01.011l.012.011 1.162.675c-1.959-.155-4.172.432-6.464 1.761-7.094 4.097-12.872 14.072-12.872 22.233 0 2.613.587 4.783 1.682 6.377l-1.14-.664c-2.28-1.296-3.53-4.075-3.53-7.828zm15.76 9.012c-3.264 1.894-6.32 2.215-8.588.919 0 0-.011 0-.011-.011l-.011-.011-1.384-.797c-1.505-1.539-2.324-3.964-2.324-7.008 0-8.017 5.678-17.815 12.662-21.846 2.678-1.55 5.224-2.059 7.338-1.517l1.361.787c2.27 1.295 3.52 4.074 3.52 7.828 0 .918-.077 1.893-.232 2.878l-9.829-5.669a.315.315 0 0 0-.133-.044c-.653-.399-1.527-.343-2.38.144-1.615.93-2.888 3.111-2.888 4.971v1.495c-1.527 2.015-2.446 4.451-2.446 6.566 0 2.092.93 3.565 2.446 3.953v1.273c0 .985.354 1.727.996 2.092l4.195 2.425a17.473 17.473 0 0 1-2.291 1.572zm13.659-2.69c0 1.517-1.118 3.443-2.446 4.207-.565.321-1.085.399-1.45.189l-.576-.333c-.133-.265-.199-.597-.199-.985v-13.286c0-1.617 1.14-3.588 2.557-4.407.343-.199.675-.31.974-.332l.575.332c.355.21.554.675.554 1.328v13.287h.01z"/><path d="M7.352 67.665c-.366-.21-.73-.321-1.063-.321-.841 0-1.394.675-1.394 1.727 0 1.418.996 3.145 2.235 3.853.366.21.73.321 1.063.321.841 0 1.394-.675 1.394-1.727 0-1.417-.996-3.144-2.235-3.853zm.852 5.126c-.255 0-.542-.088-.841-.265-1.107-.642-2.015-2.193-2.015-3.466 0-.797.355-1.284.952-1.284.255 0 .543.088.841.266 1.107.642 2.015 2.192 2.015 3.465-.011.808-.365 1.284-.952 1.284z"/><path d="M7.44 69.171l-.387-.233v1.02l-.852-.488v.432l.852.487v1.019l.388.232v-1.019l.841.488v-.443l-.841-.487V69.17zM7.352 155.478c-.366-.211-.73-.322-1.063-.322-.841 0-1.394.676-1.394 1.728 0 1.417.996 3.144 2.235 3.853.366.21.73.321 1.063.321.841 0 1.394-.675 1.394-1.727 0-1.418-.996-3.145-2.235-3.853zm.852 5.137c-.255 0-.542-.089-.841-.266-1.107-.642-2.015-2.192-2.015-3.465 0-.797.355-1.285.952-1.285.255 0 .543.089.841.266 1.107.642 2.015 2.192 2.015 3.466-.011.797-.365 1.284-.952 1.284z"/><path d="M125.78 65.183c0-2.735-1.937-6.079-4.316-7.463-1.24-.72-2.424-.819-3.343-.298h-.011L84.618 76.787V15.713v-.022-.022c0-.022-.011-.045-.011-.078-.011-.022-.011-.044-.022-.066 0-.011-.011-.011-.011-.022-.011-.023-.023-.045-.034-.056v-.01c-.01-.023-.033-.034-.055-.056l-.011-.011a.23.23 0 0 0-.066-.044l-13.67-7.884a.45.45 0 0 0-.442 0L.356 47.844c-.01.011-.022.011-.033.022 0 0-.011 0-.011.011-.022.011-.033.034-.055.056l-.012.01c-.033.045-.055.09-.077.134 0 .01 0 .01-.011.022-.011.022-.011.044-.022.077V168.22c0 .155.088.31.221.387l13.658 7.884a.39.39 0 0 0 .222.055c.033 0 .077 0 .11-.011h.011c.011 0 .034-.011.045-.011 0 0 .01 0 .01-.011.012-.011.023-.011.045-.022l69.94-40.391a.448.448 0 0 0 .22-.388V91.169l39.735-22.952.012-.011c.918-.532 1.416-1.606 1.416-3.023zm-4.77-6.688c2.136 1.24 3.874 4.241 3.874 6.688 0 1.096-.343 1.893-.974 2.248L69.477 98.875l-.067.034a5.309 5.309 0 0 1-2.457.708V88.002l51.6-29.794c.631-.366 1.505-.266 2.457.288zM31.325 94.138c-2.27-1.296-3.52-4.075-3.52-7.829 0-7.938 5.634-17.66 12.551-21.657 3.265-1.893 6.32-2.214 8.59-.918 0 0 .01 0 .01.01l.011.012 1.163.675c-1.96-.155-4.173.432-6.464 1.76-7.095 4.097-12.872 14.073-12.872 22.233 0 2.613.586 4.783 1.682 6.378l-1.151-.665zm3.652 2.103s-.01 0-.01-.01l-.012-.012-1.383-.797c-1.506-1.54-2.325-3.964-2.325-7.009 0-8.016 5.678-17.815 12.662-21.845 2.679-1.55 5.224-2.06 7.338-1.517l1.362.786c2.269 1.296 3.52 4.075 3.52 7.817 0 2.093-.388 4.33-1.14 6.654l-2.845-1.638v-.022c.022-.133.066-.288.089-.477.033-.188.066-.387.1-.62.021-.232.054-.487.077-.741.01-.133.01-.266.022-.399 0-.066.01-.133.01-.21v-.222c0-.144 0-.288-.01-.443a5.926 5.926 0 0 1-.022-.454c-.023-.155-.034-.31-.056-.454-.022-.154-.055-.31-.077-.465-.022-.155-.067-.31-.1-.454-.033-.154-.088-.299-.133-.454-.044-.143-.11-.287-.166-.431-.055-.144-.121-.277-.188-.421a4.386 4.386 0 0 0-.221-.388c-.078-.121-.166-.243-.244-.354a32.16 32.16 0 0 1-.254-.32c-.089-.1-.177-.19-.266-.278a4.284 4.284 0 0 0-.52-.431c-.155-.122-.332-.21-.454-.288a.084.084 0 0 0-.044-.023c-.011-.01-.022-.01-.044-.022-.023-.01-.056-.022-.078-.033a1.077 1.077 0 0 0-.122-.055c-.066-.033-.1-.045-.1-.045-.01 0-.01-.01-.021-.01h-.012c-1.627-.632-3.685-.322-5.766.885-4.737 2.735-8.589 9.39-8.589 14.826 0 2.38.753 4.296 2.103 5.37l.1.066c.066.044.155.11.276.188.133.067.277.166.465.244.177.088.399.166.631.232.122.034.244.067.376.089.133.022.266.044.41.066l.432.034c.144 0 .299 0 .442-.011.155-.012.3-.023.454-.045.155-.022.31-.044.454-.077.155-.034.31-.067.454-.111.155-.044.299-.089.453-.144.144-.055.288-.11.443-.166.144-.067.288-.122.42-.188.277-.133.554-.277.798-.41.066-.033.122-.066.177-.1l.044-.022.022-.01.011-.012.022-.01.089-.056c.122-.078.232-.144.343-.222.11-.066.21-.144.31-.221.1-.078.2-.144.288-.21.188-.133.343-.277.498-.4.144-.121.266-.22.365-.31l.022-.021 2.834 1.638c-1.627 1.783-3.354 3.211-5.147 4.241-3.254 1.927-6.298 2.248-8.567.952zM45.89 75.07c-.01 0-.01-.01 0 0-.01 0-.01 0-.01-.01-.92-.521-2.104-.422-3.343.298-2.38 1.373-4.317 4.717-4.317 7.463 0 1.417.498 2.48 1.406 3.011l.01.012 4.793 2.768c-.586.487-1.184.907-1.782 1.262-1.627.94-3.21 1.295-4.538 1.03a4.048 4.048 0 0 0-.177-.111c-.1-.067-.166-.122-.22-.166a1.891 1.891 0 0 0-.078-.056c-1.14-.908-1.771-2.58-1.771-4.683 0-5.16 3.652-11.46 8.146-14.05 1.86-1.075 3.641-1.363 5.014-.82.01.011.044.022.077.033.033.011.078.033.122.056.022.01.044.022.077.033.011.01.023.01.045.022.01.011.022.011.033.022.055.033.11.055.166.089.874 1.007 1.361 2.524 1.361 4.373 0 .709-.066 1.462-.21 2.226L46.92 75.69l-1.03-.62zm-.442 14.117a2.752 2.752 0 0 1-.266.2c-.144.1-.299.232-.487.354a12.06 12.06 0 0 0-.288.188c-.1.067-.199.133-.31.2l-.332.199-.088.055-.033.022-.045.022c-.066.033-.121.067-.188.1a9.614 9.614 0 0 1-.764.354c-.132.056-.265.1-.398.155-.133.045-.277.089-.41.133a5.93 5.93 0 0 0-.42.11 5.638 5.638 0 0 1-.42.078c-.134.022-.277.034-.41.056-.133.01-.266.01-.399.022-.133 0-.254-.011-.387-.011-.066-.011-.133-.011-.2-.022 1.03-.111 2.137-.499 3.255-1.14a13.211 13.211 0 0 0 1.97-1.407l.62.332zm6.42-12.777v.399c-.012.254-.034.487-.045.708-.022.222-.044.421-.066.598-.011.122-.034.222-.045.321l-.609-.354c.167-.853.244-1.683.244-2.47 0-1.272-.221-2.402-.63-3.332.043.055.088.11.12.166.067.111.134.21.2.321.056.122.122.233.177.355.056.121.11.243.166.376.044.133.1.266.133.399s.078.276.11.41c.034.143.067.276.09.42.021.144.044.288.066.42.01.145.033.289.044.422.011.144.011.276.022.42 0 .067.011.133.011.2.011.088.011.155.011.221zm12.196 22.487c-.044-.022-.088-.033-.121-.044l-14.311-8.26-8.523-4.927-1.018-.587c-.631-.354-.974-1.162-.974-2.247 0-2.458 1.737-5.459 3.874-6.688.951-.553 1.826-.653 2.457-.299L66.52 88.014v11.603a5.282 5.282 0 0 1-2.457-.72zM14.236 55.595L1.463 48.22l11.245-6.489 2.358 1.362 8.245 4.761 2.17 1.251-11.245 6.489zm66.563-41.321L23.411 47.412l-7.803-4.506L72.996 9.778l7.803 4.496zM25.912 48.852l-2.058-1.185 57.388-33.139 2.048 1.185-57.378 33.139zM70.517 8.339l2.037 1.174L15.176 42.65l-2.025-1.173L70.517 8.339zM1.02 48.996l12.773 7.374v118.969L1.02 167.954V48.996zm82.712 86.45l-69.054 39.882V56.37l69.054-39.882v60.819l-17 9.799-10.98-6.345c.82-2.48 1.24-4.86 1.24-7.108 0-4.063-1.395-7.108-3.93-8.57h-.01l-3.653-2.103s-.011 0-.011-.011l-.011-.011c-2.557-1.462-5.922-1.13-9.474.919-3.476 2.003-6.74 5.447-9.198 9.676-2.446 4.23-3.796 8.758-3.796 12.755 0 4.064 1.394 7.109 3.929 8.57h.01l3.653 2.104c.011 0 .011.011.023.011l.01.011c1.052.598 2.236.897 3.52.897 1.837 0 3.863-.609 5.955-1.816 1.926-1.107 3.774-2.646 5.49-4.561l14.111 8.148c.045.023.09.045.133.045a6.183 6.183 0 0 0 6.054-.011l.067-.034 13.868-8.005v43.779z"/></g><g clip-path="url(#clip1)" fill="#000"><path d="M104.313 132.578c-.616-.359-1.216-.535-1.776-.535-1.4 0-2.305 1.125-2.305 2.855v62.801c0 2.369 1.689 5.264 3.753 6.46.616.359 1.216.534 1.777.534.688 0 1.272-.271 1.68-.781.408-.503.624-1.22.624-2.074v-62.801c0-2.368-1.68-5.263-3.753-6.459zm-2.704 15.511l1.424.821-.44.255-1.424-.821.44-.255zm3.192 1.842l1.425.821-.44.255-1.425-.821.44-.255zm-.632 11.093a.234.234 0 0 1-.016-.072c-.016-.048-.032-.112-.056-.176-.024-.055-.048-.127-.088-.191-.04-.064-.072-.128-.12-.191l-.072-.096c-.024-.032-.056-.064-.08-.088l-.04-.048-.024-.024-.024-.023a.604.604 0 0 0-.112-.088c-.04-.032-.064-.04-.096-.064l-.048-.024-.024-.016-.016-.008h-.008l-.016-.008a.923.923 0 0 0-.264-.08.628.628 0 0 0-.296.032.523.523 0 0 0-.216.168c-.008.016-.016.032-.032.04l-1.512-.87v-10.574l1.424.821v.088c0 .024.008.048.008.072.008.048.016.104.032.167.016.056.032.12.064.184s.056.135.096.199c.016.032.04.064.056.104l.072.095.04.048c.008.016.024.032.04.048.032.032.064.064.096.104.04.04.056.048.088.08l.04.031.024.016.016.008.008.008.016.008c.08.048.168.088.272.112a.653.653 0 0 0 .328-.008.556.556 0 0 0 .272-.183.576.576 0 0 0 .12-.192l1.497.846v10.574l-1.449-.829zm-.936-11.867c.064.263.2.519.384.726a.333.333 0 0 0-.056.183v.128c0 .016-.008.032-.008.04s0 .016-.008.016c0 .008-.024.016-.048.016a.269.269 0 0 1-.12-.032h-.016a.025.025 0 0 0 .016.008l-.024-.016-.048-.024c-.032-.016-.072-.04-.08-.056-.016-.016-.04-.032-.056-.048-.024-.008-.04-.04-.064-.056l-.064-.063c-.016-.024-.04-.048-.056-.072-.04-.048-.064-.096-.096-.144-.032-.048-.048-.095-.064-.135-.024-.04-.032-.08-.04-.12-.008-.016-.016-.032-.016-.048s-.008-.024-.008-.04l.472-.263zm2.705 12.696v-10.574l.44-.256v10.575l-.44.255zm1.488 39.985c0 .702-.168 1.284-.48 1.675-.288.359-.696.542-1.184.542-.441 0-.945-.151-1.457-.446-1.896-1.093-3.432-3.74-3.432-5.91v-37.84l1.552.894a.288.288 0 0 0 .16.039.377.377 0 0 0 .16-.039l.528-.304c.008.008.008.016.016.016l.016.016.016.016.024.04.048.072c.016.024.024.048.04.072.032.048.048.103.064.143.024.048.024.096.04.136a.29.29 0 0 1 .016.111c0 .016.008.032.008.048v.184a.323.323 0 0 0 .296.279l1.761 1.013c.008.008.016.008.032.016 0 0 .008 0 .008.008.008 0 .008 0 .016.008a.236.236 0 0 0 .104.016c.04 0 .072-.008.112-.024h.008c.008 0 .008-.008.016-.008s.016-.008.024-.016l.92-.527.008-.008a.11.11 0 0 1 .032-.024c.008-.008.016-.016.024-.016l.024-.023c.008-.008.016-.016.016-.024.008-.008.008-.016.016-.024s.008-.016.016-.024.008-.016.008-.032c0-.008.008-.016.008-.032 0-.008 0-.016.008-.032V150.656a.343.343 0 0 0-.16-.279l-1.905-1.092c-.008 0-.008-.008-.016-.008s-.008-.008-.016-.008c-.016-.008-.032-.016-.048-.016-.016-.008-.032-.008-.056-.008H104.745c-.016 0-.032.008-.056.008-.008 0-.008 0-.016.008l-.048.024-.464.263c-.2-.183-.352-.486-.352-.734a.343.343 0 0 0-.16-.279l-1.904-1.092s-.008 0-.008-.008c-.008-.008-.024-.008-.032-.016-.008 0-.016-.008-.024-.008s-.024-.008-.032-.008-.024-.008-.032-.008h-.064c-.008 0-.024 0-.032.008-.008 0-.016 0-.032.008-.008 0-.016.008-.024.008-.008.008-.024.008-.032.016 0 0-.008 0-.008.008l-.568.327v-12.872c0-1.363.64-2.217 1.664-2.217.44 0 .944.152 1.456.447 1.897 1.093 3.433 3.74 3.433 5.909v62.801h.016zM140.09 170.29l-.288-.167c.144-.83.216-1.643.216-2.417 0-2.926-1.008-5.119-2.841-6.172l-2.64-1.515s-.008 0-.008-.008l-.008-.008c-1.849-1.053-4.281-.814-6.85.662-2.512 1.443-4.873 3.923-6.649 6.97-1.768 3.046-2.745 6.308-2.745 9.187 0 2.926 1.009 5.119 2.841 6.172h.008l2.64 1.515c.008 0 .008.008.016.008l.008.008c.761.431 1.617.646 2.545.646 1.328 0 2.793-.439 4.305-1.308a14.23 14.23 0 0 0 1.944-1.347l4.481 2.575c.2.112.424.176.664.176.32 0 .672-.104 1.025-.311 1.168-.67 2.088-2.249 2.088-3.589v-9.57c-.032-.709-.288-1.244-.752-1.507zm-3.609 3.716v9.57c0 .168.016.327.048.471l-3.841-2.209-3.44-1.978c-.256-.144-.4-.487-.4-.957v-9.57c0-1.108.792-2.464 1.768-3.022.44-.255.848-.279 1.12-.072a.364.364 0 0 0 .152.064l7.05 4.059a2.515 2.515 0 0 0-.449.199c-1.112.638-2.008 2.185-2.008 3.445zm-8.274 3.326c-.712-.271-1.128-1.053-1.128-2.185 0-1.117.416-2.424 1.128-3.589v5.774zm-9.306-.518c0-5.718 4.073-12.72 9.074-15.599 2.361-1.364 4.569-1.595 6.21-.662 0 0 .008 0 .008.008l.008.008.84.486c-1.417-.111-3.017.312-4.673 1.268-5.129 2.951-9.306 10.136-9.306 16.014 0 1.882.424 3.445 1.216 4.593l-.824-.478c-1.648-.933-2.553-2.935-2.553-5.638zm11.395 6.491c-2.361 1.364-4.569 1.595-6.209.662 0 0-.008 0-.008-.008l-.008-.008-1.001-.574c-1.088-1.109-1.68-2.855-1.68-5.048 0-5.774 4.105-12.832 9.154-15.734 1.936-1.117 3.777-1.484 5.305-1.093l.984.566c1.64.933 2.545 2.935 2.545 5.638 0 .662-.056 1.364-.168 2.074l-7.106-4.083c-.032-.016-.064-.032-.096-.032-.472-.287-1.104-.247-1.72.104-1.168.669-2.089 2.24-2.089 3.58v1.077c-1.104 1.451-1.768 3.206-1.768 4.729 0 1.507.672 2.568 1.768 2.847v.917c0 .71.256 1.244.721 1.507l3.032 1.747c-.536.43-1.096.813-1.656 1.132zm9.874-1.938c0 1.093-.808 2.48-1.769 3.031-.408.231-.784.287-1.048.135l-.416-.239a1.584 1.584 0 0 1-.144-.71v-9.57c0-1.164.824-2.583 1.849-3.174.248-.143.488-.223.704-.239l.416.239c.256.152.4.487.4.957v9.57h.008z"/><path d="M104.114 134.699c-.264-.151-.528-.231-.768-.231-.608 0-1.008.486-1.008 1.244 0 1.021.72 2.265 1.616 2.775.264.152.528.231.768.231.609 0 1.009-.486 1.009-1.244 0-1.021-.721-2.265-1.617-2.775zm.616 3.692c-.184 0-.392-.063-.608-.191-.8-.463-1.456-1.579-1.456-2.496 0-.574.256-.925.688-.925.184 0 .392.064.608.191.8.463 1.457 1.579 1.457 2.496-.008.582-.265.925-.689.925z"/><path d="M104.177 135.784l-.28-.168v.734l-.616-.351v.311l.616.351v.734l.28.167v-.734l.609.351v-.319l-.609-.351v-.725zM104.114 197.947a1.567 1.567 0 0 0-.768-.231c-.608 0-1.008.486-1.008 1.244 0 1.02.72 2.264 1.616 2.775.264.151.528.231.768.231.609 0 1.009-.486 1.009-1.244 0-1.021-.721-2.265-1.617-2.775zm.616 3.7c-.184 0-.392-.064-.608-.191-.8-.463-1.456-1.579-1.456-2.496 0-.575.256-.925.688-.925.184 0 .392.063.608.191.8.463 1.457 1.579 1.457 2.496-.008.574-.265.925-.689.925z"/><path d="M104.177 199.031l-.28-.159v.726l-.616-.351v.311l.616.351v.733l.28.168v-.734l.609.351v-.319l-.609-.351v-.726z"/><path d="M189.731 132.91c0-1.97-1.4-4.378-3.121-5.375-.896-.518-1.752-.59-2.416-.215h-.008l-24.213 13.948V97.279v-.016-.016c0-.016-.008-.032-.008-.056-.008-.016-.008-.032-.016-.047 0-.009-.008-.009-.008-.017-.008-.015-.016-.031-.024-.04v-.007c-.008-.016-.024-.024-.04-.04l-.008-.008c-.016-.016-.032-.024-.048-.032l-9.882-5.678a.327.327 0 0 0-.32 0l-50.563 29.1c-.007.008-.016.008-.023.016 0 0-.008 0-.008.008-.017.008-.025.024-.04.04l-.008.007a.597.597 0 0 0-.056.096c0 .008 0 .008-.009.016-.008.016-.008.032-.016.056v86.462c0 .112.064.223.16.279l9.875 5.678c.048.032.104.04.16.04.024 0 .056 0 .08-.008h.008c.008 0 .024-.008.032-.008 0 0 .008 0 .008-.008.008-.008.016-.008.032-.016l50.562-29.092a.32.32 0 0 0 .16-.279v-32.082l28.726-16.532.008-.008c.664-.383 1.024-1.156 1.024-2.177zm-3.449-4.817c1.545.894 2.801 3.055 2.801 4.817 0 .79-.248 1.364-.704 1.619l-39.352 22.648-.048.024a3.85 3.85 0 0 1-1.777.511v-8.366l37.304-21.46c.456-.263 1.088-.191 1.776.207zm-64.837 25.671c-1.64-.933-2.544-2.935-2.544-5.638 0-5.718 4.072-12.72 9.073-15.599 2.361-1.363 4.569-1.595 6.21-.662 0 0 .008 0 .008.008l.008.008.84.487c-1.416-.112-3.017.311-4.673 1.268-5.129 2.951-9.306 10.136-9.306 16.013 0 1.882.424 3.445 1.216 4.594l-.832-.479zm2.641 1.515s-.008 0-.008-.008l-.008-.008-1.001-.574c-1.088-1.108-1.68-2.855-1.68-5.048 0-5.774 4.105-12.831 9.154-15.734 1.936-1.116 3.777-1.483 5.305-1.093l.984.567c1.641.933 2.545 2.934 2.545 5.63 0 1.507-.28 3.118-.824 4.793l-2.057-1.181v-.016c.016-.095.048-.207.064-.342.024-.136.048-.28.072-.447.016-.168.04-.351.056-.534.008-.096.008-.192.016-.287 0-.048.008-.096.008-.152v-.159c0-.104 0-.208-.008-.319a4.288 4.288 0 0 1-.016-.327c-.016-.112-.024-.224-.04-.327-.016-.112-.04-.224-.056-.335-.016-.112-.048-.224-.072-.327-.024-.112-.064-.216-.096-.327-.032-.104-.08-.208-.12-.311-.04-.104-.088-.2-.136-.303a3.022 3.022 0 0 0-.16-.279c-.056-.088-.12-.176-.176-.256a15.321 15.321 0 0 1-.184-.231c-.064-.072-.128-.135-.192-.199a2.993 2.993 0 0 0-.376-.311c-.112-.088-.24-.152-.328-.208a.06.06 0 0 0-.032-.016c-.008-.008-.016-.008-.032-.016-.016-.007-.04-.015-.056-.023-.032-.016-.064-.032-.088-.04a.629.629 0 0 0-.072-.032c-.008 0-.008-.008-.016-.008h-.008c-1.176-.455-2.665-.231-4.169.638-3.425 1.97-6.209 6.762-6.209 10.678 0 1.715.544 3.094 1.52 3.868l.072.048c.048.031.112.079.2.135.096.048.2.12.336.176.128.063.288.119.456.167.088.024.176.048.272.064l.296.048.312.024c.104 0 .216 0 .32-.008a4.548 4.548 0 0 0 .657-.088 5.177 5.177 0 0 0 .656-.184c.104-.039.208-.079.32-.119.104-.048.208-.088.304-.136a11.795 11.795 0 0 0 .704-.367l.032-.015.016-.008.008-.008.016-.008.064-.04c.088-.056.168-.104.248-.16.08-.048.152-.103.224-.159.072-.056.144-.104.208-.152.136-.095.248-.199.36-.287.104-.088.192-.159.264-.223l.016-.016 2.049 1.18c-1.177 1.284-2.425 2.313-3.721 3.054-2.353 1.388-4.553 1.619-6.193.686zm7.889-15.247c-.008 0-.008-.008 0 0-.008 0-.008 0-.008-.008-.664-.375-1.52-.303-2.416.215-1.721.989-3.121 3.397-3.121 5.375 0 1.021.36 1.786 1.016 2.169l.008.008 3.465 1.994a9.985 9.985 0 0 1-1.288.909c-1.176.678-2.321.933-3.281.741a4.286 4.286 0 0 0-.128-.079c-.072-.048-.12-.088-.16-.12l-.056-.04c-.824-.654-1.28-1.858-1.28-3.373 0-3.716 2.64-8.254 5.889-10.12 1.344-.774 2.633-.981 3.625-.59.008.008.032.016.056.024a.78.78 0 0 1 .088.04c.016.008.032.016.056.024.008.008.016.008.032.016.008.007.016.007.024.015.04.024.08.04.12.064.632.726.984 1.818.984 3.15a8.67 8.67 0 0 1-.152 1.603l-2.729-1.571-.744-.446zm-.32 10.167c-.056.048-.12.096-.192.144-.104.072-.216.167-.352.255-.064.04-.136.088-.208.136a5.468 5.468 0 0 1-.224.143l-.24.144-.064.04-.024.016-.032.016c-.048.023-.088.047-.136.071-.184.096-.36.176-.552.256-.096.039-.192.071-.288.111l-.296.096c-.104.024-.2.048-.304.08-.104.024-.2.039-.304.055-.096.016-.201.024-.297.04-.096.008-.192.008-.288.016-.096 0-.184-.008-.28-.008-.048-.008-.096-.008-.144-.016.744-.079 1.545-.359 2.353-.821.48-.279.96-.614 1.424-1.013l.448.239zm4.641-9.202v.287c-.008.183-.024.351-.032.51-.016.16-.032.303-.048.431-.008.087-.024.159-.032.231l-.44-.255c.12-.614.176-1.212.176-1.779 0-.917-.16-1.73-.456-2.4.032.04.064.08.088.12.048.079.096.151.144.231.04.088.088.167.128.255.04.088.08.175.12.271.032.096.072.192.096.287.024.096.056.2.08.295.024.104.048.2.064.303l.048.303c.008.104.024.208.032.303.008.104.008.2.016.303 0 .048.008.096.008.144.008.064.008.112.008.16zm8.818 16.196c-.032-.016-.064-.024-.088-.032l-10.346-5.949-6.161-3.549-.737-.422c-.456-.255-.704-.838-.704-1.619 0-1.771 1.257-3.932 2.801-4.817.688-.399 1.32-.47 1.776-.215l15.235 8.764v8.358a3.83 3.83 0 0 1-1.776-.519zm-36.023-31.189l-9.234-5.311 8.129-4.673 1.705.981 5.961 3.429 1.568.901-8.129 4.673zm48.121-29.762l-41.488 23.869-5.641-3.246 41.488-23.86 5.641 3.237zm-39.68 24.905l-1.488-.853 41.488-23.868 1.481.853-41.481 23.868zm32.247-29.18l1.472.846-41.48 23.869-1.465-.846 41.473-23.868zm-50.242 29.284l9.234 5.311v85.689l-9.234-5.319v-85.681zm59.796 62.267l-49.922 28.725v-85.681l49.922-28.725v43.805l-12.291 7.058-7.937-4.569c.592-1.787.896-3.501.896-5.12 0-2.927-1.008-5.12-2.841-6.173h-.008l-2.64-1.515s-.008 0-.008-.008l-.008-.008c-1.849-1.052-4.281-.813-6.85.662-2.512 1.444-4.873 3.924-6.649 6.97-1.768 3.046-2.745 6.308-2.745 9.187 0 2.927 1.009 5.12 2.841 6.172h.008l2.641 1.516c.008 0 .008.008.016.008l.008.008c.76.43 1.616.645 2.544.645 1.328 0 2.793-.438 4.305-1.307 1.392-.798 2.729-1.906 3.969-3.286l10.202 5.869c.032.016.064.032.096.032a4.48 4.48 0 0 0 4.377-.008l.048-.024 10.026-5.765v31.532z"/></g><g clip-path="url(#clip2)" fill="#C4C4C4"><path d="M143.964 28.522c-.421-.245-.83-.364-1.212-.364-.955 0-1.572.766-1.572 1.947v42.842c0 1.615 1.151 3.59 2.56 4.406.42.245.829.365 1.212.365.469 0 .867-.185 1.146-.533.278-.343.426-.833.426-1.415V32.93c0-1.616-1.147-3.591-2.56-4.407zm-1.845 10.581l.971.56-.3.175-.972-.56.301-.175zm2.178 1.257l.971.56-.3.174-.972-.56.301-.174zm-.432 7.567c-.005-.016-.011-.032-.011-.049-.011-.032-.021-.076-.038-.12-.016-.038-.033-.087-.06-.13-.027-.044-.049-.087-.082-.13l-.049-.066c-.016-.022-.038-.043-.054-.06l-.028-.032-.016-.017-.017-.016a.39.39 0 0 0-.076-.06c-.027-.022-.044-.027-.065-.043l-.033-.017-.017-.01-.01-.006h-.006l-.011-.005a.618.618 0 0 0-.18-.055.43.43 0 0 0-.202.022.353.353 0 0 0-.147.114c-.006.011-.011.022-.022.027l-1.032-.593v-7.213l.972.56v.06c0 .016.005.032.005.049.006.032.011.07.022.114.011.038.022.082.044.125.022.044.038.093.065.136.011.022.028.044.038.07l.05.066.027.033c.005.01.016.022.027.033a.83.83 0 0 1 .066.07c.027.027.038.033.06.055l.027.021.016.011.011.006.006.005.011.006c.054.032.114.06.185.076a.449.449 0 0 0 .224-.006.381.381 0 0 0 .186-.125.415.415 0 0 0 .082-.13l1.02.576v7.214l-.988-.566zm-.638-8.095c.043.18.136.354.262.495a.226.226 0 0 0-.039.125v.087c0 .011-.005.022-.005.028 0 .005 0 .01-.005.01 0 .006-.017.011-.033.011a.185.185 0 0 1-.082-.021h-.011a.016.016 0 0 0 .011.005l-.016-.01-.033-.017a.162.162 0 0 1-.055-.038c-.011-.011-.027-.022-.038-.033-.016-.005-.027-.027-.044-.038l-.043-.044c-.011-.016-.028-.032-.039-.049-.027-.032-.043-.065-.065-.097-.022-.033-.033-.066-.044-.093a.238.238 0 0 1-.027-.081c-.005-.011-.011-.022-.011-.033 0-.011-.005-.016-.005-.027l.322-.18zm1.845 8.661v-7.214l.3-.174v7.214l-.3.174zm1.015 27.277c0 .479-.115.876-.328 1.143a.992.992 0 0 1-.807.37c-.301 0-.645-.104-.994-.305-1.294-.745-2.342-2.552-2.342-4.031V47.133l1.059.61a.194.194 0 0 0 .11.026.25.25 0 0 0 .109-.027l.36-.206c.005.005.005.01.011.01l.011.011.011.011.016.027.033.05c.011.016.016.032.027.048.022.033.033.071.044.098.016.033.016.066.027.093a.196.196 0 0 1 .011.076c0 .01.005.022.005.032v.126a.22.22 0 0 0 .202.19l1.201.69c.006.006.011.006.022.012 0 0 .006 0 .006.005.005 0 .005 0 .011.006.021.01.049.01.07.01.028 0 .05-.005.077-.016h.005c.006 0 .006-.005.011-.005.006 0 .011-.006.017-.011l.627-.36.006-.005a.07.07 0 0 1 .022-.016c.005-.005.011-.01.016-.01l.016-.017c.006-.005.011-.011.011-.016.006-.006.006-.011.011-.017.006-.005.006-.01.011-.016.006-.006.006-.01.006-.022 0-.005.005-.01.005-.022 0-.005 0-.01.006-.021v-7.622a.233.233 0 0 0-.11-.19l-1.299-.746c-.005 0-.005-.005-.011-.005-.005 0-.005-.006-.011-.006-.011-.005-.021-.01-.032-.01-.011-.006-.022-.006-.039-.006h-.049c-.011 0-.022.005-.038.005-.005 0-.005 0-.011.006l-.033.016-.316.18a.748.748 0 0 1-.24-.5.233.233 0 0 0-.11-.191l-1.299-.745s-.005 0-.005-.006c-.006-.005-.016-.005-.022-.01-.005 0-.011-.006-.016-.006-.006 0-.017-.006-.022-.006-.006 0-.017-.005-.022-.005h-.044c-.005 0-.016 0-.021.005-.006 0-.011 0-.022.006-.006 0-.011.005-.017.005-.005.006-.016.006-.022.011 0 0-.005 0-.005.006l-.388.223v-8.78c0-.931.437-1.513 1.136-1.513.3 0 .644.103.993.304 1.294.746 2.342 2.552 2.342 4.032V75.77h.011zM168.368 54.249l-.196-.115c.098-.565.147-1.12.147-1.648 0-1.997-.688-3.493-1.938-4.21l-1.801-1.034s-.005 0-.005-.006l-.006-.005c-1.261-.718-2.92-.555-4.672.451-1.714.985-3.325 2.677-4.536 4.755-1.207 2.078-1.873 4.303-1.873 6.267 0 1.997.688 3.493 1.938 4.21h.006l1.801 1.035c.005 0 .005.005.011.005l.005.005c.519.294 1.103.441 1.736.441.906 0 1.905-.3 2.937-.892a9.702 9.702 0 0 0 1.326-.92l3.057 1.758c.136.076.289.12.453.12.218 0 .459-.071.699-.213.797-.457 1.424-1.534 1.424-2.448v-6.528c-.021-.484-.196-.849-.513-1.028zm-2.461 2.535v6.528c0 .114.01.223.032.321l-2.62-1.507-2.347-1.35c-.175-.097-.273-.331-.273-.652v-6.528c0-.756.54-1.681 1.206-2.062.301-.174.579-.19.765-.049a.242.242 0 0 0 .103.044l4.809 2.769a1.632 1.632 0 0 0-.305.136c-.759.435-1.37 1.49-1.37 2.35zm-5.645 2.268c-.485-.185-.769-.718-.769-1.49 0-.762.284-1.654.769-2.448v3.938zm-6.348-.353c0-3.9 2.778-8.677 6.19-10.641 1.61-.93 3.117-1.088 4.236-.452 0 0 .005 0 .005.006l.006.005.573.332c-.966-.076-2.058.212-3.188.865-3.499 2.013-6.348 6.914-6.348 10.924 0 1.284.289 2.35.83 3.133l-.563-.326c-1.124-.637-1.741-2.002-1.741-3.846zm7.773 4.428c-1.61.93-3.117 1.088-4.236.452 0 0-.005 0-.005-.006l-.006-.005-.682-.392c-.742-.756-1.146-1.948-1.146-3.444 0-3.938 2.8-8.753 6.244-10.733 1.321-.762 2.577-1.012 3.619-.745l.672.386c1.119.636 1.736 2.002 1.736 3.846 0 .452-.039.93-.115 1.415l-4.847-2.786a.157.157 0 0 0-.066-.022c-.322-.196-.753-.168-1.173.071-.797.457-1.425 1.529-1.425 2.443v.734c-.753.99-1.206 2.187-1.206 3.226 0 1.028.458 1.752 1.206 1.942v.626c0 .484.175.849.491 1.028l2.069 1.192a8.704 8.704 0 0 1-1.13.772zm6.736-1.322c0 .745-.551 1.692-1.206 2.067-.279.158-.535.196-.716.093l-.283-.163a1.071 1.071 0 0 1-.099-.484v-6.529c0-.794.563-1.762 1.261-2.165a1.15 1.15 0 0 1 .481-.163l.284.163c.174.103.272.332.272.653v6.528h.006z"/><path d="M143.827 29.969a1.072 1.072 0 0 0-.524-.158c-.415 0-.688.332-.688.849 0 .696.492 1.545 1.103 1.893.18.104.36.158.524.158.415 0 .688-.332.688-.849 0-.696-.492-1.545-1.103-1.893zm.42 2.519a.838.838 0 0 1-.415-.13c-.545-.316-.993-1.078-.993-1.703 0-.392.175-.632.469-.632.126 0 .268.044.415.131.546.316.994 1.077.994 1.703-.006.397-.18.63-.47.63z"/><path d="M143.869 30.709l-.191-.114v.5l-.42-.24v.213l.42.24v.5l.191.114v-.5l.415.239v-.218l-.415-.239v-.495zM143.827 73.115a1.071 1.071 0 0 0-.524-.157c-.415 0-.688.331-.688.848 0 .697.492 1.545 1.103 1.893.18.104.36.158.524.158.415 0 .688-.332.688-.849 0-.696-.492-1.544-1.103-1.893zm.42 2.525a.838.838 0 0 1-.415-.131c-.545-.316-.993-1.077-.993-1.703 0-.391.175-.63.469-.63.126 0 .268.043.415.13.546.315.994 1.077.994 1.703-.006.391-.18.63-.47.63z"/><path d="M143.869 73.855l-.191-.109v.495l-.42-.239v.212l.42.24v.5l.191.114v-.5l.415.24v-.218l-.415-.24v-.495z"/><path d="M202.233 28.748c0-1.343-.955-2.986-2.129-3.666-.611-.354-1.195-.403-1.648-.147h-.006l-16.517 9.515V4.442 4.43 4.42c0-.011-.006-.022-.006-.038-.005-.011-.005-.022-.011-.033 0-.005-.005-.005-.005-.01-.006-.012-.011-.023-.016-.028v-.005c-.006-.011-.017-.017-.028-.028l-.005-.005c-.011-.011-.022-.016-.033-.022L175.088.378a.224.224 0 0 0-.219 0l-34.492 19.851c-.006.005-.011.005-.017.01 0 0-.005 0-.005.006-.011.006-.016.017-.027.027l-.006.006c-.016.022-.027.044-.038.065 0 .006 0 .006-.006.011-.005.011-.005.022-.01.038V79.375c0 .076.043.152.109.19l6.736 3.874a.191.191 0 0 0 .109.027c.016 0 .038 0 .054-.005h.006c.005 0 .016-.006.022-.006 0 0 .005 0 .005-.005.006-.006.011-.006.022-.011l34.493-19.846a.22.22 0 0 0 .109-.19V41.517l19.596-11.278.005-.006c.454-.26.699-.788.699-1.485zm-2.352-3.286c1.053.61 1.91 2.084 1.91 3.286 0 .539-.169.93-.48 1.105l-26.846 15.45a2.626 2.626 0 0 1-1.244.364v-5.706l25.448-14.64c.311-.18.742-.13 1.212.141zM155.65 42.974c-1.119-.636-1.736-2.002-1.736-3.846 0-3.9 2.778-8.677 6.19-10.64 1.61-.931 3.117-1.089 4.236-.452 0 0 .005 0 .005.005l.006.006.573.331c-.966-.076-2.058.213-3.188.865-3.499 2.013-6.348 6.915-6.348 10.924 0 1.284.289 2.35.829 3.134l-.567-.327zm1.801 1.034s-.005 0-.005-.005l-.006-.006-.682-.391c-.742-.757-1.146-1.948-1.146-3.444 0-3.939 2.8-8.753 6.244-10.734 1.321-.761 2.577-1.012 3.619-.745l.672.386c1.119.637 1.735 2.002 1.735 3.841 0 1.028-.191 2.127-.562 3.27l-1.403-.806v-.01c.011-.066.033-.142.044-.234.016-.093.033-.19.049-.305.011-.114.027-.24.038-.364.006-.066.006-.131.011-.196 0-.033.006-.066.006-.104v-.108c0-.071 0-.142-.006-.218-.005-.07-.011-.147-.011-.223-.011-.076-.016-.152-.027-.223-.011-.076-.027-.153-.038-.229-.011-.076-.033-.152-.049-.223-.017-.076-.044-.147-.066-.223-.022-.07-.054-.141-.082-.212-.027-.07-.06-.136-.092-.207a2.03 2.03 0 0 0-.11-.19c-.038-.06-.082-.12-.12-.174l-.125-.158c-.044-.049-.088-.092-.131-.136a2.156 2.156 0 0 0-.257-.212c-.076-.06-.164-.103-.224-.142a.04.04 0 0 0-.021-.01c-.006-.006-.011-.006-.022-.011-.011-.006-.028-.011-.038-.017a.511.511 0 0 0-.061-.027.369.369 0 0 0-.049-.021c-.005 0-.005-.006-.011-.006h-.005c-.802-.31-1.818-.158-2.844.435-2.336 1.344-4.236 4.613-4.236 7.285 0 1.17.371 2.11 1.037 2.638l.049.033c.033.022.077.054.137.092.065.033.136.082.229.12.088.044.197.082.311.114.06.017.12.033.186.044.065.01.131.022.202.032l.213.017c.071 0 .147 0 .218-.006.077-.005.147-.01.224-.021.076-.011.153-.022.224-.039.076-.016.153-.032.224-.054a3.48 3.48 0 0 0 .223-.07c.071-.028.142-.055.219-.082.071-.033.142-.06.207-.093.137-.065.273-.136.393-.201.033-.016.06-.033.087-.049l.022-.01.011-.006.006-.006.011-.005.043-.027c.06-.038.115-.071.169-.11.055-.032.104-.07.153-.108.049-.038.099-.07.142-.103.093-.066.169-.136.246-.196.071-.06.131-.11.18-.153l.011-.01 1.397.805c-.802.876-1.654 1.577-2.538 2.083-1.605.947-3.106 1.105-4.225.468zm5.382-10.402c-.005 0-.005-.005 0 0-.005 0-.005 0-.005-.005-.453-.256-1.037-.207-1.649.147-1.173.675-2.129 2.317-2.129 3.667 0 .696.246 1.218.694 1.48l.005.005 2.364 1.36c-.29.24-.584.446-.879.62-.803.462-1.583.636-2.238.506a2.36 2.36 0 0 0-.087-.054c-.05-.033-.082-.06-.11-.082a.535.535 0 0 0-.038-.027c-.562-.446-.873-1.268-.873-2.301 0-2.536 1.801-5.631 4.017-6.904.917-.528 1.796-.67 2.473-.403.005.006.022.011.038.017.017.005.038.016.06.027l.038.016c.006.006.011.006.022.011.006.006.011.006.017.011.027.016.054.027.082.044.431.495.671 1.24.671 2.148 0 .348-.033.718-.104 1.094l-1.861-1.072-.508-.305zm-.218 6.937a1.353 1.353 0 0 1-.131.098c-.071.049-.147.114-.24.174-.044.027-.093.06-.142.092a3.314 3.314 0 0 1-.153.098l-.164.098-.043.027-.017.011-.022.011-.092.049c-.126.065-.246.12-.377.174-.066.027-.131.049-.197.076l-.202.066a2.925 2.925 0 0 0-.207.054 2.782 2.782 0 0 1-.207.038c-.066.01-.137.016-.202.027-.066.006-.131.006-.197.011-.065 0-.125-.005-.191-.005-.033-.006-.065-.006-.098-.011.507-.055 1.053-.245 1.605-.56.327-.191.655-.42.971-.691l.306.163zm3.166-6.278v.196c-.006.125-.016.239-.022.348-.011.109-.022.207-.033.294-.005.06-.016.108-.022.157l-.3-.174a6.33 6.33 0 0 0 .12-1.213c0-.626-.109-1.18-.311-1.637a.708.708 0 0 1 .06.081c.033.054.066.103.098.158.028.06.061.114.088.174l.082.185c.022.065.049.13.065.196l.055.201c.016.07.033.136.043.207l.033.206c.006.071.017.142.022.207.006.071.006.136.011.207 0 .033.005.065.005.098a.732.732 0 0 1 .006.109zm6.015 11.049c-.022-.011-.043-.017-.06-.022l-7.058-4.058-4.203-2.421-.502-.289c-.311-.174-.48-.57-.48-1.104 0-1.208.857-2.682 1.91-3.286.47-.272.901-.32 1.212-.147l10.393 5.98v5.7a2.615 2.615 0 0 1-1.212-.353zm-24.574-21.277l-6.299-3.623 5.546-3.188 1.162.67 4.067 2.338 1.07.615-5.546 3.188zM180.05 3.734l-28.303 16.283-3.848-2.214 28.302-16.277 3.849 2.208zm-27.069 16.99l-1.016-.582 28.303-16.283 1.01.583-28.297 16.282zM174.979.818l1.004.577-28.297 16.282-.999-.576L174.979.818zm-34.275 19.977l6.299 3.623v58.455l-6.299-3.629v-58.45zm40.792 42.477L147.44 82.868v-58.45l34.056-19.596v29.883l-8.384 4.815-5.415-3.117c.404-1.219.611-2.389.611-3.493 0-1.996-.688-3.492-1.938-4.21h-.005l-1.801-1.034s-.006 0-.006-.006l-.005-.005c-1.261-.718-2.921-.555-4.673.451-1.714.985-3.324 2.677-4.536 4.755-1.206 2.078-1.872 4.303-1.872 6.267 0 1.997.688 3.493 1.938 4.211h.005l1.801 1.034c.006 0 .006.005.011.005l.006.005a3.47 3.47 0 0 0 1.736.441c.906 0 1.905-.299 2.936-.892.95-.544 1.862-1.3 2.708-2.241l6.959 4.004c.022.01.044.021.066.021a3.059 3.059 0 0 0 2.986-.005l.033-.016 6.839-3.934v21.51z"/></g><defs><clipPath id="clip0"><path fill="#fff" transform="translate(.135 7.389)" d="M0 0h125.645v169.159H0z"/></clipPath><clipPath id="clip1"><path fill="#fff" transform="translate(98.897 91.285)" d="M0 0h90.835v121.838H0z"/></clipPath><clipPath id="clip2"><path fill="#fff" transform="translate(140.268 .353)" d="M0 0h61.966v83.115H0z"/></clipPath></defs></svg>