<svg width="345" height="346" fill="none" xmlns="http://www.w3.org/2000/svg"><path d="M289.962 81.804l28.982 4.214c1.867.287 3.648-1.032 3.907-2.895l3.389-23.163c.287-1.863-1.034-3.612-2.901-3.899l-1.321-.2 1.465-9.976c1.063-7.253-3.993-13.99-11.231-15.05-7.267-1.06-14.017 3.984-15.08 11.208l-1.465 9.976-1.35-.2c-1.867-.287-3.619 1.032-3.906 2.895l-3.39 23.163a3.441 3.441 0 0 0 2.901 3.927zm8.302-39.589c.976-6.622 7.152-11.208 13.787-10.262 6.635.974 11.231 7.138 10.283 13.731l-1.465 9.976-3.935-.573 1.379-9.546c.66-4.444-2.442-8.6-6.923-9.23-4.452-.66-8.617 2.436-9.249 6.908l-1.378 9.546-3.936-.574 1.437-9.976zm17.521 12.728l-13.902-2.006 1.378-9.546c.546-3.813 4.137-6.479 7.957-5.934 3.82.544 6.491 4.128 5.946 7.94l-1.379 9.546zm-24.214-.028c.172-1.262 1.35-2.122 2.614-1.95l28.982 4.214c1.264.172 2.125 1.348 1.953 2.61l-3.389 23.162c-.173 1.261-1.35 2.121-2.614 1.95l-28.982-4.244c-1.264-.172-2.126-1.347-1.953-2.608l3.389-23.134z" fill="#FFE146"/><path d="M305.474 76.845c4.452.659 8.588-2.437 9.249-6.88.661-4.444-2.442-8.572-6.894-9.231-4.452-.66-8.588 2.437-9.249 6.88-.632 4.443 2.442 8.6 6.894 9.23zm2.183-14.964c3.82.544 6.491 4.099 5.917 7.912-.546 3.812-4.107 6.478-7.928 5.905-3.82-.545-6.491-4.1-5.917-7.912.546-3.813 4.108-6.45 7.928-5.905z" fill="#FFE146"/><path d="M305.502 72.66c-.028.143.087.315.23.315l.575.086c.143.028.316-.086.316-.23l.287-1.92c.919-.115 1.723-.803 1.867-1.778.172-1.003-.373-1.978-1.264-2.35l.287-1.92c.029-.144-.086-.316-.229-.316l-.575-.086c-.144-.029-.316.086-.316.23l-.287 1.92c-.919.114-1.724.802-1.867 1.777-.173 1.003.373 1.978 1.264 2.35l-.288 1.921zm1.293-4.931h.029c.545.086.948.63.833 1.175a1.005 1.005 0 0 1-1.149.831h-.029c-.546-.086-.948-.63-.833-1.175a1.005 1.005 0 0 1 1.149-.831zM17.952 27.251c-1.81-4.099-6.635-5.962-10.742-4.156-4.108 1.806-5.975 6.622-4.165 10.721 1.81 4.1 6.635 5.963 10.742 4.157 4.136-1.806 6.003-6.622 4.165-10.722zm-4.624 9.69c-3.533 1.548-7.67-.029-9.25-3.555a7.014 7.014 0 0 1 3.562-9.23c3.533-1.549 7.67.028 9.25 3.554s-.03 7.683-3.562 9.23z" fill="#FFE146"/><path d="M14.649 29.029l-.23-.516c-.057-.144-.23-.201-.373-.144l-1.781.803c-.603-.745-1.666-1.032-2.557-.602-.919.401-1.407 1.376-1.263 2.322l-1.781.803c-.144.057-.201.229-.144.372l.23.516c.057.144.23.201.373.144l1.781-.803c.603.745 1.666 1.032 2.556.602.92-.401 1.408-1.376 1.264-2.322l1.781-.803c.144-.057.201-.229.144-.372zm-3.677 2.436a1.021 1.021 0 1 1 .517-1.347c.259.516.029 1.118-.517 1.347z" fill="#FFE146"/><path d="M40.53 1.021c-.431 4.185-3.045 7.998-7.181 9.833L20.71 16.415l-1.608-3.64 12.265-5.419c2.7-1.175 4.423-3.64 4.796-6.364h-1.177a7.036 7.036 0 0 1-4.079 5.332l-12.265 5.418-.287-.63a3.468 3.468 0 0 0-4.538-1.778L.029 15.44v1.262l14.247-6.278c1.15-.516 2.528 0 3.016 1.175l11.834 26.717c.517 1.147-.029 2.523-1.178 3.04l-21.427 9.46c-1.15.515-2.528-.03-3.045-1.176L.03 41.785v2.838l2.413 5.475c.776 1.72 2.815 2.523 4.538 1.75l21.457-9.46c1.723-.775 2.527-2.81 1.752-4.53l-9.02-20.354 12.64-5.59a13.316 13.316 0 0 0 7.87-10.864h-1.15V1.02zM40.587 338.399c-2.958-6.679-10.828-9.718-17.55-6.765 0 0-1.378.602-3.245 1.433-1.781.803-1.724 2.638-1.12 3.985.488 1.118 1.981 2.437 3.619 1.749 1.665-.717 2.9-1.29 2.9-1.29 3.534-1.577 7.698.028 9.25 3.583a6.943 6.943 0 0 1 .517 3.927h1.177a8.093 8.093 0 0 0-.632-4.386c-1.81-4.099-6.664-5.991-10.771-4.156 0 0-1.235.573-2.872 1.261-1.034.43-1.925-.688-2.126-1.147-.258-.573-.69-1.92.546-2.494l3.217-1.433c6.118-2.695 13.328.057 16.028 6.192a12.189 12.189 0 0 1 .976 6.163h1.15a12.715 12.715 0 0 0-1.064-6.622zM337.5 19.855l7.21-3.182v-1.26l-7.67 3.382c-1.723.774-2.527 2.81-1.752 4.53l9.422 21.27v-2.838l-8.388-18.892a2.314 2.314 0 0 1 1.178-3.01zM276.061 144.097c2.844-3.469 2.327-8.6-1.149-11.438-3.475-2.838-8.617-2.322-11.46 1.146-2.844 3.469-2.327 8.6 1.148 11.438 3.476 2.838 8.617 2.322 11.461-1.146zm-11.748-9.575c2.442-2.981 6.865-3.44 9.852-.975 2.988 2.437 3.447 6.852.977 9.833-2.442 2.981-6.865 3.44-9.852.975-2.959-2.437-3.418-6.852-.977-9.833z" fill="#FFE146"/><path d="M272.47 141.918c.115.115.316.086.403-.029l.373-.43c.115-.114.086-.315-.029-.401l-1.522-1.233c.402-.86.172-1.92-.603-2.551a2.203 2.203 0 0 0-2.643-.086l-1.522-1.233c-.115-.086-.316-.086-.402.029l-.374.43c-.086.115-.086.315.029.401l1.522 1.233a2.135 2.135 0 0 0 .604 2.551 2.202 2.202 0 0 0 2.642.086l1.522 1.233zm-3.561-3.669c.373-.43 1.005-.516 1.436-.144.431.344.517 1.004.144 1.434-.374.43-1.006.516-1.437.143-.459-.344-.517-.975-.143-1.433z" fill="#FFE146"/><path d="M232.545 148.626c.776-.946 1.293-2.867-.057-4.013-1.379-1.147-2.442-2.007-2.47-2.007-2.988-2.437-3.447-6.88-1.006-9.861 2.442-2.982 6.894-3.44 9.881-1.004l10.369 8.457-.459.545c-1.207 1.462-.977 3.64.488 4.844l18.153 14.821c1.465 1.204 3.648.975 4.855-.487l18.526-22.618c1.207-1.462.977-3.641-.488-4.845l-18.153-14.821c-1.465-1.204-3.648-.974-4.855.488l-14.103 17.228-10.714-8.743c-5.687-4.644-14.074-3.784-18.699 1.863-4.653 5.676-3.791 14.047 1.867 18.662 0 0 1.149.946 2.758 2.236 1.551 1.262 3.159.373 4.107-.745zm38.949-30.1l18.154 14.821a2.307 2.307 0 0 1 .316 3.239l-18.527 22.618c-.804.975-2.241 1.118-3.246.315l-18.153-14.82c-.977-.803-1.12-2.236-.316-3.24l18.527-22.618a2.317 2.317 0 0 1 3.245-.315zm-45.067 27.749c-5.199-4.242-5.946-11.896-1.723-17.056 4.251-5.189 11.92-5.934 17.09-1.72l10.714 8.743-2.528 3.067-10.369-8.456c-3.475-2.838-8.645-2.322-11.489 1.146-2.844 3.469-2.327 8.629 1.149 11.467 0 0 1.063.86 2.441 1.978.862.717.23 2.007-.086 2.408-.402.487-1.407 1.491-2.47.631-1.551-1.262-2.729-2.208-2.729-2.208zM326.126 1.022l-10.283 8.142c-.976.802-2.441.63-3.217-.373l-6.204-7.769h-1.465l6.779 8.486c1.177 1.49 3.36 1.72 4.854.544l11.403-9.03h-1.867zM151.086 198.993l8.933-27.835a3.454 3.454 0 0 0-2.24-4.329l-22.318-7.138a3.613 3.613 0 0 0-2.269.058 4.489 4.489 0 0 0-.747-.86 9.27 9.27 0 0 0-2.183-1.434c-3.706-1.691-7.957-.63-10.484 2.294-6.607-1.376-13.299 2.465-15.367 8.944-2.241 6.966 1.637 14.448 8.617 16.684l9.593 3.067-.402 1.29a3.455 3.455 0 0 0 2.241 4.329l22.318 7.138a3.394 3.394 0 0 0 4.308-2.208zm-21.284-40.477c.69.315 1.35.745 1.925 1.233.833.745 1.723 2.752 2.125 4.357l2.241 8.485a2.495 2.495 0 0 0-2.097.66c-.287.286-.517.63-.632 1.003a2.34 2.34 0 0 0-.086 1.089 998.297 998.297 0 0 1-8.416-2.58c-1.695-.516-3.016-1.06-3.275-1.261a11.324 11.324 0 0 1-.603-.545c-2.212-2.264-2.815-5.762-1.494-8.657 1.781-3.87 6.406-5.561 10.312-3.784zm6.865 15.595c.345.344.46.86.316 1.318a1.099 1.099 0 0 1-.345.545c-.258.258-.574.373-.948.373-.344 0-.689-.144-.919-.402a1.318 1.318 0 0 1-.316-1.318c.058-.201.173-.402.345-.545.546-.516 1.379-.487 1.867.029zm-12.15-.23c.747.23 1.609.488 2.528.774l-2.528 7.855-9.191-2.953c-3.677-1.175-5.716-5.131-4.539-8.8.948-2.982 3.792-4.96 6.865-4.874a8.999 8.999 0 0 0 2.499 5.877c.23.229.46.43.689.631.69.573 3.39 1.404 3.677 1.49zm11.173 3.612c.661 0 1.293-.229 1.753-.688.287-.286.517-.63.632-1.003a2.54 2.54 0 0 0-.058-1.663 7.085 7.085 0 0 1 5.142-.344c3.676 1.176 5.716 5.132 4.538 8.801-1.178 3.669-5.142 5.705-8.818 4.529-3.677-1.175-5.716-5.131-4.539-8.8.115-.344.259-.688.403-1.004.287.086.603.172.947.172zm-22.318 6.823c-6.376-2.035-9.909-8.887-7.87-15.251 1.838-5.762 7.669-9.23 13.529-8.256-.201.344-.402.688-.575 1.061-.43.917-.66 1.892-.746 2.895-3.591-.086-6.894 2.208-8.014 5.676-1.379 4.272 1.005 8.887 5.285 10.263l9.191 2.953-1.206 3.784-9.594-3.125zm11.404 8.686c-1.207-.373-1.867-1.691-1.494-2.895l4.854-15.108c1.896.574 3.907 1.204 5.601 1.72a9.411 9.411 0 0 0-.517 1.233c-1.378 4.271 1.006 8.858 5.285 10.234 4.28 1.376 8.876-1.003 10.255-5.275 1.378-4.271-1.006-8.858-5.285-10.234-2.011-.63-4.194-.487-6.061.43l-2.47-9.288a15.855 15.855 0 0 0-1.149-3.038c.431-.115.89-.115 1.321.028l22.318 7.138c1.206.373 1.867 1.692 1.494 2.896l-8.933 27.835c-.374 1.204-1.695 1.863-2.901 1.491l-22.318-7.167z" fill="#FFE146"/><path d="M136.897 178.812l-.172.545c-.057.143.029.315.172.373l1.867.602c-.028.946.546 1.863 1.523 2.15.948.315 1.953-.086 2.499-.889l1.867.602c.143.057.316-.029.373-.172l.172-.545c.058-.143-.028-.315-.172-.372l-1.867-.602c.029-.946-.546-1.864-1.522-2.15-.948-.316-1.953.086-2.499.888l-1.867-.602a.289.289 0 0 0-.374.172zm4.366.602c.546.172.833.746.661 1.29a1.02 1.02 0 0 1-1.293.66 1.017 1.017 0 0 1-.66-1.29 1.043 1.043 0 0 1 1.292-.66zM149.879 1.022l-5.802 8.486c-.718 1.032-2.154 1.318-3.188.602l-13.414-9.088h-2.039l14.792 10.062c1.58 1.06 3.734.66 4.797-.917l6.233-9.145h-1.379zM156.773 239.987c-8.272-3.096-17.521 1.089-20.623 9.345-3.103 8.256 1.091 17.487 9.363 20.583 8.273 3.096 17.522-1.09 20.624-9.346 3.102-8.256-1.092-17.486-9.364-20.582zm-10.857 28.838c-7.67-2.866-11.576-11.438-8.675-19.092 2.872-7.654 11.461-11.552 19.13-8.657 7.669 2.867 11.575 11.438 8.674 19.092-2.872 7.625-11.46 11.524-19.129 8.657z" fill="#FFE146"/><path d="M153.297 249.217c-3.16-1.175-6.693.43-7.899 3.584-1.178 3.153.43 6.679 3.59 7.883 3.16 1.175 6.693-.43 7.899-3.583 1.178-3.182-.431-6.708-3.59-7.884zm-3.907 10.378c-2.585-.975-3.877-3.842-2.901-6.393.977-2.58 3.849-3.87 6.405-2.895 2.586.974 3.878 3.841 2.901 6.392-.947 2.552-3.82 3.842-6.405 2.896z" fill="#FFE146"/><path d="M152.407 251.568c-1.867-.688-3.963.258-4.653 2.121-.689 1.864.259 3.956 2.126 4.644 1.867.688 3.964-.258 4.653-2.121.689-1.863-.259-3.956-2.126-4.644zm-2.125 5.676a2.468 2.468 0 0 1-1.436-3.182 2.476 2.476 0 0 1 3.188-1.433 2.47 2.47 0 0 1 1.436 3.182c-.488 1.261-1.924 1.92-3.188 1.433zM156.083 242.767l-.546-.2c-.143-.058-.316.028-.373.172l-1.408 3.698c-.057.143.029.315.173.372l.545.201c.144.057.316-.029.374-.172l1.407-3.698c.058-.143-.029-.315-.172-.373zM146.288 267.134l.546.201c.143.057.316-.029.373-.172l1.408-3.698c.057-.144-.029-.316-.173-.373l-.545-.201c-.144-.057-.316.029-.374.172l-1.407 3.698c-.058.144.028.316.172.373zM140.859 250.479l-1.522-.574c-.144-.057-.316.029-.374.172l-.201.545c-.057.143.029.315.172.373l1.523.573c.143.057.316-.029.373-.172l.201-.545c.058-.172 0-.315-.172-.372zM161.569 259.451l1.465.545c.143.057.316-.029.373-.172l.201-.545c.058-.143-.028-.315-.172-.372l-1.465-.545c-.144-.057-.316.029-.373.172l-.201.545a.274.274 0 0 0 .172.372zM140.86 263.063l.374.43c.115.115.287.144.402.029l1.264-1.032c.115-.115.143-.287.028-.401l-.373-.43c-.115-.115-.287-.144-.402-.029l-1.264 1.032c-.115.086-.144.258-.029.401zM159.502 247.755l.374.43c.114.115.287.144.402.029l1.206-1.003c.115-.115.144-.287.029-.402l-.345-.401c-.115-.115-.287-.143-.402-.029l-1.206.975c-.144.086-.144.287-.058.401zM149.909 243.799l-.259-1.605c-.029-.143-.172-.258-.316-.229l-.574.086a.297.297 0 0 0-.23.344l.258 1.605c.029.143.173.258.316.229l.575-.086c.172-.057.258-.2.23-.344zM152.463 266.159l.259 1.548c.029.144.172.258.316.23l.574-.086c.144-.029.259-.172.23-.316l-.258-1.548c-.029-.143-.173-.258-.316-.229l-.575.086c-.143.029-.258.172-.23.315zM142.583 245.405l2.528 3.067c.114.115.287.143.402.029l.431-.373c.114-.115.143-.287.028-.401l-2.527-3.068c-.115-.114-.288-.143-.403-.028l-.43.372c-.115.086-.144.258-.029.402zM156.37 262.175l2.528 3.067c.115.115.287.143.402.029l.431-.373c.115-.115.144-.287.029-.401l-2.528-3.068c-.115-.114-.287-.143-.402-.028l-.431.372c-.086.086-.115.287-.029.402zM138.161 256.814l.086.573c.029.144.172.258.316.23l3.906-.66a.297.297 0 0 0 .23-.344l-.086-.573c-.029-.143-.173-.258-.316-.229l-3.907.659a.297.297 0 0 0-.229.344zM160.047 254.062l3.906-.659a.297.297 0 0 0 .23-.344l-.086-.574a.298.298 0 0 0-.345-.229l-3.906.659c-.144.029-.259.172-.23.316l.086.573c.029.172.201.287.345.258z" fill="#FFE146"/><path d="M164.844 219.031c-7.841-2.952-16.602 1.032-19.561 8.858l-3.274 8.715c-.057.143-.23.315-.345.401-4.251 2.236-7.726 5.963-9.536 10.808-3.935 10.463 1.379 22.188 11.863 26.115 10.484 3.927 22.232-1.376 26.167-11.839a20.058 20.058 0 0 0 .115-13.875.875.875 0 0 1 0-.545l3.418-9.087c2.987-7.826-1.005-16.598-8.847-19.551zm7.813 19.121l-2.987 7.969c-.058.144-.144.144-.23 0a20.58 20.58 0 0 0-2.355-3.755c-.087-.115-.144-.344-.087-.487l2.068-5.476c1.954-5.188-.689-11.008-5.888-12.957-5.199-1.949-11.03.688-12.983 5.877l-1.982 5.274a.583.583 0 0 1-.373.316 19.37 19.37 0 0 0-4.194 1.175c-.143.057-.23 0-.172-.172l2.872-7.625c2.729-7.224 10.829-10.894 18.096-8.199 7.267 2.752 10.944 10.836 8.215 18.06zm-6.779 2.809a20.285 20.285 0 0 0-7.554-5.016c-2.844-1.061-5.774-1.462-8.588-1.233-.173 0-.23-.086-.173-.258l1.781-4.701c1.723-4.587 6.894-6.938 11.489-5.218 4.596 1.72 6.952 6.88 5.228 11.467l-1.838 4.873c-.115.172-.259.201-.345.086zm-21.485 31.906c-9.91-3.726-14.936-14.763-11.202-24.653 3.734-9.89 14.792-14.907 24.702-11.18 9.91 3.727 14.936 14.763 11.202 24.653-3.705 9.862-14.792 14.878-24.702 11.18zM244.695 74.265c-7.985 3.755-11.432 13.301-7.669 21.27 3.763 7.97 13.328 11.41 21.313 7.654 7.985-3.755 11.432-13.3 7.669-21.27-3.763-7.97-13.328-11.41-21.313-7.654zm13.156 27.864c-7.411 3.468-16.287.286-19.762-7.11-3.476-7.395-.287-16.254 7.123-19.722 7.411-3.469 16.287-.287 19.762 7.11 3.476 7.395.287 16.253-7.123 19.722z" fill="#FFE146"/><path d="M248.889 83.18c-3.044 1.433-4.366 5.103-2.929 8.141 1.436 3.04 5.112 4.358 8.157 2.925 3.045-1.434 4.366-5.103 2.93-8.142-1.436-3.038-5.084-4.357-8.158-2.924zm4.74 10.033c-2.499 1.176-5.458.087-6.635-2.379-1.178-2.494-.086-5.447 2.384-6.622 2.499-1.175 5.457-.086 6.635 2.38 1.178 2.493.115 5.475-2.384 6.621z" fill="#FFE146"/><path d="M249.98 85.473c-1.81.86-2.585 3.01-1.724 4.788.862 1.806 3.016 2.58 4.797 1.72 1.81-.86 2.585-3.01 1.724-4.788-.833-1.806-3.016-2.58-4.797-1.72zm2.585 5.476c-1.235.573-2.7.057-3.275-1.176a2.45 2.45 0 0 1 1.178-3.268c1.235-.573 2.7-.057 3.275 1.176a2.45 2.45 0 0 1-1.178 3.268zM246.218 76.73l-.517.258c-.144.058-.201.23-.144.373l1.695 3.583c.057.144.23.2.373.144l.517-.258c.144-.058.201-.23.144-.373l-1.695-3.583c-.057-.172-.23-.23-.373-.144zM256.873 100.695l.517-.258c.144-.057.201-.229.144-.372l-1.695-3.584c-.057-.143-.23-.2-.373-.143l-.517.258c-.144.057-.201.23-.144.373l1.695 3.583c.057.143.23.229.373.143zM241.134 92.956l-1.464.688c-.144.057-.202.229-.144.372l.258.516c.058.144.23.2.374.144l1.465-.688c.143-.058.201-.23.143-.373l-.258-.516c-.058-.143-.23-.2-.374-.143zM262.015 84.413l1.408-.66c.143-.057.201-.229.143-.372l-.258-.516c-.058-.144-.23-.2-.374-.144l-1.407.66c-.144.057-.201.23-.144.372l.259.516c.057.172.23.23.373.144zM250.153 101.756l.574.057a.335.335 0 0 0 .316-.258l.144-1.605a.312.312 0 0 0-.258-.315l-.575-.058a.313.313 0 0 0-.316.258l-.143 1.606c0 .172.114.315.258.315zM252.193 77.733l.574.058a.313.313 0 0 0 .316-.258l.144-1.548a.312.312 0 0 0-.259-.316l-.574-.057a.311.311 0 0 0-.316.258l-.144 1.548c-.029.172.086.315.259.315zM242.656 81.833l-1.321-.917c-.144-.086-.316-.058-.402.086l-.316.458c-.086.144-.058.316.086.402l1.321.917c.144.086.316.057.402-.086l.316-.459c.058-.114.029-.315-.086-.401zM260.493 95.621l1.292.889c.144.086.316.057.403-.086l.316-.459c.086-.143.057-.315-.087-.401l-1.292-.889c-.144-.086-.316-.057-.402.086l-.316.459c-.086.115-.029.315.086.401zM238.693 88.197l3.963.344a.311.311 0 0 0 .316-.258l.058-.574a.312.312 0 0 0-.259-.315l-3.964-.344a.311.311 0 0 0-.315.258l-.058.573c-.029.172.086.316.259.316zM260.35 90.031l3.964.344a.313.313 0 0 0 .316-.258l.058-.573a.312.312 0 0 0-.259-.315l-3.964-.344a.337.337 0 0 0-.316.258l-.057.573c0 .143.115.287.258.315zM243.806 99.32l.46.315c.143.086.316.057.402-.086l2.269-3.24c.086-.143.058-.315-.086-.4l-.46-.316c-.143-.086-.316-.058-.402.086l-2.269 3.24c-.057.142-.029.315.086.4zM257.104 81.747l2.269-3.24c.086-.143.057-.315-.086-.4l-.46-.316c-.143-.086-.316-.057-.402.086l-2.269 3.24c-.086.142-.058.314.086.4l.46.316c.115.086.287.057.402-.086z" fill="#FFE146"/><path d="M232.603 48.178c-7.583 3.555-10.829 12.614-7.267 20.181l3.389 7.167c.489 1.032 1.322 1.663 2.269 1.692a4.138 4.138 0 0 0 3.246-1.434c.632-.745.718-1.835.201-2.838l-.287-.602a1.027 1.027 0 0 0-.603-.544 1.192 1.192 0 0 0-.833.028s-.23.115-.431.2c-.144.058-.258 0-.23-.171l.23-2.78c.029-.373-.057-.918-.23-1.262l-1.177-2.494c-2.097-4.444-.173-9.776 4.279-11.868 4.453-2.093 9.795-.172 11.892 4.271l4.912 10.435c.057.143 0 .258-.173.258a20.328 20.328 0 0 0-8.875 1.92c-10.14 4.76-14.506 16.885-9.738 27.004 4.769 10.12 16.919 14.477 27.058 9.718 10.139-4.758 14.505-16.884 9.737-27.004-2.125-4.5-5.687-7.826-9.881-9.775a.785.785 0 0 1-.373-.373l-6.922-14.447c-3.562-7.569-12.639-10.837-20.193-7.282zm-2.815 17.659l1.178 2.494c.086.172.143.487.115.66l-.288 3.554a.89.89 0 0 0 .345.802c.259.172.575.172.891.03 0 0 .488-.23.804-.402.143-.057.316 0 .373.143l.144.316c.316.602.287 1.204-.058 1.576a2.864 2.864 0 0 1-2.326 1.032c-.517-.029-.977-.401-1.264-1.032l-3.389-7.166c-3.304-6.995-.288-15.366 6.721-18.634 7.008-3.297 15.396-.287 18.67 6.708l6.319 13.387c.058.144 0 .23-.143.172a22.253 22.253 0 0 0-4.309-.946c-.143-.028-.345-.143-.402-.286l-5.17-10.98c-2.356-5.016-8.387-7.166-13.414-4.816-4.998 2.38-7.181 8.371-4.797 13.388zm29.901 40.219c-9.565 4.501-21.025.373-25.535-9.173-4.51-9.546-.373-20.984 9.192-25.485 9.565-4.5 21.025-.373 25.535 9.174 4.481 9.546.373 20.983-9.192 25.484zM111.562 124.575l-1.608-7.081c-.029-.086.057-.315.172-.43a3.621 3.621 0 0 0 1.12-2.609 3.68 3.68 0 0 0-3.676-3.669c-2.011 0-3.677 1.634-3.677 3.669 0 .975.374 1.892 1.063 2.58.115.144.201.344.172.459l-1.58 7.167c-.057.315 0 .659.202.888.201.258.488.373.833.373l5.888-.029c.345 0 .632-.143.833-.401.287-.258.344-.602.258-.917zm-6.664-.373l1.408-6.507c.115-.574-.144-1.176-.488-1.52a2.49 2.49 0 0 1-.747-1.777 2.529 2.529 0 0 1 2.527-2.523 2.53 2.53 0 0 1 2.528 2.523c0 .688-.258 1.319-.747 1.806-.344.315-.632.946-.488 1.519l1.436 6.422c.058.315-.143.573-.459.573l-4.51.029c-.345 0-.546-.23-.46-.545z" fill="#FFE146"/><path d="M89.387 135.009h36.45a2.24 2.24 0 0 0 2.24-2.236v-2.809a2.24 2.24 0 0 0-2.24-2.236h-.029v-18.633h.029a2.241 2.241 0 0 0 2.24-2.236v-2.81a2.241 2.241 0 0 0-2.24-2.236h-4.826V93.07c0-7.367-6.003-13.359-13.385-13.359s-13.385 5.992-13.385 13.36v8.742h-4.854a2.242 2.242 0 0 0-2.24 2.236v2.81a2.242 2.242 0 0 0 2.24 2.236h.029v18.604h-.03a2.242 2.242 0 0 0-2.24 2.236v2.81a2.247 2.247 0 0 0 2.24 2.264zM95.39 93.07c0-6.737 5.486-12.212 12.236-12.212 6.75 0 12.237 5.475 12.237 12.212v8.743h-4.022V93.5c0-4.53-3.676-8.199-8.215-8.199-4.538 0-8.215 3.67-8.215 8.2v8.312h-4.02V93.07zm19.302 8.743H100.56V93.5c0-3.899 3.16-7.052 7.066-7.052 3.907 0 7.066 3.153 7.066 7.052v8.313zm-26.397 5.046v-2.81a1.09 1.09 0 0 1 1.092-1.089h36.45a1.09 1.09 0 0 1 1.091 1.089v2.81a1.09 1.09 0 0 1-1.091 1.089h-36.45a1.09 1.09 0 0 1-1.092-1.089zm2.24 2.236h34.096v18.604H90.536v-18.604zm-2.24 20.84a1.09 1.09 0 0 1 1.092-1.089h36.45a1.09 1.09 0 0 1 1.091 1.089v2.81a1.09 1.09 0 0 1-1.091 1.089h-36.45a1.09 1.09 0 0 1-1.092-1.089v-2.81zM291.858 187.068l2.499 6.823c.029.086 0 .315-.115.458a3.621 3.621 0 0 0-.747 2.752 3.66 3.66 0 0 0 4.108 3.154 3.654 3.654 0 0 0 3.159-4.1c-.115-.974-.632-1.834-1.407-2.436-.144-.115-.259-.316-.23-.43l.632-7.31c.029-.344-.086-.66-.316-.86-.23-.23-.546-.316-.89-.287l-5.831.803a1.117 1.117 0 0 0-.776.487 1.097 1.097 0 0 0-.086.946zm6.693-.487l-.575 6.622c-.057.573.316 1.146.689 1.433.546.401.862 1.003.948 1.663a2.516 2.516 0 0 1-2.183 2.809 2.521 2.521 0 0 1-2.815-2.179 2.495 2.495 0 0 1 .517-1.892c.288-.372.518-1.003.288-1.548l-2.269-6.192c-.115-.286.057-.573.373-.63l4.481-.602c.345-.029.574.2.546.516z" fill="#FFE146"/><path d="M312.539 173.853l-36.134 4.701c-1.235.172-2.096 1.29-1.924 2.494l.373 2.809c.173 1.233 1.293 2.093 2.499 1.921h.029l2.413 18.461h-.029c-1.235.172-2.097 1.29-1.924 2.494l.373 2.81c.172 1.232 1.293 2.092 2.499 1.92l4.797-.63 1.12 8.657c.948 7.31 7.669 12.47 14.994 11.524 7.324-.946 12.494-7.654 11.546-14.964l-1.12-8.657 4.797-.631c1.235-.172 2.097-1.29 1.924-2.494l-.373-2.809c-.172-1.233-1.293-2.093-2.499-1.921h-.029l-2.412-18.461h.028c1.235-.172 2.097-1.29 1.925-2.494l-.374-2.81c-.143-1.204-1.263-2.064-2.499-1.92zm-.517 42.369c.862 6.679-3.848 12.814-10.541 13.674-6.693.86-12.839-3.841-13.701-10.521l-1.12-8.657 3.963-.516 1.063 8.227c.575 4.472 4.711 7.654 9.22 7.081 4.481-.573 7.67-4.701 7.095-9.202l-1.063-8.227 3.964-.516 1.12 8.657zm-20.278-6.192l14.017-1.835 1.062 8.228c.518 3.87-2.24 7.396-6.089 7.912-3.878.516-7.411-2.236-7.928-6.078l-1.062-8.227zm25.506-8.399l.373 2.809c.087.602-.344 1.147-.947 1.233l-36.134 4.701a1.1 1.1 0 0 1-1.236-.946l-.373-2.809c-.086-.602.345-1.147.948-1.233l36.134-4.701c.632-.086 1.178.344 1.235.946zm-2.528-1.921l-33.807 4.386-2.413-18.461 33.808-4.386 2.412 18.461zm-.459-20.984c.086.602-.345 1.147-.948 1.233l-36.134 4.701a1.099 1.099 0 0 1-1.235-.946l-.374-2.809a1.056 1.056 0 0 1 .948-1.204l36.134-4.702a1.057 1.057 0 0 1 1.207.946l.402 2.781zM257.649 275.591c.201 0 .431.143.488.258l2.815 4.672c.431.717 1.35.946 2.039.516l1.178-.716c.718-.43.948-1.348.517-2.036l-2.815-4.672c-.057-.115-.057-.373 0-.545a4.342 4.342 0 0 0-.23-3.985 4.311 4.311 0 0 0-5.917-1.462 4.293 4.293 0 0 0-1.465 5.906 4.245 4.245 0 0 0 3.39 2.064zm-1.321-6.995c1.493-.889 3.446-.401 4.366 1.089.517.889.603 1.978.172 2.924-.201.43-.259 1.09.057 1.606l2.815 4.672c.086.172.058.373-.115.459l-1.177.717c-.173.086-.374.057-.46-.115l-2.815-4.673c-.316-.516-.948-.774-1.407-.802-1.034-.058-1.954-.631-2.499-1.52a3.107 3.107 0 0 1 1.063-4.357z" fill="#FFE146"/><path d="M251.789 243.828l6.98 11.581-23.093 13.846a2.237 2.237 0 0 0-.776 3.068l1.465 2.408a2.247 2.247 0 0 0 3.073.774h.029l9.594 15.967h-.029a2.237 2.237 0 0 0-.776 3.067l1.465 2.408a2.246 2.246 0 0 0 3.074.774l31.251-18.719a2.236 2.236 0 0 0 .775-3.067l-1.465-2.408a2.244 2.244 0 0 0-3.073-.774h-.029l-9.593-15.968h.028a2.235 2.235 0 0 0 .776-3.067L270 251.31a2.245 2.245 0 0 0-3.073-.774l-2.787 1.663-6.778-11.238c-1.982-3.325-.919-7.625 2.413-9.603 3.331-1.978 7.64-.917 9.622 2.379 0 0 .689 1.204 1.637 2.724.919 1.519 2.93 1.29 3.964.659 1.264-.745 2.384-2.236 1.379-3.927-1.034-1.749-1.81-3.039-1.81-3.039-3.763-6.278-11.949-8.313-18.239-4.529-6.291 3.755-8.33 11.925-4.539 18.203zm30.562 30.243l1.465 2.408a1.08 1.08 0 0 1-.373 1.491l-31.251 18.719a1.084 1.084 0 0 1-1.494-.372l-1.465-2.408a1.08 1.08 0 0 1 .373-1.491l31.252-18.719a1.082 1.082 0 0 1 1.493.372zm-3.073-.774l-29.241 17.544-9.593-15.967 29.24-17.515 9.594 15.938zm-10.283-21.442l1.465 2.408a1.079 1.079 0 0 1-.374 1.49l-31.251 18.748a1.082 1.082 0 0 1-1.493-.372l-1.465-2.408a1.08 1.08 0 0 1 .373-1.491l31.251-18.719c.517-.344 1.178-.172 1.494.344zm-12.064-25.256c5.745-3.44 13.213-1.576 16.66 4.157 0 0 .775 1.261 1.809 3.039.689 1.175-.46 2.035-.977 2.35-.43.258-1.809.688-2.412-.258-.919-1.519-1.609-2.694-1.638-2.694-2.326-3.842-7.353-5.103-11.202-2.781-3.849 2.322-5.112 7.339-2.786 11.18l6.75 11.209-3.418 2.035-6.98-11.581c-3.418-5.762-1.551-13.216 4.194-16.656zM97.975 64.231l30.131-17.4c1.207-.688 1.609-2.236.92-3.44l-1.236-2.15a2.513 2.513 0 0 0-3.274-1.004l-1.695-2.924a2.52 2.52 0 0 0 .747-3.325l-1.235-2.15a2.513 2.513 0 0 0-3.274-1.003l-1.695-2.924a2.52 2.52 0 0 0 .747-3.326l-1.235-2.15c-.69-1.204-2.241-1.605-3.447-.917l-2.959 1.691-4.883-8.399c-3.849-6.65-12.408-8.915-19.043-5.074-6.664 3.841-8.933 12.384-5.084 19.006l4.883 8.4-3.045 1.748c-1.207.688-1.609 2.236-.92 3.44l1.236 2.15a2.514 2.514 0 0 0 3.274 1.004l1.695 2.923a2.52 2.52 0 0 0-.747 3.326l1.235 2.15a2.514 2.514 0 0 0 3.275 1.003l1.694 2.924a2.52 2.52 0 0 0-.746 3.325l1.235 2.15c.718 1.233 2.24 1.634 3.447.946zm23.841-26.344l1.695 2.895-28.465 16.455-1.695-2.896 28.465-16.454zm-5.457-9.403l1.694 2.895-28.465 16.455-1.694-2.895 28.465-16.455zm-33.894-.315c-3.533-6.106-1.436-13.904 4.653-17.458 6.118-3.526 13.931-1.434 17.493 4.644l4.883 8.4-3.103 1.776-4.567-7.854c-2.556-4.386-8.214-5.906-12.61-3.354-4.394 2.551-5.916 8.198-3.36 12.584l4.567 7.855-3.073 1.806-4.883-8.4zm22.921-2.036l-13.988 8.085-4.567-7.855c-2.24-3.842-.92-8.772 2.93-11.008 3.849-2.236 8.789-.918 11.029 2.924l4.596 7.854zM84.619 43.907l-1.235-2.15a1.38 1.38 0 0 1 .488-1.863l30.131-17.401a1.385 1.385 0 0 1 1.867.487l1.235 2.15c.374.66.144 1.49-.488 1.863l-30.13 17.43a1.368 1.368 0 0 1-1.868-.516zm5.458 9.431l-1.236-2.15a1.38 1.38 0 0 1 .489-1.863l30.131-17.4a1.385 1.385 0 0 1 1.867.486l1.235 2.15a1.38 1.38 0 0 1-.488 1.864l-30.131 17.4a1.385 1.385 0 0 1-1.867-.487zm4.222 7.253a1.38 1.38 0 0 1 .488-1.864l30.131-17.4a1.385 1.385 0 0 1 1.867.487l1.235 2.15c.374.66.144 1.49-.488 1.863l-30.13 17.401a1.385 1.385 0 0 1-1.868-.487l-1.235-2.15zM58.165 201.803l.488 34.744c.029 1.376 1.178 2.494 2.556 2.465l2.5-.029a2.525 2.525 0 0 0 2.47-2.35l3.389-.058c.115 1.29 1.206 2.294 2.556 2.294l2.5-.029a2.527 2.527 0 0 0 2.47-2.351l3.389-.057c.115 1.29 1.206 2.293 2.556 2.293l2.5-.028c1.378-.029 2.498-1.176 2.47-2.552l-.058-3.382 9.708-.144c7.698-.114 13.845-6.45 13.73-14.104-.115-7.682-6.463-13.817-14.132-13.702l-9.708.143-.058-3.526c-.028-1.376-1.177-2.494-2.556-2.465l-2.5.028a2.527 2.527 0 0 0-2.47 2.351l-3.389.057c-.115-1.29-1.206-2.293-2.556-2.293h-2.47a2.527 2.527 0 0 0-2.47 2.351l-3.39.057c-.115-1.29-1.206-2.293-2.556-2.293l-2.5.028c-1.378.029-2.498 1.176-2.47 2.552zm11.374 33.626l-3.36.057-.46-32.823 3.36-.058.46 32.824zm10.886-.144l-3.36.058-.46-32.824 3.36-.057.46 32.823zm16.832-29.383c7.066-.115 12.868 5.533 12.983 12.585.115 7.052-5.543 12.842-12.61 12.957l-9.708.143-.057-3.554 9.076-.144c5.084-.086 9.163-4.271 9.077-9.345-.086-5.074-4.28-9.145-9.364-9.059l-9.077.144-.057-3.555 9.737-.172zm-9.421 20.955l-.23-16.11 9.077-.144c4.452-.057 8.128 3.498 8.186 7.941.057 4.443-3.504 8.113-7.957 8.17l-9.076.143zm-5.4-26.774l2.499-.029c.747 0 1.379.602 1.379 1.347l.488 34.744c0 .746-.603 1.376-1.35 1.376l-2.499.029c-.747 0-1.379-.602-1.379-1.347l-.488-34.744c0-.746.603-1.348 1.35-1.376zm-10.886.172l2.499-.029c.746 0 1.378.602 1.378 1.347l.489 34.744c0 .746-.603 1.376-1.35 1.376l-2.5.029c-.746 0-1.378-.602-1.378-1.347l-.488-34.744c0-.746.603-1.376 1.35-1.376zm-8.387.114c.746 0 1.378.602 1.378 1.348l.489 34.744c0 .745-.604 1.376-1.35 1.376l-2.5.028c-.746 0-1.378-.602-1.378-1.347l-.489-34.744c0-.745.604-1.376 1.35-1.376l2.5-.029zM32.4 222.815l-1.091-2.981a1.48 1.48 0 0 0-1.896-.86l-1.092.401-1.12-3.01 1.092-.401a1.452 1.452 0 0 0 .861-1.892l-1.091-2.981a1.478 1.478 0 0 0-1.896-.86l-1.091.401-1.092-2.981 1.092-.402a1.475 1.475 0 0 0 .861-1.892l-1.091-2.981a1.456 1.456 0 0 0-1.896-.86l-1.091.401-.805-2.178a3.082 3.082 0 0 0-3.963-1.778l-1.035.373-2.872-7.769c-2.01-5.446-7.64-8.514-13.184-7.51v1.175c5.055-1.032 10.254 1.749 12.093 6.737l2.872 7.768-3.16 1.147-2.728-7.425c-1.322-3.669-5.372-5.59-9.048-4.386v1.204c.057-.028.086-.028.143-.057 3.16-1.147 6.693.459 7.842 3.612l2.729 7.425-10.714 3.984v1.233l17.492-6.421a1.948 1.948 0 0 1 2.5 1.146l.775 2.122-10.082 3.698a1.475 1.475 0 0 0-.862 1.892l1.092 2.952a1.456 1.456 0 0 0 1.895.86l10.082-3.698 1.092 2.982-10.082 3.698a1.451 1.451 0 0 0-.862 1.892l1.092 2.981a1.48 1.48 0 0 0 1.895.86l10.082-3.698 1.12 3.01-10.081 3.727a1.475 1.475 0 0 0-.862 1.892l1.091 2.981a1.48 1.48 0 0 0 1.896.86l10.082-3.698 1.12 3.039a1.942 1.942 0 0 1-1.149 2.494L5.17 239.929a1.948 1.948 0 0 1-2.499-1.146l-.948-2.58c3.131-2.093 4.51-6.164 3.189-9.747l-3.303-8.801a8.175 8.175 0 0 0-1.58-2.637v1.949c.2.344.373.688.488 1.061l3.246 8.801c1.12 3.01.029 6.392-2.528 8.227L.03 231.759v3.326l1.493 4.07c.604 1.606 2.384 2.437 3.993 1.835l24.185-8.887c1.609-.573 2.442-2.379 1.838-3.984l-1.12-3.039 1.092-.401c.775-.258 1.149-1.118.89-1.864zm-16.746-13.33l-3.217 1.176c-.172.057-.344-.029-.43-.201l-1.063-2.953c-.058-.172.028-.344.2-.43l3.218-1.175c.143-.057.316.029.373.172l1.092 3.067c.057.144-.03.287-.173.344zm4.223-1.548l-2.585.946c-.144.058-.316-.028-.374-.172l-1.149-3.01c-.057-.143.029-.315.172-.372l2.586-.946c.143-.058.316.028.373.172l1.12 3.038c.058.144 0 .287-.143.344zm1.608-.573c-.143.057-.316-.029-.373-.172l-1.12-3.039c-.058-.143.028-.315.172-.372l3.188-1.176c.172-.057.345.029.431.201l1.091 2.981c.058.172-.028.344-.2.43l-3.189 1.147zM18.871 218.2l-3.217 1.175c-.172.058-.344-.028-.43-.2l-1.092-2.982a.31.31 0 0 1 .201-.401l3.217-1.175c.144-.058.316.028.373.172l1.12 3.038c.058.144-.028.316-.172.373zm4.194-1.548l-2.585.946c-.144.057-.316-.029-.374-.172l-1.12-3.039c-.057-.143.029-.315.172-.372l2.586-.946c.143-.058.316.028.373.172l1.12 3.038a.275.275 0 0 1-.172.373zm1.637-.602c-.143.057-.316-.029-.373-.172l-1.12-3.039c-.058-.143.028-.315.172-.372l3.217-1.176a.31.31 0 0 1 .402.201l1.091 2.981c.058.172-.028.344-.2.43l-3.189 1.147zm-2.614 10.893l-3.217 1.176a.311.311 0 0 1-.402-.201l-1.091-2.981a.31.31 0 0 1 .2-.402l3.218-1.175c.143-.057.316.029.373.172l1.12 3.039a.346.346 0 0 1-.2.372zm4.223-1.548l-2.585.946c-.144.058-.316-.028-.374-.172l-1.12-3.038c-.058-.144.029-.316.172-.373l2.585-.946c.144-.057.316.029.374.172l1.12 3.039c.029.143-.029.315-.172.372zm4.797-1.777l-3.218 1.175c-.143.058-.316-.028-.373-.172l-1.12-3.038c-.058-.144.029-.316.172-.373l3.217-1.175a.31.31 0 0 1 .402.2l1.092 2.982c.086.143 0 .344-.172.401z" fill="#FFE146"/><path d="M24.702 224.591a.602.602 0 1 0-.417-1.13.602.602 0 1 0 .417 1.13zM25.92 214.208a.602.602 0 1 0-.417-1.13.602.602 0 1 0 .418 1.13zM16.823 217.564a.602.602 0 1 0-.417-1.13.602.602 0 1 0 .417 1.13zM18.288 207.145a.602.602 0 1 0-.417-1.13.602.602 0 1 0 .417 1.13zM22.696 205.522a.602.602 0 1 0-.417-1.13.602.602 0 1 0 .417 1.13zM163.006 72.745l.977.602-1.235 1.979c-.862 1.433-.431 3.325 1.005 4.213l.948.574-4.395 7.052c-3.447 5.504-1.781 12.756 3.734 16.196 5.515 3.44 12.782 1.778 16.229-3.726l4.395-7.023.948.602c1.436.917 3.36.458 4.279-.975l16.057-25.6c.919-1.433.459-3.354-.977-4.27l-21.858-13.646c-1.437-.918-3.361-.459-4.28.974l-1.724 2.724-.976-.602a1.485 1.485 0 0 0-2.04.458l-1.694 2.695a1.478 1.478 0 0 0 .459 2.035l.977.602-1.723 2.724-.977-.602a1.484 1.484 0 0 0-2.039.458l-1.695 2.695a1.478 1.478 0 0 0 .459 2.035l.977.603-1.695 2.694-.976-.602a1.485 1.485 0 0 0-2.04.459l-1.694 2.695c-.316.63-.115 1.547.574 1.977zm16.286 26.288c-3.102 4.959-9.679 6.45-14.649 3.354-4.969-3.096-6.462-9.66-3.36-14.62l4.394-7.023 2.844 1.777-4.194 6.708c-2.125 3.383-1.091 7.855 2.298 9.976 3.39 2.121 7.871 1.089 9.996-2.293l4.222-6.709 2.844 1.778-4.395 7.052zm-9.794-15.91l10.369 6.478-4.222 6.709c-1.781 2.837-5.573 3.726-8.416 1.92-2.844-1.777-3.734-5.561-1.925-8.4l4.194-6.707zm21.111 5.82c-2.125-2.323-2.499-5.849-.775-8.572l4.969-7.94c1.695-2.724 5.055-3.928 8.071-3.04l-12.265 19.551zM175.07 52.878c.086-.143.287-.2.46-.114l2.901 1.806c.143.086.172.258.086.401l-1.724 2.752c-.086.143-.258.172-.402.086l-2.901-1.806c-.143-.086-.201-.287-.115-.459l1.695-2.666zm11.604 7.253l-1.694 2.695c-.087.143-.288.2-.46.114l-2.901-1.806c-.144-.086-.172-.258-.086-.4l1.723-2.753c.086-.143.259-.172.402-.086l2.901 1.806c.173.086.23.287.115.43zm-6.462.086l-2.356-1.462c-.143-.086-.172-.258-.086-.401l1.723-2.752c.087-.144.259-.172.403-.086l2.355 1.462c.144.086.172.258.086.401l-1.723 2.752c-.115.115-.288.172-.402.086zm-10.082.573c.086-.143.287-.2.459-.114l2.901 1.806c.144.086.173.258.086.401l-1.723 2.752c-.086.143-.258.172-.402.086l-2.901-1.806c-.144-.086-.201-.287-.115-.459l1.695-2.666zm11.604 7.253l-1.695 2.695c-.086.143-.287.2-.459.114l-2.901-1.805c-.144-.087-.173-.259-.087-.402l1.724-2.752c.086-.143.258-.172.402-.086l2.901 1.806c.172.086.201.287.115.43zm-6.492.057l-2.355-1.462c-.144-.086-.172-.258-.086-.4l1.723-2.753c.086-.143.259-.172.402-.086l2.356 1.462c.143.086.172.258.086.401l-1.723 2.752c-.087.144-.259.172-.403.086zm-5.342-1.977l9.105 5.675c.69.43 1.609.23 2.04-.458l1.694-2.695a1.478 1.478 0 0 0-.459-2.035l-9.134-5.676 1.723-2.724 9.105 5.677c.69.43 1.609.229 2.04-.46l1.694-2.694a1.478 1.478 0 0 0-.459-2.035l-9.106-5.676 1.724-2.724c.574-.917 1.781-1.175 2.7-.63l21.858 13.645c.92.574 1.178 1.777.632 2.695l-1.465 2.35c-3.59-1.204-7.64.201-9.679 3.44l-4.97 7.941c-2.039 3.24-1.522 7.51 1.121 10.206l-1.063 1.662c-.575.917-1.781 1.175-2.7.63l-21.859-13.644c-.919-.574-1.177-1.778-.632-2.695l1.207-1.92 9.105 5.675c.69.43 1.609.23 2.04-.459l1.694-2.694a1.478 1.478 0 0 0-.459-2.035l-9.106-5.677 1.609-2.665zm2.527 6.994l-1.723 2.752c-.086.143-.258.172-.402.086l-2.355-1.462c-.144-.086-.173-.258-.087-.401l1.724-2.752c.086-.143.258-.172.402-.086l2.355 1.462c.144.086.173.287.086.401zm4.366 2.78l-1.694 2.696c-.086.143-.287.2-.46.114l-2.901-1.806c-.143-.086-.172-.258-.086-.401l1.723-2.752c.087-.144.259-.172.403-.086l2.901 1.806c.172.086.201.287.114.43zm-11.144-7.367l2.901 1.806c.143.087.172.258.086.402l-1.723 2.752c-.087.143-.259.172-.403.086l-2.901-1.806c-.143-.086-.201-.287-.115-.459l1.695-2.694c.115-.115.287-.173.46-.087z" fill="#FFE146"/><path d="M180.419 58.092a.601.601 0 0 0-.191-.83.602.602 0 1 0 .191.83zM171.448 63.486a.602.602 0 1 0-1.022-.64.603.603 0 0 0 1.022.64zM179.671 68.624a.601.601 0 0 0-.191-.83.601.601 0 1 0-.641 1.02.605.605 0 0 0 .832-.19zM170.532 73.84a.602.602 0 1 0-1.022-.638.603.603 0 0 0 1.022.64zM166.528 71.33a.602.602 0 1 0-1.022-.64.604.604 0 0 0 1.022.64zM343.159 184.66a7.811 7.811 0 0 1 1.551-.43v-1.175a9.92 9.92 0 0 0-1.953.544c-6.089 2.236-9.22 9.002-6.98 15.079l2.873 7.769-1.063.372c-1.609.574-2.442 2.38-1.839 3.985l8.962 24.252v-3.325l-6.779-18.347a7.17 7.17 0 0 1 6.779 3.555v-1.95c-1.781-1.978-4.452-3.067-7.181-2.723l-.689-1.863a1.942 1.942 0 0 1 1.149-2.494l6.721-2.466v-1.232l-.747.286-2.728-7.424c-1.149-3.125.402-6.565 3.475-7.769V188.1l-.258.086c-3.763 1.376-5.688 5.561-4.309 9.317l2.729 7.424-3.16 1.147-2.872-7.769c-2.011-5.504.833-11.61 6.319-13.645zM116.214 307.267a2.432 2.432 0 0 0 1.092-3.268l-3.16-6.278a2.441 2.441 0 0 0-3.274-1.089c-.575.287-1.006.803-1.235 1.405-.201.63-.144 1.29.143 1.863l3.16 6.278a2.441 2.441 0 0 0 3.274 1.089zm-5.428-7.883a1.436 1.436 0 0 1-.087-.975c.115-.315.345-.602.632-.745a1.29 1.29 0 0 1 1.724.573l3.159 6.278a1.284 1.284 0 0 1-2.298 1.147l-3.13-6.278z" fill="#FFE146"/><path d="M60.118 325.786l-.488.229a2.57 2.57 0 0 0-1.15 3.44l.087.172a2.543 2.543 0 0 0 3.447 1.118l.488-.229.718 1.433c.086.172.23.316.43.373a.724.724 0 0 0 .547-.029l1.263-.63 1.408 2.78c.172.344.603.488.977.316l1.752-.86c.344-.172.488-.631.316-.975l-1.264-2.523c-.058-.143 0-.315.115-.372l.258-.144c.144-.057.316 0 .373.115l1.264 2.523c.087.172.23.315.431.372a.72.72 0 0 0 .546-.028l1.752-.86a.7.7 0 0 0 .373-.43.719.719 0 0 0-.028-.545l-.69-1.405 1.322-.659a.711.711 0 0 0 .316-.975l-1.408-2.809 35.301-17.716 1.551 3.096a2.545 2.545 0 0 0 3.447 1.118l5.774-2.895a2.656 2.656 0 0 0 1.292-1.491c.201-.659.173-1.347-.143-1.949l-5.487-10.894a2.544 2.544 0 0 0-3.446-1.118l-5.774 2.896a2.648 2.648 0 0 0-1.292 1.49c-.23.66-.173 1.348.143 1.95l1.551 3.096-35.33 17.716-1.407-2.81a.696.696 0 0 0-.43-.372.719.719 0 0 0-.547.028l-1.062.545c-.144.057-.316 0-.374-.115l-.574-1.146a.698.698 0 0 0-.431-.373.724.724 0 0 0-.546.029l-1.752.86c-.345.172-.488.63-.316.974l1.264 2.523c.057.143 0 .315-.115.373l-.258.143c-.144.057-.316 0-.374-.115l-1.264-2.522a.698.698 0 0 0-.43-.373.724.724 0 0 0-.546.029l-1.752.86c-.345.172-.489.63-.316.974l1.263 2.523c.058.143 0 .315-.114.373l-1.006.516c-.345.172-.488.63-.316.974l.66 1.405zm11.69 3.927l.575 1.147c.057.143 0 .315-.115.373l-.46.229c-.143.057-.316 0-.373-.115l-1.264-2.522a.698.698 0 0 0-.43-.373.724.724 0 0 0-.546.029l-1.552.774c-.344.172-.488.63-.316.974l1.264 2.523c.058.143 0 .315-.115.373l-.46.229c-.143.057-.315 0-.373-.115l-1.263-2.522a.692.692 0 0 0-.977-.316l-1.005.516c-.144.058-.316 0-.374-.114l-.402-.803 8.703-4.357 1.092 2.178c.057.144 0 .316-.115.373l-1.092.545c-.43.172-.574.63-.402.974zm33.865-30.644a1.436 1.436 0 0 1-.086-1.09c.115-.344.373-.659.718-.802l5.745-2.896a1.428 1.428 0 0 1 1.896.631l5.486 10.893c.172.344.201.717.086 1.09-.115.344-.373.659-.718.802l-5.774 2.896a1.426 1.426 0 0 1-1.895-.631l-1.666-3.325a.905.905 0 0 0-1.178-.402l-46.79 23.507a1.427 1.427 0 0 1-1.896-.631l-.517.258.517-.258-.086-.172a1.421 1.421 0 0 1 .632-1.892l46.79-23.478c.201-.114.373-.286.431-.516a.758.758 0 0 0-.058-.659l-1.637-3.325zm-44.607 20.668l.46-.229c.143-.057.315 0 .373.115l1.264 2.522a.715.715 0 0 0 .976.316l1.523-.774c.344-.172.516-.631.316-.975l-1.264-2.523c-.058-.143 0-.315.115-.372l.46-.23c.143-.057.315 0 .373.115l.574 1.147c.172.344.632.487.977.315l1.062-.545c.144-.057.316 0 .374.115l1.091 2.179-8.703 4.357-.402-.803c-.058-.143 0-.315.115-.372l1.005-.516c.345-.172.488-.631.316-.975l-1.264-2.523c.058-.114.115-.286.259-.344zM313.229 103.104c-.459-1.262-1.867-1.892-3.13-1.434l-6.607 2.437c-1.264.459-1.896 1.863-1.436 3.125.23.602.689 1.089 1.264 1.376a2.48 2.48 0 0 0 1.867.057l6.606-2.437a2.453 2.453 0 0 0 1.436-3.124zm-8.444 4.5a1.283 1.283 0 0 1-.977-.028 1.252 1.252 0 0 1-.661-.717c-.258-.659.087-1.405.747-1.663l6.607-2.436c.66-.258 1.407.086 1.666.745.258.659-.087 1.405-.747 1.663l-6.635 2.436z" fill="#FFE146"/><path d="M325.523 160.781l.201.516c.488 1.318 1.982 2.006 3.303 1.49l.172-.057c1.322-.487 1.982-1.978 1.494-3.297l-.201-.516 1.494-.544a.735.735 0 0 0 .402-.373.717.717 0 0 0 .028-.545l-.488-1.318 2.901-1.09a.73.73 0 0 0 .431-.946l-.689-1.834c-.144-.373-.575-.574-.92-.43 0 0-1.924.716-2.642.974-.144.058-.316-.028-.373-.172l-.115-.286c-.058-.144.028-.316.172-.373l2.643-.975a.734.734 0 0 0 .402-.372.717.717 0 0 0 .028-.545l-.689-1.835a.727.727 0 0 0-.919-.43l-1.465.545-.517-1.405a.735.735 0 0 0-.948-.43l-2.958 1.09-13.788-36.98 3.246-1.204c1.321-.487 1.982-1.978 1.494-3.297l-2.241-6.02a2.592 2.592 0 0 0-1.321-1.433 2.568 2.568 0 0 0-1.953-.086l-11.461 4.243c-1.321.487-1.982 1.978-1.494 3.296l2.241 6.02c.23.631.718 1.147 1.321 1.434a2.567 2.567 0 0 0 1.953.085l3.246-1.204 13.787 36.98-2.929 1.09a.728.728 0 0 0-.431.917l.431 1.118c.057.143-.029.315-.173.373l-1.177.43a.728.728 0 0 0-.431.917l.689 1.835a.735.735 0 0 0 .948.43l2.643-.975c.143-.057.316.029.373.172l.115.287c.057.143-.029.315-.172.372l-2.643.975a.729.729 0 0 0-.431.917l.689 1.835a.735.735 0 0 0 .948.43l2.643-.975c.144-.057.316.029.373.172l.402 1.061a.735.735 0 0 0 .948.43l1.408-.487zm5.17-11.18l1.206-.43c.144-.058.316.028.374.172l.172.487c.058.143-.029.315-.172.373l-2.643.974a.732.732 0 0 0-.431.918l.604 1.605a.744.744 0 0 0 .947.43l2.643-.975c.144-.057.316.029.373.172l.173.488c.057.143-.029.315-.173.372l-2.642.975a.731.731 0 0 0-.431.946l.402 1.061c.058.143-.029.315-.172.372l-.833.316-3.39-9.116 2.298-.86c.144-.058.316.028.374.172l.431 1.118c.114.401.517.573.89.43zm-26.799-36.952c-.345.144-.747.115-1.092-.028-.344-.144-.603-.43-.746-.803l-2.241-6.02c-.258-.716.115-1.548.833-1.806l11.461-4.243c.345-.143.747-.114 1.091.03.345.142.604.429.747.802l2.241 6.02c.258.716-.115 1.548-.833 1.806l-3.505 1.29c-.459.172-.689.688-.517 1.118l18.268 48.991c.259.717-.114 1.548-.832 1.806l.201.545-.201-.545-.173.057c-.718.258-1.551-.114-1.809-.831l-18.269-48.962c-.086-.23-.229-.402-.459-.488-.201-.086-.46-.115-.661-.029l-3.504 1.29zm15.683 46.526l-.172-.487c-.058-.143.028-.315.172-.373l2.643-.974a.732.732 0 0 0 .43-.946l-.603-1.606a.735.735 0 0 0-.948-.43l-2.642.975c-.144.057-.316-.029-.374-.172l-.172-.487c-.057-.144.029-.316.172-.373l1.207-.43a.744.744 0 0 0 .431-.946l-.431-1.118c-.058-.143.028-.315.172-.373l2.269-.86 3.39 9.116-.833.316c-.144.057-.316-.029-.374-.172l-.402-1.061a.745.745 0 0 0-.948-.43l-2.642.975c-.115.057-.288 0-.345-.144zM225.018 30.319l-1.78-5.046c-.029-.114 0-.343.114-.515a4.228 4.228 0 0 0 .546-3.87c0-.03-.029-.058-.029-.087 0-.028-.028-.057-.028-.085a4.247 4.247 0 0 0-2.873-2.667c-.172-.057-.373-.229-.402-.315l-1.781-5.045a1.44 1.44 0 0 0-1.867-.889l-1.292.459a1.435 1.435 0 0 0-.891 1.863l1.781 5.046c.029.114 0 .344-.115.515a4.23 4.23 0 0 0-.545 3.87c0 .03.028.058.028.087 0 .028.029.057.029.085a4.245 4.245 0 0 0 2.872 2.666c.173.058.374.23.403.316l1.78 5.045a1.44 1.44 0 0 0 1.867.889l1.264-.459c.805-.258 1.207-1.118.919-1.863zm-1.263.774l-1.293.459a.31.31 0 0 1-.402-.201l-1.781-5.046c-.201-.544-.747-.917-1.178-1.06-.976-.258-1.752-1.004-2.096-1.95 0-.028 0-.057-.029-.057v-.029c0-.028-.029-.028-.029-.085-.345-.947-.172-2.007.402-2.838.259-.373.46-1.004.259-1.549l-1.781-5.045a.31.31 0 0 1 .201-.401l1.264-.459a.31.31 0 0 1 .402.2l1.781 5.046c.201.545.747.918 1.177 1.06.977.259 1.753 1.004 2.097 1.95 0 .029 0 .029.029.057v.03c0 .028.029.028.029.085a3.064 3.064 0 0 1-.402 2.81c-.259.372-.46 1.003-.259 1.547l1.781 5.046c.086.2 0 .372-.172.43zM206.751 28.513a2.657 2.657 0 0 0-3.389-1.606c-1.379.488-2.097 2.007-1.637 3.383a2.657 2.657 0 0 0 3.389 1.605 2.653 2.653 0 0 0 1.637-3.382zm-2.01 2.293c-.776.287-1.638-.143-1.925-.917-.287-.774.144-1.634.919-1.92.776-.288 1.637.142 1.925.916a1.49 1.49 0 0 1-.919 1.921zM239.122 17.16a2.658 2.658 0 0 0-3.39-1.605 2.65 2.65 0 0 0-1.608 3.383 2.657 2.657 0 0 0 3.389 1.605 2.65 2.65 0 0 0 1.609-3.382zm-2.011 2.294c-.775.287-1.637-.143-1.924-.917-.288-.774.143-1.634.919-1.92.775-.288 1.637.142 1.924.916.287.803-.115 1.663-.919 1.921zM229.729 8.847a2.657 2.657 0 0 0-3.389-1.605 2.65 2.65 0 0 0-1.609 3.383 2.658 2.658 0 0 0 3.39 1.605c1.35-.487 2.096-2.007 1.608-3.383zm-2.011 2.294c-.775.287-1.637-.143-1.924-.918-.287-.774.144-1.634.919-1.92.776-.287 1.637.143 1.925.917.287.803-.115 1.634-.92 1.92zM209.708 15.87a2.657 2.657 0 0 0-3.389-1.605c-1.379.488-2.097 2.007-1.637 3.383a2.657 2.657 0 0 0 3.389 1.605 2.642 2.642 0 0 0 1.637-3.382zm-1.982 2.294c-.775.287-1.637-.143-1.924-.917-.287-.774.143-1.634.919-1.921.775-.287 1.637.143 1.924.917a1.536 1.536 0 0 1-.919 1.921z" fill="#FFE146"/><path d="M242.885 1.022h-1.178c3.791 13.846-3.734 28.523-17.521 33.34-14.391 5.045-30.217-2.523-35.273-16.914a26.764 26.764 0 0 1-1.493-7.769c2.326 2.179 5.716 2.953 8.789 1.864a8.67 8.67 0 0 0 5.314-5.332c.115-.373.459-.574.804-.488 3.82.889 7.813.688 11.518-.602a20.934 20.934 0 0 0 6.98-4.128h-1.781a18.473 18.473 0 0 1-5.572 3.039 19.21 19.21 0 0 1-10.858.573c-.919-.23-1.838.287-2.154 1.233-.747 2.179-2.441 3.841-4.596 4.615-3.073 1.09-6.491.029-8.444-2.522.057-2.351.373-4.673 1.034-6.966h-1.178a30.053 30.053 0 0 0-1.005 7.31 27.546 27.546 0 0 0 1.579 9.488c5.257 14.964 21.744 22.876 36.738 17.602 14.218-4.902 22.088-20.01 18.297-34.343zM340.057 331.061l-14.591-18.318a3.273 3.273 0 0 0-1.925-1.204c0-.402-.028-.803-.115-1.118a9.33 9.33 0 0 0-1.034-2.408c-2.125-3.469-6.261-4.96-9.995-3.899-4.74-4.816-12.438-5.332-17.78-1.089-5.745 4.558-6.693 12.928-2.126 18.633l6.262 7.883-1.063.832c-1.493 1.175-1.723 3.354-.546 4.844l7.813 9.833h1.465l-8.387-10.549c-.776-1.004-.632-2.437.373-3.211l12.438-9.89c1.235 1.519 2.585 3.153 3.705 4.529-.402.23-.776.459-1.12.746-3.533 2.78-4.108 7.912-1.322 11.438 2.787 3.526 7.928 4.099 11.461 1.318 3.504-2.78 4.108-7.912 1.321-11.438a8.175 8.175 0 0 0-5.285-3.01l3.131-9.116c.259-.774.603-1.978.747-3.182a2.41 2.41 0 0 1 1.091.746l14.592 18.318c.775 1.003.632 2.436-.373 3.21l-12.639 10.034h1.838l11.519-9.145c1.464-1.147 1.723-3.297.545-4.787zm-40.385-2.236l-6.29-7.884c-4.165-5.246-3.304-12.871 1.953-17.028 4.739-3.755 11.518-3.44 15.855.631-.344.172-.718.344-1.063.545a9.248 9.248 0 0 0-2.24 1.978c-2.93-2.064-6.951-2.007-9.823.258-3.533 2.809-4.108 7.94-1.322 11.466l6.004 7.54-3.074 2.494zm3.993-3.211l-6.004-7.539c-2.412-3.039-1.895-7.454 1.121-9.833 2.441-1.949 5.917-2.007 8.416-.229a8.689 8.689 0 0 0-1.178 6.278c.057.315.144.602.23.917.258.831 2.01 3.01 2.212 3.239.488.602 1.062 1.29 1.665 2.036l-6.462 5.131zm20.336 3.067c2.413 3.01 1.896 7.425-1.12 9.833-3.016 2.408-7.44 1.892-9.852-1.118-2.413-3.01-1.896-7.425 1.12-9.833a6.34 6.34 0 0 1 .919-.602c.172.258.402.488.661.688a2.48 2.48 0 0 0 1.838.402c.402-.058.775-.23 1.091-.488.46-.372.776-.86.862-1.433a6.998 6.998 0 0 1 4.481 2.551zm-7.669-4.099a1.16 1.16 0 0 1 .574-.258c.718-.115 1.408.344 1.523 1.061.086.487-.087.974-.489 1.261a1.16 1.16 0 0 1-.574.258c-.345.057-.69 0-.977-.201a1.33 1.33 0 0 1-.546-.86c-.086-.458.115-.946.489-1.261zm5.342-9.087l-2.843 8.313a2.497 2.497 0 0 0-2.097-.602 2.221 2.221 0 0 0-1.092.487c-.287.23-.517.545-.689.86-1.81-2.236-4.05-4.959-5.572-6.822-1.121-1.376-1.925-2.552-2.011-2.867-.086-.258-.144-.545-.201-.803-.574-3.124.862-6.335 3.562-8.026 3.648-2.236 8.444-1.09 10.685 2.551a7.4 7.4 0 0 1 .89 2.093c.287 1.089-.115 3.239-.632 4.816z" fill="#FFE146"/><path d="M321.445 335.791l-1.206-1.52a2.15 2.15 0 0 0-.058-2.637c-.632-.774-1.694-1.032-2.556-.631l-1.207-1.519c-.086-.115-.287-.143-.402-.057l-.459.344a.308.308 0 0 0-.058.401l1.207 1.519a2.15 2.15 0 0 0 .057 2.638c.632.774 1.695 1.032 2.557.63l1.206 1.52a.31.31 0 0 0 .402.057l.46-.344c.143-.086.172-.287.057-.401zm-2.327-2.007c-.43.344-1.091.287-1.436-.172-.344-.43-.287-1.089.173-1.433.43-.344 1.091-.287 1.436.172.344.43.287 1.089-.173 1.433zM140.887 328.108c-3.705-2.522-8.789-1.548-11.317 2.15a8.134 8.134 0 0 0 2.154 11.295c3.706 2.523 8.79 1.548 11.318-2.15 2.527-3.698 1.579-8.743-2.155-11.295zm1.207 10.664c-2.183 3.182-6.549 4.014-9.738 1.835-3.188-2.179-4.021-6.536-1.838-9.718 2.183-3.182 6.549-4.013 9.737-1.835 3.189 2.179 4.022 6.536 1.839 9.718z" fill="#FFE146"/><path d="M139.022 331.376l-.488-.315c-.144-.086-.316-.058-.402.086l-1.092 1.605a2.14 2.14 0 0 0-2.47.774c-.603.832-.517 1.95.115 2.695l-1.092 1.605c-.086.144-.057.316.087.402l.488.315a.288.288 0 0 0 .402-.086l1.091-1.605a2.143 2.143 0 0 0 2.471-.774 2.15 2.15 0 0 0-.115-2.667l1.091-1.605c.086-.172.058-.344-.086-.43zm-1.838 4.014a1.016 1.016 0 0 1-1.408.258l-.028-.029c-.46-.344-.575-.975-.23-1.434a1.014 1.014 0 0 1 1.407-.257l.029.028c.46.344.575.975.23 1.434z" fill="#FFE146"/><path d="M160.219 299.298c-6.06-4.128-14.361-2.551-18.469 3.497l-7.784 11.41-.89-.602a3.467 3.467 0 0 0-4.797.917l-13.184 19.35c-1.063 1.577-.661 3.727.919 4.787l9.421 6.393h2.04l-10.8-7.339c-1.035-.716-1.322-2.15-.604-3.182l13.184-19.35c.718-1.032 2.155-1.318 3.189-.602l24.214 16.426c1.034.717 1.321 2.15.603 3.182l-7.382 10.836h1.379l6.951-10.205c1.062-1.577.66-3.727-.92-4.787l-18.153-12.327 7.526-11.065c2.183-3.211 6.549-4.014 9.766-1.864 3.217 2.179 4.021 6.536 1.867 9.718 0 0-.804 1.147-1.781 2.638-.977 1.462.057 3.182 1.063 3.87 1.206.831 3.016 1.204 4.136-.402a296.072 296.072 0 0 1 2.011-2.924c4.136-5.991 2.556-14.276-3.505-18.375zm2.557 17.773s-.833 1.233-2.011 2.924c-.776 1.118-2.039.43-2.556.086-.431-.286-1.379-1.347-.776-2.293.977-1.491 1.752-2.58 1.781-2.609 2.528-3.726 1.58-8.8-2.154-11.323-3.734-2.523-8.818-1.548-11.346 2.15l-7.526 11.065-3.303-2.236 7.784-11.409c3.763-5.533 11.346-6.966 16.89-3.211 5.543 3.784 7.008 11.324 3.217 16.856zM242.197 342.785c-2.844-8.055-8.962-14.276-16.631-17.257-2.499-5.762-6.405-10.549-11.059-13.502-4.796-3.039-9.938-3.841-14.505-2.236-8.703 3.039-13.155 14.104-10.57 26.259.115.516.345 1.49.517 2.178a29.804 29.804 0 0 0-2.758 6.823h1.178c1.149-4.157 3.275-8.084 6.29-11.467.575-.63 1.178-1.089 1.724-1.29.459-.172.89-.143 1.292.029.575.287 1.063 1.003 1.408 2.007.546 1.748.833 2.436.919 2.58 1.666 4.672 6.836 7.138 11.518 5.504 4.711-1.663 7.181-6.823 5.544-11.496v-.028s-.259-.66-.891-2.494c-.258-.803-.689-2.695.948-3.297.517-.172 1.178-.229 1.953-.115 6.98 1.004 13.156 4.616 17.464 9.948h-.028c0 3.153-2.011 5.991-4.998 7.052-2.241.774-4.654.487-6.607-.803-.833-.545-1.867-.401-2.441.373a19.596 19.596 0 0 1-3.418 3.468h1.781a21.485 21.485 0 0 0 2.556-2.78c.258-.316.632-.287.89-.115a8.63 8.63 0 0 0 7.612.946c3.016-1.061 5.17-3.698 5.687-6.794a28.916 28.916 0 0 1 3.562 6.88c.23.631.402 1.233.574 1.863h1.178a33.69 33.69 0 0 0-.689-2.236zm-27.115-14.046c.574 1.748.862 2.436.89 2.551 1.436 4.099-.747 8.6-4.825 10.033-4.108 1.434-8.617-.716-10.053-4.816l-.029-.057s-.287-.631-.862-2.465c-.431-1.319-1.12-2.265-1.982-2.695a2.796 2.796 0 0 0-2.154-.115c-1.005-6.937 1.58-12.9 6.348-14.562 4.739-1.663 10.599 1.462 14.132 7.482-1.637.688-2.212 2.436-1.465 4.644zm4.165-4.874a6.939 6.939 0 0 0-1.523-.057c-3.849-6.794-10.254-10.177-15.683-8.285-5.4 1.892-8.272 8.543-7.037 16.197a6.587 6.587 0 0 0-1.149 1.061 31.21 31.21 0 0 0-3.016 4.013c-.086-.401-.172-.774-.229-1.032-2.471-11.581 1.665-22.073 9.823-24.94 4.222-1.491 9.019-.717 13.5 2.15 4.165 2.637 7.755 6.88 10.168 11.983-1.609-.488-3.188-.86-4.854-1.09zM151.144 36.712l-9.106 17.687-3.475-1.778a1.476 1.476 0 0 0-1.982.631l-1.609 3.125a1.47 1.47 0 0 0 .632 1.978l3.533 1.806a2.518 2.518 0 0 0 1.322 2.78l.344.172a2.525 2.525 0 0 0 3.39-1.089l11.748-22.847c.114-.23.459-.545.718-.602l7.985-2.552a2.135 2.135 0 0 0 1.206-1.032c.259-.487.287-1.06.144-1.576l-3.275-10.12a2.131 2.131 0 0 0-1.034-1.204c-.488-.258-1.062-.286-1.58-.143l-10.139 3.268a2.135 2.135 0 0 0-1.206 1.032c-.259.487-.287 1.06-.144 1.577l2.557 7.97c.114.228.086.687-.029.916zm-15.137 20.18l1.608-3.124c.086-.172.287-.23.431-.143l3.475 1.777-1.924 3.727-3.476-1.777c-.143-.086-.201-.287-.114-.46zm13.787-30.157c.115-.229.316-.372.546-.458l10.139-3.268a.902.902 0 0 1 .718.057c.23.115.373.316.46.545l3.274 10.12a.901.901 0 0 1-.057.716c-.115.23-.316.372-.546.459l-7.985 2.55c-.546.173-1.149.689-1.408 1.176l-11.748 22.876c-.344.688-1.177.946-1.867.602l-.344-.172a1.377 1.377 0 0 1-.603-1.863l11.747-22.848c.259-.487.316-1.29.144-1.805l-2.556-7.97c-.029-.23-.029-.487.086-.717z" fill="#FFE146"/><path d="M158.64 32.01c1.091.574 2.441.115 2.987-.974.574-1.09.115-2.437-.977-2.982l-3.217-1.634c-1.091-.573-2.441-.115-2.987.975-.574 1.09-.115 2.436.977 2.981l3.217 1.634zm-3.16-4.128c.259-.516.919-.745 1.436-.459l3.217 1.635c.517.258.747.917.46 1.462a1.082 1.082 0 0 1-1.465.458l-3.217-1.634a1.13 1.13 0 0 1-.431-1.462zM76.203 160.924l-5.486-19.092 3.734-1.061a1.477 1.477 0 0 0 1.006-1.834l-.977-3.383a1.48 1.48 0 0 0-1.838-1.003l-3.82 1.089c-.575-.946-1.753-1.462-2.873-1.118l-.373.115a2.492 2.492 0 0 0-1.724 3.124l7.095 24.682c.086.258.029.717-.115.946l-4.079 7.31c-.258.488-.344 1.032-.172 1.577.144.545.517.975.977 1.233l9.335 5.16c.488.258 1.034.344 1.58.172a2.02 2.02 0 0 0 1.235-.975l5.17-9.317c.258-.487.344-1.032.172-1.576a2.016 2.016 0 0 0-.976-1.233l-7.325-4.071c-.172-.114-.46-.487-.546-.745zm-2.786-25.055l.977 3.383c.057.172-.058.344-.23.401l-3.763 1.061-1.149-4.013 3.763-1.061a.352.352 0 0 1 .402.229zm10.6 31.419c.057.229.028.487-.087.717l-5.17 9.316a.816.816 0 0 1-.546.43c-.23.058-.488.029-.718-.086l-9.335-5.16a.816.816 0 0 1-.431-.544 1.047 1.047 0 0 1 .086-.717l4.079-7.31c.287-.487.373-1.261.2-1.806l-7.094-24.682c-.2-.717.201-1.491.948-1.691l.374-.115c.718-.201 1.493.201 1.694.946l7.095 24.682c.144.545.632 1.147 1.149 1.433l7.324 4.071a.784.784 0 0 1 .431.516z" fill="#FFE146"/><path d="M73.963 169.495c-1.178.344-1.867 1.577-1.523 2.752a2.232 2.232 0 0 0 2.758 1.52l3.475-1.004c1.178-.344 1.867-1.576 1.523-2.752a2.232 2.232 0 0 0-2.758-1.519l-3.475 1.003zm5.113.86a1.05 1.05 0 0 1-.747 1.319l-3.476 1.003a1.053 1.053 0 0 1-1.321-.745 1.05 1.05 0 0 1 .747-1.319l3.475-1.003a1.053 1.053 0 0 1 1.322.745zM275.945 344.505l-7.209-24.653c-.087-.258-.029-.717.115-.946l4.021-7.339a2.14 2.14 0 0 0 .172-1.576c-.172-.516-.517-.975-1.005-1.233l-9.364-5.103a2.17 2.17 0 0 0-1.58-.172 1.969 1.969 0 0 0-1.235 1.004l-5.113 9.345a2.158 2.158 0 0 0-.172 1.577c.144.544.517.974 1.005 1.232l7.354 4.014c.229.114.517.487.603.745l5.572 19.063-3.734 1.09a1.489 1.489 0 0 0-1.005 1.834l.488 1.663h1.206l-.574-1.978c-.058-.172.057-.344.23-.401l3.734-1.09 1.005 3.469h1.206l-7.008-23.965c-.172-.545-.661-1.147-1.149-1.434l-7.353-4.013a.816.816 0 0 1-.431-.545 1.041 1.041 0 0 1 .086-.716l5.113-9.346a.822.822 0 0 1 .546-.43c.229-.057.488-.057.718.086l9.277 5.074c.23.115.374.316.431.545a.948.948 0 0 1-.086.688l-4.021 7.339c-.259.487-.345 1.261-.201 1.806l7.209 24.653c.029.057.029.115.029.201h1.149c.057-.144.029-.316-.029-.488z" fill="#FFE146"/><path d="M267.213 310.048a2.23 2.23 0 0 0-2.757-1.519l-3.476 1.003c-1.177.344-1.867 1.577-1.522 2.752a2.232 2.232 0 0 0 2.757 1.519l3.447-1.003c1.235-.344 1.896-1.577 1.551-2.752zm-1.838 1.663l-3.447 1.003a1.102 1.102 0 0 1-1.35-.717c-.172-.573.173-1.175.747-1.347l3.447-1.003c.574-.172 1.177.172 1.321.716.201.574-.144 1.176-.718 1.348zM276.032 1.022h-1.149a1.406 1.406 0 0 1-.976 1.52l-.374.114a1.41 1.41 0 0 1-1.723-.946l-.172-.688h-1.207l.144.545-3.734 1.09c-.173.057-.345-.058-.402-.23l-.403-1.405h-1.206l.517 1.72a1.494 1.494 0 0 0 1.838 1.004l3.821-1.118a2.562 2.562 0 0 0 2.872 1.118l.373-.115a2.513 2.513 0 0 0 1.781-2.609zM16.545 113.51c-.89-.889-2.327-.889-3.189 0-.43.43-.66 1.003-.66 1.605 0 0 0 .029-.029.057l-3.332 2.15a.854.854 0 0 0-.402.602.78.78 0 0 0 .259.688l2.297 2.265c.173.172.431.287.69.258a.757.757 0 0 0 .603-.401l2.097-3.326h.029c.603 0 1.177-.229 1.637-.659.89-.917.89-2.351 0-3.239zm-.804 2.408c-.201.2-.489.344-.805.315-.344 0-.775.143-1.005.516l-1.78 2.781c-.087.143-.23.143-.345.028l-1.322-1.318c-.115-.115-.086-.287.029-.344l2.815-1.806c.345-.23.517-.66.517-1.004 0-.286.115-.573.316-.802.43-.43 1.149-.43 1.58 0 .43.487.43 1.175 0 1.634z" fill="#FFE146"/><path d="M58.683 70.452c-7.9-7.855-20.739-7.855-28.609.029l-2.327 2.322c-.46-.2-.947-.373-1.436-.459-4.337-.974-8.674 1.749-9.65 6.078l-.92 4.013c-.115.459-.574.888-1.034.974A26.239 26.239 0 0 0 .948 90.72c-.316.316-.631.631-.919.975v1.749c.546-.66 1.12-1.319 1.724-1.92 3.734-3.727 8.416-6.107 13.586-7.053.718-.114 1.292-.745 1.436-1.433.144-.688 1.005-4.358 1.005-4.358.833-3.726 4.567-6.048 8.273-5.217a6.935 6.935 0 0 1 3.36 1.835 6.913 6.913 0 0 1 1.867 6.421s-.517 2.293-.689 3.01c-.201.946.316 1.92 1.235 2.437 2.154 1.175 4.108 2.608 5.831 4.328.69.689 1.321 1.405 1.925 2.15.89 1.118 1.666 2.323 2.383 3.555.69 1.204 1.494 1.606 2.815 1.261 1.006-.286 2.7-.602 2.7-.602a6.858 6.858 0 0 1 6.434 1.835 6.821 6.821 0 0 1 1.839 3.325c.861 3.698-1.494 7.425-5.2 8.256 0 0-3.159.717-3.963.918-.804.2-1.666.688-1.982 2.178-.201.918-.43 1.864-.718 2.752-1.206 3.813-3.332 7.282-6.204 10.177-9.881 9.89-25.966 9.89-35.876.029a23.13 23.13 0 0 1-1.78-1.978v1.777c.315.344.631.688.976 1.003 10.34 10.32 27.172 10.292 37.513-.028a26.31 26.31 0 0 0 7.296-13.732c.086-.458.517-.917.976-1.032l4.021-.917c4.338-1.003 7.038-5.332 6.061-9.632a8.417 8.417 0 0 0-.488-1.433l2.326-2.322c7.87-7.912 7.87-20.726-.028-28.58zm-11.49 26.259l-2.9.66c-.46.114-1.006-.144-1.236-.574a26.585 26.585 0 0 0-4.596-6.135 27.255 27.255 0 0 0-6.146-4.587c-.431-.229-.69-.773-.575-1.232l.66-2.896c.26-1.06.26-2.15.087-3.181l2.9-2.896c4.941-4.93 12.955-4.93 17.924-.029 4.94 4.931 4.94 12.958.029 17.889l-2.901 2.895a8.833 8.833 0 0 0-3.246.086zm8.617 3.554a7.537 7.537 0 0 0-1.12-1.404c-.862-.86-1.896-1.52-3.016-1.892l2.413-2.408c5.371-5.39 5.371-14.133-.029-19.494-5.4-5.36-14.16-5.36-19.532.03l-2.413 2.407a7.832 7.832 0 0 0-1.924-3.01 7.54 7.54 0 0 0-1.407-1.118l2.068-2.064c7.439-7.424 19.532-7.453 27-.028 7.439 7.424 7.468 19.493.028 26.946l-2.068 2.035z" fill="#FFE146"/><path d="M26.483 77.848a2.9 2.9 0 0 0-4.078 0 2.885 2.885 0 0 0 0 4.07 2.9 2.9 0 0 0 4.078 0c1.15-1.146 1.15-2.952 0-4.07zm-.804 3.24c-.69.687-1.78.687-2.441 0a1.728 1.728 0 0 1 0-2.466 1.736 1.736 0 0 1 2.47 0c.66.688.66 1.806-.029 2.465zM51.675 102.272a2.9 2.9 0 0 0-4.079 0 2.886 2.886 0 0 0 0 4.071 2.9 2.9 0 0 0 4.079 0 2.886 2.886 0 0 0 0-4.071zm-.804 3.268c-.69.688-1.781.688-2.442 0-.69-.688-.69-1.777 0-2.437a1.736 1.736 0 0 1 2.47 0c.632.66.632 1.749-.029 2.437zM32.659 96.481c-6.923-6.88-18.154-6.88-25.047.029-3.189 3.21-5.027 7.453-5.17 11.954-.03.659.028 1.835.574 2.379.201.201.46.316.747.287.23-.029.546-.115.833-.545.316-.458.69-.86 1.091-1.261 4.108-4.099 10.8-4.128 14.908 0 4.107 4.099 4.136 10.779.028 14.878-.258.258-.545.516-.832.745-.259.23-.345.459-.345.631 0 .229.057.43.23.573.373.373 1.091.459 1.752.459.46 0 .89-.057 1.12-.086 3.878-.516 7.382-2.265 10.168-5.017 6.865-6.937 6.865-18.146-.057-25.026zm-.776 24.195a16.415 16.415 0 0 1-9.507 4.701c-.46.058-.833.086-1.12.058-.173 0-.202-.115-.087-.201.086-.086.172-.143.259-.229 4.567-4.558 4.538-11.954-.029-16.512s-11.978-4.558-16.545 0c-.344.344-.66.716-.948 1.089-.086.115-.23.115-.258-.057-.058-.23-.086-.602-.058-1.061a16.398 16.398 0 0 1 4.826-11.18c6.463-6.45 16.976-6.479 23.438-.029 6.463 6.479 6.463 16.971.029 23.421z" fill="#FFE146"/><path d="M18.153 111.732c-2.728-2.723-7.18-2.723-9.91 0-2.728 2.724-2.728 7.167 0 9.89 2.73 2.724 7.182 2.724 9.91 0a6.946 6.946 0 0 0 0-9.89zm-.775 9.088c-2.27 2.293-6.003 2.293-8.272 0-2.298-2.265-2.298-5.992 0-8.256 2.269-2.294 6.003-2.294 8.272 0 2.269 2.264 2.269 5.962 0 8.256zM37.227 93.041a1.858 1.858 0 0 0-2.614 0 1.849 1.849 0 0 0 0 2.61 1.858 1.858 0 0 0 2.614 0 1.799 1.799 0 0 0 0-2.61zm-.805 1.806c-.287.258-.718.287-1.005 0a.692.692 0 0 1 0-1.003.695.695 0 0 1 1.005 0c.288.287.288.745 0 1.003zM5.63 92.812a1.858 1.858 0 0 0-2.613 0 1.849 1.849 0 0 0 0 2.609 1.858 1.858 0 0 0 2.614 0 1.799 1.799 0 0 0 0-2.609zm-.803 1.806a.75.75 0 0 1-1.006 0 .692.692 0 0 1 0-1.003.75.75 0 0 1 1.006 0 .692.692 0 0 1 0 1.003zM37.082 124.116a1.857 1.857 0 0 0-2.614 0 1.85 1.85 0 0 0 0 2.609 1.859 1.859 0 0 0 2.614 0c.718-.717.718-1.864 0-2.609zm-.804 1.806a.695.695 0 0 1-1.005 0 .692.692 0 0 1 0-1.003.695.695 0 0 1 1.005 0c.287.286.287.745 0 1.003zM6.12 124.173a1.859 1.859 0 0 0-2.615 0 1.85 1.85 0 0 0 0 2.609 1.857 1.857 0 0 0 2.614 0c.747-.745.747-1.892 0-2.609zm-.805 1.806a.713.713 0 0 1-.977 0 .691.691 0 0 1 0-1.003.695.695 0 0 1 1.006 0c.258.258.258.717-.03 1.003zM344.71 91.694c-9.077 10.033-9.077 25.399 0 35.432v-1.777c-7.554-9.26-7.554-22.647 0-31.935v-1.72zM223.468 166.113c-1.063.286-2.097.659-3.045 1.175l-8.502-7.883c-7.784-7.253-20.02-6.823-27.258.946-7.268 7.768-6.837 19.98.947 27.204l8.646 8.027c-.345.831-.574 1.691-.747 2.609-.919 4.988.92 10.205 5.199 14.62 4.251 4.386 10.369 7.482 17.234 8.743 10.743 1.978 23.008-3.985 26.598-7.711l.058-.058c3.504-3.755 8.559-16.311 5.802-26.975-1.752-6.765-5.285-12.642-9.967-16.541-4.711-3.956-10.025-5.418-14.965-4.156zm-37.082 20.64c-7.325-6.794-7.727-18.29-.89-25.6 6.807-7.31 18.325-7.711 25.65-.888l8.243 7.654a16.036 16.036 0 0 0-2.958 2.494c-.345.372-.69.774-1.006 1.204l-8.301-7.74c-5.141-4.788-13.213-4.501-18.009.63-4.797 5.132-4.51 13.187.632 17.974l8.272 7.712c-.259.229-.488.487-.718.716-1.034 1.118-1.896 2.322-2.528 3.612l-8.387-7.768zm28.35-14.219c-2.011 2.924-3.361 6.651-3.906 10.779-.058.487-.575 1.032-1.063 1.146-4.28.86-8.071 2.609-10.915 4.988l-8.359-7.826c-4.682-4.357-4.94-11.696-.574-16.368 4.366-4.673 11.719-4.931 16.401-.574l8.416 7.855zm32.544 14.591c2.843 10.98-2.815 22.962-5.544 25.886l-.057.058c-2.787 2.924-14.506 9.431-25.536 7.396-6.635-1.233-12.552-4.214-16.63-8.428-4.022-4.157-5.774-8.973-4.912-13.617.459-2.494 1.637-4.759 3.475-6.737 2.758-2.952 6.98-5.131 11.892-6.134.488-.086.948-.373 1.321-.746.374-.401.603-.86.661-1.347.632-4.931 2.527-9.288 5.285-12.269 1.867-1.978 4.05-3.326 6.491-3.956 4.567-1.176 9.508.229 13.96 3.927 4.51 3.755 7.899 9.431 9.594 15.967z" fill="#FFE146"/><path d="M225.536 198.793c-.861.946-.833 2.408.115 3.268.948.86 2.413.831 3.275-.115.861-.946.833-2.408-.115-3.268-.919-.86-2.384-.803-3.275.115zm2.557 2.379c-.431.487-1.178.487-1.666.057-.489-.43-.489-1.175-.058-1.662.431-.488 1.178-.488 1.666-.058.489.459.517 1.204.058 1.663z" fill="#FFE146"/><path d="M223.756 197.13c-1.781 1.921-1.695 4.931.229 6.708 1.121 1.061 2.729 1.491 4.251 1.175.23-.057.546.029.661.144l4.481 4.156a1.598 1.598 0 0 0 2.269-.086l1.063-1.118a1.591 1.591 0 0 0-.086-2.264l-4.481-4.157c-.115-.115-.201-.43-.172-.659a4.7 4.7 0 0 0-1.465-4.128c-1.925-1.777-4.941-1.663-6.75.229zm7.066 3.755c-.058.488.057 1.204.545 1.663l4.481 4.157c.173.172.201.458.029.63l-1.063 1.118c-.172.172-.459.201-.632.029l-4.481-4.157c-.459-.43-1.206-.516-1.694-.401a3.584 3.584 0 0 1-3.217-.889 3.587 3.587 0 0 1-.173-5.102 3.604 3.604 0 0 1 5.113-.172 3.58 3.58 0 0 1 1.092 3.124zM222.692 214.301c-1.12 1.176-1.034 3.039.144 4.157 1.178 1.118 3.045 1.032 4.165-.143 1.12-1.176 1.034-3.039-.144-4.157-1.206-1.118-3.073-1.061-4.165.143zm3.447 3.211c-.689.717-1.809.774-2.527.086-.718-.659-.776-1.806-.087-2.523.69-.716 1.81-.774 2.528-.086.747.66.776 1.806.086 2.523zM241.735 193.891c-1.12 1.175-1.034 3.038.144 4.156 1.178 1.118 3.045 1.032 4.165-.143s1.034-3.039-.144-4.157c-1.177-1.118-3.044-1.032-4.165.144zm3.476 3.21c-.689.717-1.81.774-2.528.086-.718-.688-.775-1.806-.086-2.522.661-.717 1.81-.774 2.528-.086.718.688.747 1.806.086 2.522zM196.439 200.971c-1.121 1.176-1.035 3.039.143 4.157 1.178 1.118 3.045 1.032 4.165-.143 1.12-1.176 1.034-3.039-.144-4.157a2.927 2.927 0 0 0-4.164.143zm3.475 3.211c-.689.717-1.809.774-2.528.086-.718-.688-.775-1.806-.086-2.523.661-.716 1.81-.774 2.528-.086.718.66.747 1.806.086 2.523zM226.312 168.951c-1.121 1.175-1.034 3.038.143 4.156 1.178 1.118 3.045 1.032 4.165-.143s1.034-3.039-.144-4.157c-1.177-1.089-3.044-1.032-4.164.144zm3.475 3.239c-.689.717-1.809.774-2.528.086-.718-.688-.775-1.806-.086-2.523.661-.716 1.81-.774 2.528-.086.718.66.775 1.806.086 2.523zM42.194 167.001a4.387 4.387 0 0 0-2.327-5.762c-2.24-.946-4.825.086-5.773 2.322a4.387 4.387 0 0 0 2.326 5.762c2.212.946 4.797-.086 5.774-2.322zm-5.343 1.262a3.287 3.287 0 0 1-1.723-4.272 3.298 3.298 0 0 1 4.28-1.72 3.287 3.287 0 0 1 1.723 4.272c-.718 1.662-2.614 2.408-4.28 1.72z" fill="#FFE146"/><path d="M36.852 184.373a.824.824 0 0 0 1.063-.43l.46-1.089a.823.823 0 0 0-.432-1.061l-1.723-.745c-.144-.057-.23-.229-.172-.344.057-.143.23-.172.373-.115l.574.258a.825.825 0 0 0 1.063-.43l.46-1.089a.823.823 0 0 0-.431-1.061l-2.126-.917c-.143-.057-.2-.229-.143-.373l1.896-4.414a.218.218 0 0 1 .143-.058c2.93.115 5.687-1.634 6.836-4.328 1.551-3.612-.143-7.826-3.762-9.374a7.105 7.105 0 0 0-5.257-.144 7.177 7.177 0 0 0-5.199-.888c-2.872.602-5.113 2.952-5.6 5.848 0 .028-.058.114-.087.114l-11.059 2.322a1.55 1.55 0 0 0-.976.66c-.23.344-.316.774-.23 1.175l.402 1.835c.144.745.833 1.232 1.551 1.232.172 0 .316.086.345.258l.747 3.498c.057.2.172.401.344.516a.222.222 0 0 0 .115.057c.144.057.316.086.489.057l1.177-.258a.825.825 0 0 0 .632-.974l-.402-1.835c-.029-.143.058-.315.201-.344.144-.029.287.086.316.229l.144.602c.057.201.172.402.344.516.173.115.402.172.604.115l1.177-.258c.431-.086.718-.516.632-.975l-.488-2.264c-.029-.144.057-.316.23-.344l4.71-1.004c.029 0 .115.029.144.058 1.465 2.236 4.05 3.44 6.664 3.21l-3.85 9.088c-.344.774.03 1.691.805 2.035l1.723.745c.69.287 1.494.058 1.896-.573.086-.143.259-.201.402-.143l3.275 1.404zm-11.26-16.999l-5.314 1.118c-.2.057-.402.172-.517.344-.115.172-.172.401-.115.602l.489 2.265c.028.143-.058.315-.201.344-.144.028-.288-.058-.316-.23l-.144-.63c-.086-.43-.517-.717-.977-.631l-1.148.229c-.201.058-.403.172-.518.344-.114.172-.172.402-.114.602l.402 1.835c.029.143-.058.315-.201.344-.144.029-.287-.057-.316-.229l-.747-3.498c-.058-.2-.172-.401-.345-.516-.172-.114-.402-.172-.603-.114l-.316.057c-.23.057-.43-.086-.488-.315l-.402-1.835c-.03-.115 0-.201.057-.315a.416.416 0 0 1 .259-.172l11.058-2.322c.489-.115.89-.545.977-1.061.402-2.437 2.269-4.415 4.682-4.902a5.978 5.978 0 0 1 3.676.401 5.88 5.88 0 0 0-1.465 1.204 4.116 4.116 0 0 0-1.867 0c-1.149.23-2.125.918-2.786 1.892a4.3 4.3 0 0 0-.603 3.297 4.35 4.35 0 0 0 2.585 3.125c.575.229 1.178.372 1.838.344.288.487.661.917 1.063 1.318.029.029.058.115.029.144-2.413.487-4.912-.545-6.233-2.58-.316-.316-.89-.545-1.379-.459zm5.889.516a3.233 3.233 0 0 1-2.7-2.551c-.173-.86-.03-1.72.46-2.437.487-.717 1.205-1.233 2.067-1.405.259-.057.546-.086.804-.057a7.067 7.067 0 0 0-.545 1.032c-.776 1.749-.747 3.698-.087 5.418zm2.47 1.691c-1.752-1.72-2.298-4.386-1.322-6.65 1.293-3.039 4.855-4.472 7.9-3.154 3.044 1.29 4.48 4.845 3.159 7.884a6.059 6.059 0 0 1-5.745 3.64c-.517-.028-1.034.316-1.235.774l-2.154 4.988a.822.822 0 0 0 .43 1.061l2.126.917c.144.058.23.23.173.373-.058.143-.23.201-.374.143l-.574-.258a.825.825 0 0 0-1.063.43l-.488 1.032a.822.822 0 0 0 .43 1.061l1.724.745c.144.058.23.23.172.373-.057.143-.23.201-.373.143l-3.275-1.404a.825.825 0 0 0-1.062.43l-.115.286c-.086.201-.316.287-.517.201l-1.724-.745c-.2-.086-.287-.316-.2-.516l4.423-10.349c.172-.459.028-1.061-.316-1.405zM159.616 150.461c2.039 1.318 4.768.745 6.089-1.29a4.39 4.39 0 0 0-1.292-6.078c-2.04-1.318-4.768-.745-6.09 1.29a4.39 4.39 0 0 0 1.293 6.078zm-.345-5.447c.977-1.491 2.987-1.921 4.51-.946a3.263 3.263 0 0 1 .948 4.501c-.977 1.49-2.988 1.92-4.51.946-1.493-.975-1.924-3.01-.948-4.501z" fill="#FFE146"/><path d="M143.387 142.262a.792.792 0 0 0 .23 1.118l1.006.659a.795.795 0 0 0 1.12-.229l1.034-1.577a.29.29 0 0 1 .373-.114.27.27 0 0 1 .058.372l-.345.516a.79.79 0 0 0 .23 1.118l1.005.66a.795.795 0 0 0 1.12-.23l1.264-1.949c.086-.143.259-.172.402-.086l4.05 2.609a.296.296 0 0 1 .058.143c-.603 2.867.66 5.877 3.102 7.453 3.303 2.15 7.755 1.204 9.909-2.092 1.035-1.577 1.35-3.412 1.035-5.16a7.136 7.136 0 0 0 1.78-4.96c-.115-2.924-2.039-5.532-4.825-6.507-.029 0-.086-.086-.086-.115l-.402-11.266a1.737 1.737 0 0 0-.489-1.089 1.466 1.466 0 0 0-1.12-.401l-1.867.057c-.747.029-1.379.602-1.465 1.319-.029.143-.144.286-.316.286l-3.562.144a.724.724 0 0 0-.574.258c-.029.028-.057.086-.086.114a.971.971 0 0 0-.144.488l.058 1.204a.81.81 0 0 0 .861.774l1.896-.058c.172 0 .287.115.287.23 0 .143-.115.258-.287.258l-.632.028a.722.722 0 0 0-.574.258.909.909 0 0 0-.23.574l.029 1.204a.81.81 0 0 0 .861.774l2.298-.086c.173 0 .287.114.287.286l.173 4.816c0 .029-.058.115-.086.115-2.442 1.061-4.108 3.411-4.309 6.02l-8.33-5.389c-.718-.459-1.694-.258-2.154.458l-1.034 1.577a1.555 1.555 0 0 0 .23 1.949.347.347 0 0 1 .057.43l-1.896 3.039zm18.699-8.17l-.201-5.418a.721.721 0 0 0-.258-.573.911.911 0 0 0-.575-.23l-2.297.086c-.173 0-.288-.114-.288-.258 0-.143.115-.258.288-.286l.631-.029a.809.809 0 0 0 .776-.86l-.029-1.175c0-.23-.086-.43-.258-.574a.918.918 0 0 0-.575-.229l-1.895.057c-.173 0-.288-.114-.288-.258 0-.143.115-.258.288-.286l3.475-.058c.23 0 .431-.086.575-.258a.91.91 0 0 0 .229-.573v-.315c0-.23.173-.402.402-.43l1.867-.058a.37.37 0 0 1 .288.115.369.369 0 0 1 .115.287l.402 11.266c.028.487.373.974.861 1.146 2.327.803 3.964 2.982 4.05 5.447.058 1.29-.316 2.494-1.005 3.555a7.883 7.883 0 0 0-.919-1.663 4.41 4.41 0 0 0 .316-1.835c-.029-1.175-.546-2.264-1.408-3.067-.861-.803-1.981-1.204-3.159-1.175a4.353 4.353 0 0 0-3.533 2.006 4.172 4.172 0 0 0-.661 1.749 6.383 6.383 0 0 0-1.493.831c-.029.029-.115.029-.144.029-.086-2.437 1.379-4.73 3.619-5.705.488-.258.804-.745.804-1.261zm-1.493 5.705a3.253 3.253 0 0 1 2.958-2.208 3.309 3.309 0 0 1 2.327.86 3.274 3.274 0 0 1 1.034 2.265c0 .287-.029.545-.086.803a5.869 5.869 0 0 0-.948-.717c-1.551-1.032-3.504-1.376-5.285-1.003zm-2.097 2.121c2.011-1.433 4.739-1.519 6.807-.172 2.787 1.806 3.562 5.533 1.781 8.313-1.809 2.781-5.543 3.555-8.329 1.778-2.069-1.348-3.131-3.87-2.614-6.278a1.302 1.302 0 0 0-.546-1.348l-4.567-2.952a.795.795 0 0 0-1.12.229l-1.264 1.949c-.086.144-.259.172-.374.086a.272.272 0 0 1-.057-.372l.345-.516a.792.792 0 0 0-.23-1.118l-.977-.631a.796.796 0 0 0-1.12.229l-1.034 1.577c-.086.143-.258.172-.373.086a.272.272 0 0 1-.058-.373l1.953-2.981a.791.791 0 0 0-.229-1.118l-.288-.172a.41.41 0 0 1-.115-.545l1.035-1.576a.408.408 0 0 1 .545-.115l9.479 6.135c.316.2.919.2 1.35-.115zM275.688 21.03c-1.781-1.633-4.567-1.547-6.233.23a4.418 4.418 0 0 0 .23 6.22c1.78 1.635 4.567 1.549 6.233-.229 1.665-1.777 1.551-4.558-.23-6.22zm-.603 5.447a3.24 3.24 0 0 1-4.596.172 3.224 3.224 0 0 1-.173-4.586 3.24 3.24 0 0 1 4.596-.172 3.224 3.224 0 0 1 .173 4.587z" fill="#FFE146"/><path d="M290.28 31.895c.316-.344.287-.86-.058-1.146l-.89-.803c-.345-.315-.862-.287-1.149.057l-1.293 1.376c-.114.115-.287.144-.373.03-.115-.087-.086-.259 0-.374l.431-.458c.316-.344.287-.86-.058-1.147l-.89-.803c-.345-.315-.862-.286-1.149.058l-1.58 1.691a.308.308 0 0 1-.402.029l-3.533-3.268c-.029-.029-.029-.115-.029-.144 1.092-2.723.374-5.905-1.78-7.883-2.901-2.666-7.44-2.494-10.111.401a6.988 6.988 0 0 0-1.896 4.902A6.98 6.98 0 0 0 262.935 29c-.402 2.895 1.063 5.82 3.648 7.224.029.029.086.086.086.115l-1.522 11.18c-.058.401.057.802.316 1.146.258.316.603.545 1.034.602l1.867.258c.747.115 1.436-.344 1.694-1.032.058-.143.202-.258.345-.229l3.533.487a.756.756 0 0 0 .603-.172c.029-.028.087-.057.115-.086.115-.114.173-.286.201-.458l.173-1.176a.814.814 0 0 0-.69-.917l-1.867-.258c-.143-.029-.258-.143-.258-.287a.264.264 0 0 1 .316-.2l.632.086a.76.76 0 0 0 .603-.172.824.824 0 0 0 .316-.545l.172-1.175a.813.813 0 0 0-.689-.918l-2.298-.315a.336.336 0 0 1-.259-.315l.661-4.759c0-.029.057-.086.115-.115a7.283 7.283 0 0 0 5.285-5.188l7.296 6.736c.632.574 1.608.545 2.183-.086l1.264-1.376c.517-.544.545-1.376.114-1.978-.086-.114-.114-.315 0-.43l2.356-2.752zm-19.819 4.874l-.718 5.39c-.029.228.028.43.172.601a.822.822 0 0 0 .546.315l2.297.316a.312.312 0 0 1 .259.315c-.029.143-.172.258-.316.23l-.632-.087a.814.814 0 0 0-.919.688l-.144 1.147c-.028.23.029.43.173.602a.822.822 0 0 0 .545.315l1.867.258a.312.312 0 0 1 .259.316c-.029.143-.172.258-.316.23l-3.533-.488a.756.756 0 0 0-.603.172.82.82 0 0 0-.316.544l-.058.316c-.028.23-.229.372-.459.344l-1.867-.258a.303.303 0 0 1-.259-.144.556.556 0 0 1-.086-.286l1.522-11.18a1.345 1.345 0 0 0-.66-1.29c-2.154-1.176-3.39-3.612-3.045-6.049a6.052 6.052 0 0 1 1.609-3.325 6.22 6.22 0 0 0 .632 1.777c-.345.516-.546 1.118-.632 1.749-.144 1.175.143 2.322.861 3.24a4.3 4.3 0 0 0 2.901 1.69 4.368 4.368 0 0 0 3.821-1.376 4.34 4.34 0 0 0 .948-1.605 8.19 8.19 0 0 0 1.608-.545c.029-.028.115 0 .144 0-.345 2.437-2.155 4.444-4.539 4.988-.574.144-.976.574-1.062 1.09zm2.47-5.36a3.27 3.27 0 0 1-3.303 1.69 3.231 3.231 0 0 1-2.155-1.26 3.282 3.282 0 0 1-.43-3.183c.229.315.517.602.804.86 1.379 1.29 3.217 1.95 5.084 1.892zm2.413-1.75a6.007 6.007 0 0 1-6.722-1.003c-2.441-2.236-2.585-6.049-.316-8.485 2.241-2.437 6.061-2.58 8.502-.316 1.81 1.663 2.413 4.33 1.494 6.622a1.28 1.28 0 0 0 .316 1.405l3.993 3.698a.791.791 0 0 0 1.149-.057l1.579-1.692a.308.308 0 0 1 .402-.028.277.277 0 0 1 0 .401l-.43.459c-.316.344-.288.86.057 1.146l.862.803a.791.791 0 0 0 1.149-.057l1.292-1.376a.308.308 0 0 1 .402-.029.277.277 0 0 1 0 .401l-2.412 2.61c-.316.343-.288.86.057 1.146l.23.23c.172.142.172.4.029.572l-1.264 1.376c-.144.172-.402.172-.575.03l-8.272-7.655c-.46-.344-1.063-.43-1.522-.2zM198.336 293.335c1.953-1.433 2.412-4.185.976-6.134-1.436-1.95-4.193-2.408-6.146-.975-1.954 1.433-2.413 4.185-.977 6.135 1.407 1.978 4.165 2.408 6.147.974zm-5.228-1.634a3.24 3.24 0 0 1 .718-4.529c1.465-1.061 3.504-.717 4.538.717a3.239 3.239 0 0 1-.718 4.529c-1.436 1.061-3.475.717-4.538-.717z" fill="#FFE146"/><path d="M184.836 305.519a.798.798 0 0 0 1.149.172l.976-.688a.794.794 0 0 0 .173-1.147l-1.121-1.519c-.086-.115-.086-.287.029-.373.115-.086.287-.057.373.086l.374.516a.797.797 0 0 0 1.149.172l.976-.688a.794.794 0 0 0 .173-1.147l-1.35-1.863c-.086-.115-.058-.315.057-.401l3.907-2.838c.028-.029.114 0 .143 0a7.255 7.255 0 0 0 8.1-.229c3.189-2.323 3.907-6.795 1.58-9.977a7.142 7.142 0 0 0-4.452-2.809 7.105 7.105 0 0 0-4.021-3.44c-2.787-.946-5.917-.086-7.813 2.15a.3.3 0 0 1-.144.057l-10.685-3.64a1.408 1.408 0 0 0-1.178.086c-.373.172-.66.487-.775.888l-.603 1.778c-.259.716.057 1.49.689 1.863.144.086.23.229.172.401l-1.149 3.383a.958.958 0 0 0 .029.631.405.405 0 0 0 .086.114c.086.144.23.23.402.287l1.121.401a.813.813 0 0 0 1.034-.515l.603-1.778a.313.313 0 0 1 .345-.201c.143.058.201.201.143.344l-.201.602a.958.958 0 0 0 .029.631.711.711 0 0 0 .459.402l1.121.401a.815.815 0 0 0 1.034-.516l.747-2.179a.288.288 0 0 1 .373-.172l4.567 1.548c.029.029.086.086.086.115a7.198 7.198 0 0 0 4.079 6.163l-8.043 5.82a1.55 1.55 0 0 0-.344 2.15l1.091 1.519a1.566 1.566 0 0 0 1.925.487c.143-.057.316-.029.402.086l2.183 2.867zm-.948-20.354l-5.142-1.748a.954.954 0 0 0-.632.028.711.711 0 0 0-.402.459l-.747 2.179c-.057.143-.201.229-.344.172-.144-.058-.201-.201-.173-.344l.201-.602a.812.812 0 0 0-.517-1.032l-1.091-.373a.96.96 0 0 0-.632.029.71.71 0 0 0-.402.458l-.603 1.778c-.058.143-.201.229-.345.172-.144-.058-.201-.201-.172-.344l1.149-3.383a.958.958 0 0 0-.029-.631.711.711 0 0 0-.46-.401l-.316-.115a.445.445 0 0 1-.258-.516l.603-1.777c.029-.115.115-.172.201-.229.086-.058.201-.058.316-.029l10.685 3.641c.46.172 1.063 0 1.379-.402 1.58-1.892 4.222-2.608 6.549-1.806a5.85 5.85 0 0 1 2.958 2.208c-.632 0-1.263.086-1.895.258a4.842 4.842 0 0 0-1.609-.975c-1.12-.373-2.298-.315-3.36.201-1.063.516-1.839 1.404-2.241 2.522a4.323 4.323 0 0 0 .603 4.014 4.52 4.52 0 0 0 1.408 1.233c0 .573.086 1.117.23 1.691 0 .028-.001.114-.029.143-2.327-.803-3.935-2.981-4.022-5.418-.028-.401-.373-.889-.861-1.061zm4.797 3.44a3.192 3.192 0 0 1-1.006-3.554 3.19 3.19 0 0 1 1.638-1.864 3.28 3.28 0 0 1 2.498-.143c.259.086.517.201.719.344-.345.172-.69.373-1.006.602-1.551 1.118-2.527 2.809-2.843 4.615zm1.235 2.724c-.632-2.38.287-4.959 2.269-6.393 2.671-1.949 6.463-1.347 8.387 1.319 1.953 2.666 1.35 6.45-1.321 8.37-1.982 1.434-4.74 1.52-6.808.173-.43-.287-1.034-.258-1.436.028l-4.394 3.182a.794.794 0 0 0-.173 1.147l1.35 1.863c.086.115.058.316-.057.402-.115.086-.287.057-.374-.087l-.373-.515a.798.798 0 0 0-1.149-.173l-.948.688a.795.795 0 0 0-.172 1.147l1.12 1.52c.086.114.057.315-.057.401-.115.086-.288.057-.374-.086l-2.097-2.895a.797.797 0 0 0-1.149-.172l-.258.2c-.172.144-.431.086-.575-.086l-1.091-1.519c-.144-.172-.086-.43.086-.573l9.134-6.623c.402-.258.603-.831.46-1.318zM90.279 270.402c.172 2.408 2.298 4.243 4.71 4.071 2.413-.172 4.251-2.293 4.08-4.701-.173-2.408-2.299-4.243-4.712-4.071-2.441.172-4.28 2.293-4.078 4.701zm4.136-3.554a3.228 3.228 0 0 1 3.475 3.01 3.226 3.226 0 0 1-3.016 3.468 3.228 3.228 0 0 1-3.475-3.01c-.115-1.777 1.235-3.325 3.016-3.468z" fill="#FFE146"/><path d="M87.032 252.543a.793.793 0 0 0-.746.888l.086 1.204c.028.459.43.774.89.746l1.896-.144c.144 0 .287.086.316.23 0 .143-.115.258-.259.286l-.632.058c-.46.028-.804.43-.746.86l.086 1.204c.028.458.43.802.861.745l2.298-.172c.173 0 .288.115.316.258l.345 4.816c0 .029-.057.115-.086.115-2.643 1.261-4.309 4.07-4.079 6.994.287 3.928 3.734 6.909 7.67 6.622 1.895-.143 3.532-1.003 4.739-2.293a6.952 6.952 0 0 0 5.026-1.605c2.269-1.864 3.189-4.959 2.269-7.769 0-.028 0-.114.029-.143l8.732-7.138c.316-.258.517-.631.575-1.032a1.701 1.701 0 0 0-.345-1.147l-1.178-1.462a1.587 1.587 0 0 0-1.953-.373.348.348 0 0 1-.431-.057l-2.269-2.752c-.144-.172-.345-.287-.546-.287h-.143c-.173 0-.316.086-.46.172l-.977.774a.817.817 0 0 0-.114 1.147l1.206 1.462a.245.245 0 0 1-.029.373.272.272 0 0 1-.373-.058l-.402-.487c-.144-.172-.345-.287-.546-.287a.76.76 0 0 0-.603.172l-.919.746a.815.815 0 0 0-.115 1.146l1.465 1.778c.086.115.086.315-.029.401l-3.734 3.039c-.029.029-.115.029-.144 0-2.326-1.319-5.199-1.204-7.41.2l-.719-9.89c-.057-.86-.804-1.49-1.665-1.433l-1.868.143a1.562 1.562 0 0 0-1.436 1.376c-.028.144-.143.287-.287.316l-3.562.258zm17.809 9.947l4.222-3.44c.173-.143.288-.344.288-.545a.756.756 0 0 0-.173-.602l-1.465-1.777c-.115-.115-.086-.287.029-.401.115-.086.287-.058.402.057l.402.487a.82.82 0 0 0 1.149.115l.891-.745c.172-.144.287-.344.287-.545a.756.756 0 0 0-.172-.602l-1.207-1.462a.306.306 0 0 1 .029-.401c.115-.086.287-.058.402.057l2.269 2.752c.144.172.345.287.546.287a.76.76 0 0 0 .603-.172l.259-.201a.41.41 0 0 1 .574.057l1.178 1.462a.557.557 0 0 1 .086.287.3.3 0 0 1-.144.258l-8.732 7.138c-.373.315-.545.889-.402 1.376a5.977 5.977 0 0 1-1.924 6.507 6.137 6.137 0 0 1-3.447 1.348 8.74 8.74 0 0 0 .775-1.749 5.05 5.05 0 0 0 1.666-.831c.92-.746 1.465-1.806 1.609-2.953a4.306 4.306 0 0 0-.977-3.211c-.948-1.146-2.355-1.719-3.734-1.605a4.902 4.902 0 0 0-1.78.516 7.498 7.498 0 0 0-1.552-.688c-.028 0-.086-.086-.115-.114a5.996 5.996 0 0 1 6.75-.545c.403.229 1.006.2 1.408-.115zm-5.457 2.236a3.225 3.225 0 0 1 3.561 1.032 3.228 3.228 0 0 1-.459 4.558 2.772 2.772 0 0 1-.69.43 7.946 7.946 0 0 0 0-1.175 7.238 7.238 0 0 0-2.413-4.845zm-2.96-.373c2.356.717 4.051 2.838 4.252 5.304.23 3.296-2.24 6.192-5.572 6.421-3.303.229-6.205-2.236-6.434-5.561-.173-2.466 1.206-4.816 3.418-5.848.46-.23.775-.745.747-1.233l-.403-5.418a.803.803 0 0 0-.861-.745l-2.298.172c-.172 0-.287-.086-.316-.258 0-.144.115-.287.258-.287l.632-.057a.794.794 0 0 0 .747-.889l-.086-1.175c-.029-.459-.43-.803-.862-.746l-1.895.144c-.144 0-.288-.086-.317-.258 0-.144.115-.287.259-.287l3.562-.258a.794.794 0 0 0 .746-.889l-.028-.315c-.029-.229.143-.401.373-.43l1.867-.143c.23-.029.402.143.431.372l.833 11.238c.057.516.46 1.003.948 1.146zM209.796 101.154c-4.567-1.892-9.795.287-11.691 4.845a8.907 8.907 0 0 0 1.551 9.316c-1.12 2.781-1.206 3.154-1.091 3.526 0 0 .23.975.373 1.462.029.144-.028.344-.172.43l-1.465.889c-.402.258-.632.803-.517 1.261 0 0 .287 1.118.402 1.663.029.143-.029.344-.172.43l-1.465.889c-.402.258-.632.802-.517 1.261 0 0 .287 1.118.402 1.663.029.143-.029.344-.172.43l-1.465.888c-.402.258-.632.803-.517 1.262 0 0 .287 1.146.402 1.691.029.143-.029.344-.172.43l-.345.229a1.16 1.16 0 0 0-.488 1.233l.66 3.039c.086.401.431.831.833.974l.316.115c.345.143.862.143 1.207.029l1.867-.717c.373-.143.746-.487.89-.86l7.956-19.149c3.505 0 6.865-2.064 8.273-5.504 1.838-4.587-.316-9.833-4.883-11.725zm-10.628 5.275c1.637-3.956 6.233-5.848 10.197-4.214 3.964 1.634 5.859 6.22 4.222 10.176-1.637 3.956-6.233 5.848-10.197 4.214a7.753 7.753 0 0 1-4.222-10.176zm-2.068 30.874l-1.867.716a.81.81 0 0 1-.373 0l-.316-.114c-.058-.029-.115-.115-.144-.172l-.603-2.752c-.029-.144.029-.373.172-.459.172-.115.374-.258.374-.258.402-.258.603-.803.488-1.261l-.402-1.634c-.029-.144.028-.344.172-.43.46-.287 1.465-.889 1.465-.889.402-.258.632-.803.517-1.261l-.402-1.634c-.029-.144.029-.344.172-.43.46-.287 1.465-.889 1.465-.889.402-.258.632-.803.517-1.261l-.402-1.634c-.029-.144.029-.344.172-.43.46-.287 1.465-.889 1.465-.889.402-.258.632-.803.517-1.261l-.431-1.692c.029-.286.489-1.49.862-2.408a8.455 8.455 0 0 0 2.413 1.462c.718.287 1.465.488 2.212.602l-7.784 18.748a.681.681 0 0 1-.259.23z" fill="#FFE146"/><path d="M210.169 107.461a2.782 2.782 0 0 0-1.493-3.612 2.792 2.792 0 0 0-3.619 1.491 2.782 2.782 0 0 0 1.493 3.612c1.436.573 3.045-.086 3.619-1.491zm-4.05-1.691a1.593 1.593 0 0 1 2.097-.86 1.587 1.587 0 0 1 .862 2.092 1.593 1.593 0 0 1-2.097.86c-.804-.315-1.178-1.261-.862-2.092zM203.505 119.329l-.517-.229c-.144-.058-.316 0-.374.143l-6.922 16.655c-.058.144 0 .316.144.373l.517.229c.143.058.316 0 .373-.143l6.922-16.655c.058-.144 0-.316-.143-.373zM52.62 50.758c4.855.917 9.537-2.293 10.456-7.138.66-3.468-.804-6.822-3.447-8.8.546-2.953.517-3.326.345-3.67 0 0-.43-.888-.66-1.347a.448.448 0 0 1 .086-.459l1.264-1.175c.344-.316.459-.889.258-1.348 0 0-.488-1.032-.747-1.548a.448.448 0 0 1 .086-.458l1.264-1.175c.345-.316.46-.918.259-1.348 0 0-.489-1.032-.747-1.548a.448.448 0 0 1 .086-.459l1.264-1.175c.345-.315.46-.917.258-1.347 0 0-.517-1.06-.746-1.577a.448.448 0 0 1 .086-.459l.287-.286c.316-.344.43-.889.23-1.319l-1.293-2.838c-.172-.373-.603-.716-1.005-.803l-.316-.057c-.373-.057-.862.029-1.178.23l-1.666 1.089c-.316.2-.603.63-.689 1.032l-3.849 20.382c-3.447.717-6.29 3.44-6.98 7.11-.948 4.901 2.24 9.574 7.095 10.491zm9.336-7.339c-.804 4.215-4.883 7.024-9.105 6.221-4.223-.803-7.038-4.873-6.233-9.087.804-4.214 4.883-7.023 9.105-6.22 4.222.773 7.009 4.873 6.233 9.087zM57.59 12.805l1.666-1.09c.086-.057.258-.086.345-.057l.316.057c.057 0 .143.086.172.143l1.149 2.58a.577.577 0 0 1-.057.488c-.144.143-.288.344-.288.344-.344.344-.43.917-.2 1.318l.746 1.52a.448.448 0 0 1-.086.459c-.402.372-1.264 1.175-1.264 1.175-.345.315-.46.917-.258 1.347l.746 1.52a.449.449 0 0 1-.086.458l-1.264 1.175c-.344.316-.46.918-.258 1.348l.747 1.52a.448.448 0 0 1-.087.458c-.402.372-1.263 1.175-1.263 1.175-.345.316-.46.918-.259 1.348l.776 1.576c.028.287-.173 1.548-.345 2.523a9.066 9.066 0 0 0-2.643-.946 10.176 10.176 0 0 0-2.269-.144l3.792-20.037c0-.086.115-.23.172-.258z" fill="#FFE146"/><path d="M50.955 44.68c-.287 1.492.718 2.953 2.212 3.212 1.494.286 2.959-.717 3.217-2.208.287-1.49-.718-2.953-2.212-3.21-1.493-.287-2.93.716-3.217 2.207zm4.309.803c-.172.86-1.006 1.463-1.896 1.29-.862-.172-1.465-1.003-1.293-1.892.173-.86 1.006-1.462 1.896-1.29.862.172 1.465 1.032 1.293 1.892zM55.033 31.695l.575.114c.143.03.316-.086.344-.229l3.332-17.745c.029-.143-.086-.315-.23-.344l-.574-.114c-.144-.029-.316.086-.345.23L54.803 31.35a.314.314 0 0 0 .23.344zM301.51 248.013a8.94 8.94 0 0 0-6.233 11.008 8.963 8.963 0 0 0 6.98 6.393c.833 2.895 1.006 3.211 1.293 3.44 0 0 .775.631 1.177.917.115.086.173.287.115.43l-.603 1.606a1.167 1.167 0 0 0 .374 1.318s.919.717 1.35 1.061a.399.399 0 0 1 .114.43l-.603 1.605a1.169 1.169 0 0 0 .374 1.319s.919.717 1.35 1.061c.115.086.172.286.115.43l-.604 1.605a1.17 1.17 0 0 0 .374 1.319s.919.745 1.35 1.089c.115.086.172.287.143.459l-.115.372c-.143.459 0 1.004.374 1.29l2.413 1.978c.316.258.861.373 1.263.258l.316-.086c.374-.114.776-.401.977-.745l1.034-1.72c.201-.344.259-.831.172-1.204l-5.572-19.981c2.757-2.15 4.107-5.848 3.102-9.431-1.321-4.759-6.262-7.568-11.03-6.221zm-5.112 10.693c-1.149-4.128 1.292-8.428 5.428-9.603 4.136-1.147 8.445 1.29 9.623 5.418 1.149 4.128-1.293 8.428-5.429 9.603-4.165 1.147-8.473-1.29-9.622-5.418zm17.435 25.542l-1.034 1.72a.723.723 0 0 1-.288.229l-.316.086c-.057 0-.172 0-.201-.057l-2.183-1.806c-.114-.115-.201-.315-.143-.459.057-.2.115-.43.115-.43a1.222 1.222 0 0 0-.402-1.29l-1.35-1.032c-.115-.086-.173-.286-.144-.458.201-.516.603-1.606.603-1.606a1.167 1.167 0 0 0-.373-1.318l-1.35-1.032c-.115-.086-.173-.287-.144-.459.201-.516.603-1.605.603-1.605a1.168 1.168 0 0 0-.373-1.319l-1.35-1.032c-.115-.086-.172-.287-.115-.459.201-.516.603-1.605.603-1.605a1.168 1.168 0 0 0-.373-1.319l-1.379-1.089c-.144-.229-.517-1.491-.804-2.437a9.241 9.241 0 0 0 2.786-.315 8.545 8.545 0 0 0 2.097-.889l5.457 19.608c.144.144.115.316.058.373z" fill="#FFE146"/><path d="M305.704 252.715a2.762 2.762 0 0 0-3.39-1.921c-1.465.401-2.326 1.921-1.924 3.411.402 1.462 1.924 2.322 3.418 1.921 1.436-.43 2.298-1.949 1.896-3.411zm-4.223 1.175c-.229-.86.259-1.749 1.121-1.978.861-.229 1.752.258 1.981 1.118.23.86-.258 1.749-1.12 1.978-.861.229-1.752-.258-1.982-1.118zM307.772 266.188l-.546.143c-.144.029-.23.201-.201.344l4.854 17.372c.029.144.201.23.345.201l.546-.143c.143-.029.23-.201.201-.344l-4.854-17.372a.256.256 0 0 0-.345-.201zM222.636 263.178a8.915 8.915 0 0 0 1.35-12.556c-2.212-2.752-5.716-3.841-8.962-3.096-1.895-2.322-2.183-2.551-2.556-2.666 0 0-.977-.258-1.465-.373-.144-.028-.287-.2-.287-.344l-.058-1.72c-.028-.487-.402-.946-.861-1.06 0 0-1.121-.287-1.666-.43-.144-.029-.288-.201-.288-.344l-.086-1.72c-.028-.488-.373-.946-.861-1.061 0 0-1.121-.287-1.666-.43-.144-.029-.288-.201-.288-.344l-.057-1.72c-.029-.487-.402-.946-.862-1.061l-1.666-.458c-.143-.029-.287-.201-.316-.373l-.028-.401c-.058-.459-.403-.918-.862-1.032l-3.016-.889c-.402-.115-.919 0-1.264.258l-.258.201c-.288.229-.546.688-.604 1.06l-.258 1.978c-.058.373.086.889.345 1.176l13.04 16.139a8.875 8.875 0 0 0 .89 9.89c3.131 3.87 8.761 4.472 12.61 1.376zm.46-11.839c2.7 3.354 2.183 8.256-1.178 10.95-3.361 2.695-8.272 2.179-10.972-1.175-2.7-3.354-2.183-8.256 1.177-10.951 3.361-2.694 8.273-2.178 10.973 1.176zm-26.167-16.57l.258-1.978c0-.086.115-.258.172-.315l.259-.201a.545.545 0 0 1 .201-.057l2.729.803c.143.057.316.2.316.372.028.201.057.459.057.459.058.487.402.917.862 1.032l1.637.43c.144.029.287.201.287.373.029.544.086 1.72.086 1.72.029.487.374.946.862 1.06l1.637.43c.144.029.288.201.288.344l.086 1.72c.029.488.373.946.861 1.061l1.638.43c.143.029.287.201.287.373.029.544.086 1.72.086 1.72.029.487.402.946.862 1.06l1.695.43c.229.172 1.062 1.147 1.694 1.921a8.708 8.708 0 0 0-2.441 1.405c-.603.487-1.149 1.032-1.58 1.634l-12.811-15.853c.029-.115-.028-.315-.028-.373z" fill="#FFE146"/><path d="M216.921 260.512c.948 1.175 2.7 1.376 3.877.43 1.178-.946 1.379-2.695.431-3.87-.948-1.175-2.7-1.376-3.877-.43-1.207.946-1.379 2.666-.431 3.87zm3.418-2.752c.546.688.459 1.72-.23 2.265-.689.544-1.723.458-2.269-.23-.546-.688-.46-1.72.23-2.264.689-.574 1.694-.459 2.269.229zM209.681 248.96l.459-.373c.115-.086.144-.287.058-.401l-11.346-14.047a.309.309 0 0 0-.402-.058l-.46.373c-.115.086-.143.287-.057.402l11.346 14.046c.086.144.258.172.402.058zM43.028 255.495c-6.865-.544-13.3 1.606-18.326 5.533l-16.43-1.319a19.285 19.285 0 0 0-8.243 1.147v1.233a18.09 18.09 0 0 1 8.157-1.233l15.252 1.204a26.326 26.326 0 0 0-4.394 5.045l-11.777-.946c-2.614-.2-5.113.402-7.238 1.577v1.347a11.572 11.572 0 0 1 7.152-1.777l11.173.889c-2.01 3.354-3.274 7.166-3.619 11.323-.316 4.128.316 8.141 1.781 11.753l-11.173-.888a11.935 11.935 0 0 1-5.314-1.778v1.348a12.791 12.791 0 0 0 5.199 1.576l11.776.946c.948 2.036 2.126 3.956 3.533 5.676l-15.252-1.204A18.009 18.009 0 0 1 0 295.715v1.232a19.348 19.348 0 0 0 5.17 1.147l16.43 1.319c4.337 4.672 10.37 7.826 17.205 8.37 14.448 1.147 27.144-9.632 28.293-24.051 1.206-14.419-9.622-27.09-24.07-28.237zm22.979 28.151c-1.092 13.789-13.242 24.109-27.058 22.991-13.816-1.09-24.156-13.216-23.036-27.004 1.091-13.789 13.241-24.109 27.057-22.991 13.788 1.089 24.128 13.215 23.037 27.004z" fill="#FFE146"/><path d="M42.425 263.092c-10.255-.831-19.245 6.851-20.078 17.085-.833 10.234 6.865 19.207 17.119 20.038 10.254.803 19.245-6.851 20.078-17.085.804-10.234-6.865-19.235-17.12-20.038zm15.97 19.923c-.776 9.604-9.22 16.799-18.843 16.025-9.622-.774-16.832-9.202-16.056-18.805.775-9.604 9.22-16.799 18.842-16.025 9.623.774 16.832 9.202 16.057 18.805z" fill="#FFE146"/><path d="M42.138 266.676c-8.273-.66-15.511 5.504-16.172 13.76-.66 8.255 5.515 15.479 13.788 16.139 8.272.659 15.51-5.504 16.171-13.76.66-8.227-5.515-15.48-13.787-16.139zm12.638 16.053c-.603 7.625-7.325 13.33-14.936 12.699-7.64-.602-13.357-7.31-12.725-14.906.604-7.626 7.325-13.33 14.936-12.7 7.641.602 13.357 7.31 12.725 14.907z" fill="#FFE146"/><path d="M48.888 278.257c-.23-.23-.574-.316-.919-.258l-7.669 1.089c-.115.029-.345-.086-.488-.229a3.817 3.817 0 0 0-2.672-1.376 3.86 3.86 0 0 0-4.165 3.526c-.172 2.121 1.437 3.985 3.562 4.157a3.771 3.771 0 0 0 2.815-.918c.144-.143.402-.2.517-.172l7.468 2.265c.316.086.66.057.948-.143.259-.172.431-.488.46-.832l.46-6.249c.057-.316-.087-.631-.317-.86zm-1.206 6.393c-.029.315-.287.487-.603.401l-6.865-2.064c-.575-.172-1.235.086-1.609.401a2.753 2.753 0 0 1-1.982.631 2.727 2.727 0 0 1-2.498-2.924c.114-1.491 1.436-2.609 2.93-2.494a2.67 2.67 0 0 1 1.866.974c.316.373.92.717 1.523.631l7.037-1.003c.316-.058.546.172.517.487l-.316 4.96zM19.16 277.626a2.306 2.306 0 0 0-2.47 2.093c-.087 1.261.832 2.35 2.096 2.436 1.264.086 2.355-.831 2.441-2.092.144-1.261-.804-2.351-2.068-2.437zm-.26 3.383c-.631-.058-1.09-.602-1.033-1.204.057-.631.603-1.089 1.206-1.032.632.057 1.092.602 1.034 1.204a1.09 1.09 0 0 1-1.206 1.032zM63.076 281.123c-1.264-.086-2.355.832-2.442 2.093a2.242 2.242 0 0 0 2.097 2.437c1.264.086 2.356-.832 2.442-2.093.086-1.233-.833-2.351-2.097-2.437zm-.287 3.383c-.632-.057-1.092-.602-1.034-1.204.057-.631.603-1.089 1.206-1.032.632.057 1.091.602 1.034 1.204-.029.631-.574 1.089-1.206 1.032zM38.662 301.19c-1.264-.086-2.355.831-2.442 2.093-.086 1.261.833 2.35 2.097 2.436a2.242 2.242 0 0 0 2.442-2.092c.115-1.233-.833-2.322-2.097-2.437zm-.259 3.411c-.631-.057-1.091-.601-1.034-1.203.058-.631.604-1.09 1.207-1.033.632.058 1.091.602 1.034 1.204-.029.602-.575 1.061-1.207 1.032zM42.195 257.445c-1.264-.086-2.355.831-2.441 2.092a2.241 2.241 0 0 0 2.096 2.437c1.264.086 2.356-.831 2.442-2.093.086-1.232-.862-2.322-2.097-2.436zm-.287 3.411c-.632-.057-1.092-.602-1.034-1.204.057-.631.603-1.089 1.206-1.032.632.057 1.092.602 1.034 1.204a1.108 1.108 0 0 1-1.206 1.032zM344.71 269.112v-1.347a12.664 12.664 0 0 0-6.462 10.09c-.403 5.103 2.269 9.747 6.462 12.098v-1.348c-3.504-2.236-5.687-6.278-5.313-10.692.287-3.727 2.355-6.909 5.313-8.801zm0-7.023v-1.233c-6.807 2.523-11.891 8.829-12.523 16.512-.689 8.772 4.624 16.655 12.523 19.579v-1.232c-7.18-2.867-12.006-10.177-11.374-18.261.574-7.081 5.17-12.9 11.374-15.365z" fill="#FFE146"/></svg>